<svg version="1.1" id="Layer_1" xmlns="http://www.w3.org/2000/svg" xmlns:xlink="http://www.w3.org/1999/xlink" x="0px" y="0px"
	 width="100%" viewBox="0 0 1500 1687" enable-background="new 0 0 1500 1687" xml:space="preserve">
<path fill="#4C6971" opacity="1.000000" stroke="none" 
	d="
M1.000000,1687.000000 
	C1.000000,1423.969116 1.000000,1160.938110 1.372563,897.438538 
	C7.783712,900.907776 8.017981,907.703369 8.508258,913.511719 
	C9.718518,927.849915 8.445108,942.473694 10.472568,956.653381 
	C17.699095,1007.194458 33.045540,1055.707397 49.208275,1103.955078 
	C49.701500,1105.427368 50.986786,1106.634521 52.226990,1107.971680 
	C52.982677,1107.985474 53.414158,1107.992798 53.947571,1108.372681 
	C55.071018,1112.088013 55.815514,1115.546997 57.160828,1118.753906 
	C63.848591,1134.696045 70.691872,1150.572754 77.495628,1166.465942 
	C77.755234,1167.072388 78.193703,1167.599854 78.511810,1168.184082 
	C87.027756,1183.825806 95.479294,1199.503174 104.087044,1215.094116 
	C106.652733,1219.741333 109.604774,1224.179565 112.467201,1228.657715 
	C116.578644,1235.089844 120.865822,1241.411255 124.899712,1247.890991 
	C128.681320,1253.965332 131.697830,1260.585571 135.977188,1266.268066 
	C152.583420,1288.319824 169.180008,1310.399292 186.520737,1331.870483 
	C199.571716,1348.030029 213.268356,1363.737427 227.574875,1378.793579 
	C240.512802,1392.409546 254.504883,1405.045288 268.319977,1417.801636 
	C291.967072,1439.636597 317.556671,1459.047119 344.186920,1477.064453 
	C381.364380,1502.217773 420.342041,1524.141479 461.440308,1542.318359 
	C491.342712,1555.543579 521.893494,1566.891357 553.265625,1576.052856 
	C589.278687,1586.569702 625.817871,1594.850098 663.087463,1599.127563 
	C690.153442,1602.234009 717.363525,1604.642578 744.575439,1605.774536 
	C776.840271,1607.116455 809.172424,1606.085938 841.263184,1601.974609 
	C865.180298,1598.910522 889.156006,1595.879883 912.817810,1591.335693 
	C961.518799,1581.982788 1008.843689,1567.722046 1054.382690,1547.941650 
	C1065.789185,1542.987183 1076.735107,1536.969604 1087.869385,1531.393799 
	C1091.715820,1529.467529 1095.428223,1527.266968 1099.310669,1525.420532 
	C1112.367554,1519.211304 1126.223267,1514.307617 1138.406494,1506.712158 
	C1164.667236,1490.339600 1190.084229,1472.613037 1215.832275,1455.419189 
	C1222.049316,1451.267700 1228.571411,1447.470215 1234.311401,1442.732422 
	C1242.374146,1436.077393 1249.910522,1428.773804 1257.539917,1421.606934 
	C1269.992188,1409.909790 1284.028442,1399.657959 1292.168945,1383.972778 
	C1292.763062,1382.828003 1293.765625,1381.827271 1294.758057,1380.967041 
	C1313.352051,1364.852783 1329.340088,1346.379272 1343.663208,1326.460938 
	C1351.919678,1314.979370 1359.492310,1303.004761 1367.793945,1291.557495 
	C1370.968018,1287.180542 1375.900635,1284.068970 1379.020752,1279.664429 
	C1388.540649,1266.224731 1397.697021,1252.520508 1406.724487,1238.742188 
	C1410.298462,1233.287354 1413.160278,1227.365967 1416.346313,1221.656982 
	C1415.931152,1221.312866 1415.516113,1220.968750 1415.101074,1220.624634 
	C1413.752686,1221.423462 1412.404297,1222.222168 1410.785889,1222.893555 
	C1409.973267,1222.515259 1409.430908,1222.264282 1408.786865,1221.731201 
	C1410.635376,1217.267578 1412.565063,1213.076538 1414.538696,1208.906494 
	C1430.369751,1175.459473 1444.264526,1141.274048 1455.281982,1105.895630 
	C1466.442871,1070.056763 1475.466064,1033.724121 1480.758057,996.589722 
	C1483.780029,975.384094 1485.055298,953.929565 1487.119629,932.587341 
	C1489.293823,910.110779 1487.701294,887.706970 1485.714600,865.321655 
	C1485.239624,859.971375 1484.242432,854.667419 1483.485352,849.342163 
	C1483.071655,849.350952 1482.658081,849.359802 1482.244385,849.368652 
	C1482.161499,851.089783 1482.037109,852.810120 1482.002075,854.532227 
	C1481.669800,870.838501 1481.959717,887.185181 1480.885132,903.441833 
	C1479.383789,926.158630 1477.657593,948.914856 1474.616211,971.463867 
	C1468.775391,1014.769165 1458.901489,1057.209473 1445.000366,1098.705200 
	C1434.496704,1130.059937 1421.676392,1160.358154 1405.397949,1189.148315 
	C1399.010620,1200.444824 1392.250366,1211.530762 1385.648071,1222.705444 
	C1378.199585,1235.312378 1371.303345,1248.289795 1363.171997,1260.440430 
	C1341.915161,1292.204224 1317.137573,1321.152588 1290.182861,1348.189453 
	C1275.264038,1363.153809 1259.679932,1377.454224 1244.430420,1392.090088 
	C1240.103638,1396.242798 1236.338623,1401.118286 1231.563721,1404.643188 
	C1209.082886,1421.238892 1186.345459,1437.487305 1163.671387,1453.820435 
	C1162.800049,1454.448242 1161.638794,1454.673340 1160.612549,1455.086060 
	C1167.651611,1448.857300 1175.160889,1443.675171 1182.515625,1438.282715 
	C1190.030640,1432.772583 1197.512939,1427.204224 1204.790649,1421.387573 
	C1211.934326,1415.677856 1218.882812,1409.715454 1225.769043,1403.694458 
	C1232.779053,1397.565308 1239.741089,1391.368896 1246.479736,1384.945312 
	C1253.110107,1378.624756 1259.608398,1372.144897 1265.842407,1365.435425 
	C1271.980835,1358.828613 1277.714844,1351.845947 1283.626465,1345.028320 
	C1283.203979,1344.648315 1282.781616,1344.268433 1282.359131,1343.888550 
	C1281.461548,1344.540283 1280.480225,1345.103149 1279.678711,1345.856934 
	C1262.345825,1362.156494 1245.455933,1378.959229 1227.586060,1394.645874 
	C1212.607544,1407.794189 1196.640137,1419.839844 1180.842773,1432.026367 
	C1153.367065,1453.222290 1121.123779,1466.665039 1092.451172,1486.133789 
	C1076.447266,1497.000244 1057.124878,1503.014160 1039.200073,1510.995117 
	C1034.135498,1513.250122 1028.726074,1514.730835 1023.474792,1516.566650 
	C1024.326904,1515.001709 1025.521973,1514.462891 1026.718750,1513.928345 
	C1040.547485,1507.748901 1054.510132,1501.847168 1068.144531,1495.265137 
	C1074.211914,1492.336060 1079.617676,1488.036865 1085.400146,1484.285767 
	C1085.295776,1484.111816 1085.115356,1484.011719 1084.568115,1483.971313 
	C1078.411499,1486.553101 1072.585449,1488.996094 1066.837280,1491.610107 
	C1029.631836,1508.529663 991.450500,1522.845825 952.109314,1533.918213 
	C907.944458,1546.348267 863.116821,1555.093994 817.219360,1558.291504 
	C793.086304,1559.972900 769.022888,1560.316406 744.913391,1558.860474 
	C737.906677,1558.437134 730.930847,1557.501587 723.940857,1556.801025 
	C724.453613,1556.203735 724.928833,1556.056519 725.408142,1556.041992 
	C759.173218,1555.025146 792.967468,1554.568726 826.692566,1552.796021 
	C845.584656,1551.803345 864.519592,1549.508301 883.142151,1546.166748 
	C898.293762,1543.448120 912.934143,1537.995972 927.931702,1534.282593 
	C982.790710,1520.698975 1035.661377,1501.653198 1086.158813,1476.302246 
	C1115.494385,1461.574951 1144.086304,1445.360474 1170.503784,1425.796997 
	C1190.275513,1411.155029 1209.180176,1395.340698 1228.415039,1379.978516 
	C1229.881836,1378.806885 1230.903320,1377.077881 1232.691650,1374.938232 
	C1209.112549,1392.461182 1186.630981,1409.566406 1163.727051,1426.085815 
	C1136.898315,1445.436035 1097.650024,1467.526611 1090.074829,1467.845093 
	C1093.422241,1465.841797 1096.271240,1464.201294 1099.056641,1462.459106 
	C1119.803467,1449.484741 1141.056152,1437.235474 1161.123779,1423.282715 
	C1179.523315,1410.489746 1196.755371,1395.994751 1214.238403,1381.922241 
	C1218.413574,1378.561523 1221.541016,1373.898926 1225.150269,1369.835083 
	C1224.796631,1369.528320 1224.442993,1369.221558 1224.089355,1368.914795 
	C1223.336060,1369.503662 1222.511353,1370.020996 1221.839844,1370.691772 
	C1204.672607,1387.842651 1185.364746,1402.397827 1165.025269,1415.391968 
	C1142.875000,1429.542847 1120.148071,1442.835815 1097.252441,1455.758545 
	C1082.770874,1463.932617 1067.848267,1471.526001 1052.523560,1477.948242 
	C1037.376953,1484.295776 1023.416260,1493.789551 1005.768127,1494.211426 
	C998.823547,1494.377563 990.554565,1496.592163 985.035950,1502.917480 
	C984.173279,1503.906250 982.353210,1504.166626 980.916992,1504.531982 
	C960.104187,1509.826660 939.436523,1515.837158 918.421570,1520.155029 
	C892.195068,1525.543823 865.740601,1529.925415 839.265015,1533.956177 
	C826.149902,1535.952759 812.778809,1536.819824 799.502380,1537.068481 
	C782.076294,1537.395020 764.427124,1538.147583 747.244751,1535.892090 
	C727.616577,1533.315308 708.181396,1529.666016 688.281738,1529.978149 
	C684.620605,1530.035522 680.916931,1530.140991 677.298035,1529.695435 
	C645.943115,1525.835571 615.209167,1518.824463 585.576233,1508.100342 
	C553.347290,1496.436890 521.740845,1483.057617 489.826019,1470.520630 
	C458.495758,1458.213379 429.003265,1442.668823 402.517822,1421.698242 
	C376.554138,1401.140747 350.281738,1380.964844 324.597290,1360.065308 
	C299.260956,1339.449219 276.088501,1316.523804 254.385788,1292.068237 
	C232.004898,1266.848389 211.714493,1240.135864 193.939651,1211.478027 
	C166.879150,1167.849609 144.822800,1121.842529 127.982414,1073.353394 
	C114.292984,1033.937012 103.441498,993.729553 97.776878,952.370911 
	C93.944206,924.387817 91.065620,896.213318 89.309082,868.027832 
	C88.121780,848.976318 88.989014,829.719666 90.102554,810.622681 
	C91.321129,789.724609 93.176582,768.809265 95.986015,748.068237 
	C104.971260,681.733643 124.327133,618.328430 152.324310,557.628967 
	C173.246048,512.269409 198.708069,469.533569 229.453812,430.050476 
	C239.659363,416.944763 249.784576,403.776398 260.007935,390.684601 
	C262.257782,387.803528 264.670013,385.030914 267.210480,382.404694 
	C268.153809,381.429474 269.635345,380.549408 270.946686,380.426086 
	C278.383942,379.726898 284.066467,373.051758 283.588287,365.668243 
	C283.511108,364.476929 284.630554,362.962646 285.592194,361.987549 
	C294.933533,352.515656 303.879181,342.578430 313.867584,333.836487 
	C331.003418,318.838989 348.304993,303.943420 366.431366,290.183258 
	C405.184418,260.764954 447.277008,236.797424 491.605896,216.823517 
	C535.467590,197.060104 580.839478,181.697128 627.911011,171.574509 
	C662.295105,164.180298 696.983459,159.086014 732.208008,157.863113 
	C741.025208,157.557007 749.933533,157.436127 757.935913,151.819870 
	C763.395203,147.988358 770.265442,147.176407 777.170410,148.554459 
	C780.671326,149.253143 784.312744,149.319885 787.899292,149.495895 
	C791.033691,149.649704 794.193604,149.378586 797.318481,149.612045 
	C802.621704,150.008179 807.897644,150.947906 813.201416,151.103806 
	C817.667725,151.235062 822.156006,150.556656 826.638489,150.305466 
	C827.011902,150.284546 827.414734,150.788727 827.993713,151.175888 
	C826.846558,151.859711 825.886902,152.431763 825.997314,152.365936 
	C859.999084,157.146103 894.652832,162.017944 929.306641,166.889771 
	C929.376953,166.481979 929.447266,166.074188 929.517578,165.666397 
	C925.550049,164.705231 921.582581,163.744049 918.251526,162.937057 
	C924.653625,157.103088 931.764893,160.422012 938.814209,162.217926 
	C942.523315,163.162872 946.208984,164.240143 949.832397,165.472031 
	C957.539124,168.092133 965.198242,170.852325 972.876892,173.555084 
	C972.783325,173.818069 972.689758,174.081055 972.596191,174.344040 
	C970.187500,174.110672 967.778809,173.877304 965.370117,173.643921 
	C965.367676,173.839508 965.365234,174.035080 965.362793,174.230652 
	C973.240051,176.968414 981.117249,179.706177 988.994446,182.443939 
	C988.887146,182.752533 988.779785,183.061142 988.672485,183.369736 
	C971.961609,178.191940 955.250732,173.014145 938.539795,167.836349 
	C938.380249,168.336792 938.220703,168.837250 938.061096,169.337692 
	C947.444702,172.531448 956.921814,175.476669 966.194580,178.965057 
	C995.333923,189.927261 1024.519897,200.783966 1053.439575,212.304626 
	C1069.198120,218.582321 1084.454590,226.120544 1100.187744,233.301849 
	C1102.269043,234.454147 1104.100098,235.394836 1105.931274,236.335541 
	C1106.093506,235.999069 1106.255615,235.662582 1106.417847,235.326111 
	C1104.390625,234.412262 1102.363281,233.498428 1100.135742,232.315582 
	C1089.012695,226.356415 1078.089722,220.666275 1067.166870,214.976135 
	C1077.618774,217.154388 1087.788940,219.763504 1096.733887,226.013184 
	C1101.327759,229.222839 1106.441650,232.764191 1111.729126,233.613846 
	C1117.453125,234.533676 1121.900269,237.087845 1126.478638,239.824188 
	C1182.209229,273.132507 1233.019043,312.579681 1277.631348,359.953674 
	C1298.326416,381.929901 1317.813721,404.827515 1335.235962,429.451935 
	C1350.919067,451.618195 1366.202271,474.039856 1377.352539,498.992340 
	C1379.705566,504.257660 1383.208740,509.027649 1386.381470,513.895874 
	C1387.251099,515.230530 1388.844116,516.093750 1390.105225,517.173401 
	C1390.473389,516.895752 1390.841675,516.618042 1391.209839,516.340393 
	C1390.242310,514.128906 1389.492065,511.787231 1388.261475,509.733307 
	C1385.781494,505.593842 1382.988892,501.642975 1380.422974,497.553009 
	C1378.535889,494.545135 1377.339355,491.418304 1380.078003,487.702972 
	C1380.841064,489.014954 1381.454102,489.973602 1381.975586,490.979645 
	C1399.636353,525.049194 1414.594482,560.293823 1426.924683,596.607666 
	C1434.149292,617.885376 1440.404541,639.491638 1447.177612,660.924194 
	C1447.803955,662.906250 1449.057007,666.312256 1449.961670,666.293518 
	C1453.253174,666.225098 1452.888306,668.389221 1453.260864,670.182312 
	C1456.374878,685.174133 1459.817749,700.109436 1462.462280,715.184448 
	C1467.814087,745.690308 1471.522583,776.400452 1471.973877,807.421814 
	C1472.124268,817.751465 1471.983154,828.085144 1472.013184,838.416870 
	C1472.017090,839.751160 1472.249390,841.084778 1472.375854,842.418701 
	C1472.788452,842.403564 1473.200928,842.388489 1473.613525,842.373413 
	C1474.403809,833.819885 1475.607056,825.281006 1475.909912,816.710327 
	C1476.964722,786.860291 1475.055298,757.132568 1470.743774,727.602539 
	C1464.549072,685.174927 1455.237305,643.367920 1441.189941,602.873230 
	C1430.890259,573.182434 1418.585815,544.178772 1406.815063,515.014038 
	C1404.622803,509.581818 1400.748169,504.823090 1397.603760,499.782318 
	C1395.096313,495.762482 1392.096191,491.988190 1390.069336,487.744476 
	C1386.922729,481.156342 1385.240601,473.765869 1381.509644,467.576294 
	C1353.666260,421.383972 1321.527466,378.328857 1284.410767,339.192352 
	C1268.277344,322.180847 1251.496094,305.576752 1233.521606,290.569031 
	C1209.409058,270.436096 1183.854614,252.029892 1158.788818,232.745850 
	C1158.482666,232.429474 1158.302612,232.254074 1157.923096,231.799606 
	C1154.793823,229.350266 1151.990479,226.974625 1148.905151,225.051666 
	C1123.600220,209.280609 1097.902588,194.137177 1070.470337,182.362976 
	C1046.934448,172.261063 1023.276062,162.284683 999.124023,153.815186 
	C961.528442,140.631424 922.776123,131.652924 883.415039,125.310669 
	C851.348389,120.143768 819.064453,117.121994 786.648560,116.152054 
	C756.713135,115.256332 726.713501,115.529228 696.909912,119.006912 
	C671.319092,121.993019 645.854736,126.058464 620.269043,129.095001 
	C603.345093,131.103546 588.931885,138.629196 574.996521,147.598495 
	C574.137878,148.151138 573.660400,149.296051 573.013184,150.399353 
	C573.020935,150.633316 573.037109,151.101913 572.721985,151.285721 
	C564.585144,153.719849 556.968262,156.877686 548.916504,158.109177 
	C548.680664,157.396973 548.444824,156.684769 548.208923,155.972565 
	C553.247192,153.863159 558.285522,151.753769 563.323792,149.644363 
	C563.229248,149.451050 563.134766,149.257721 563.040222,149.064407 
	C562.381409,149.064407 561.722595,149.064407 560.916260,148.799957 
	C560.497498,147.994049 560.226318,147.452576 559.775879,146.652100 
	C557.077576,146.547104 554.374634,146.160187 552.069763,146.943985 
	C538.373474,151.601715 524.713989,156.381866 511.158173,161.432312 
	C504.652679,163.856018 498.401703,166.962830 491.877869,169.848755 
	C490.783997,170.305344 489.847687,170.673447 488.544312,171.077103 
	C481.468658,173.769699 474.760071,176.426773 467.797363,178.851318 
	C467.197113,178.309525 466.851044,178.000244 466.747223,177.437225 
	C471.558380,174.820496 476.034027,172.252350 480.710541,170.125992 
	C532.646790,146.511047 586.729065,129.750763 642.851440,119.535355 
	C676.954407,113.327919 711.344055,109.491791 745.984924,109.172241 
	C770.588440,108.945290 795.255127,109.560631 819.803955,111.169044 
	C842.171753,112.634544 864.543030,115.148354 886.692871,118.608299 
	C931.183533,125.558014 974.586182,136.987244 1017.168945,151.774200 
	C1055.516968,165.090652 1092.071899,182.396194 1128.035889,200.878342 
	C1147.509888,210.886169 1166.159546,222.740417 1184.287109,235.075577 
	C1223.493774,261.754181 1258.312012,293.696991 1291.698120,327.254059 
	C1294.905884,330.478271 1299.084351,332.725037 1302.744873,335.513763 
	C1305.891846,337.911133 1308.942627,340.434692 1312.026855,343.269806 
	C1312.006226,344.127258 1311.994873,344.617340 1311.840576,345.386780 
	C1312.113281,350.321045 1316.992676,355.684814 1321.161865,356.762634 
	C1322.937256,357.221558 1324.416992,358.823151 1326.026855,360.142609 
	C1326.022461,360.379761 1326.015503,360.854126 1325.912354,361.127655 
	C1326.801758,363.030975 1327.538452,364.907013 1328.830078,366.248810 
	C1335.179077,372.844391 1342.443359,378.709259 1347.970825,385.916290 
	C1362.525513,404.893250 1377.305298,423.817902 1390.194946,443.918030 
	C1403.277222,464.318726 1414.772461,485.807770 1425.910156,507.363953 
	C1435.978638,526.850647 1444.625854,547.071594 1454.344971,566.924316 
	C1455.086670,566.846863 1455.383057,566.813904 1455.958984,566.939697 
	C1459.478394,574.855774 1463.380493,582.410034 1465.832031,590.408875 
	C1472.781250,613.082581 1479.075195,635.956604 1485.822144,658.693848 
	C1486.502197,660.985657 1488.508667,662.883789 1490.223999,664.971130 
	C1490.980103,664.985046 1491.411743,664.992554 1491.879150,665.433716 
	C1493.327759,674.469421 1494.456177,683.133423 1496.307983,691.639832 
	C1496.958008,694.625488 1499.384644,697.224487 1501.000000,700.000000 
	C1501.000000,1028.697632 1501.000000,1357.395142 1500.829834,1686.709473 
	C1500.435059,1687.546265 1500.215210,1687.770752 1500.000000,1688.000000 
	C1000.969116,1688.000000 501.938171,1688.000000 2.290476,1687.829834 
	C1.453657,1687.435181 1.229094,1687.215332 1.000000,1687.000000 
M1192.170776,734.733337 
	C1195.140869,716.244690 1195.879395,697.706848 1194.139648,679.021973 
	C1192.264893,658.886719 1187.216187,639.650208 1178.206055,621.597168 
	C1167.839111,600.825623 1153.612793,583.013184 1136.259644,567.486511 
	C1121.595337,554.365540 1105.375732,543.703735 1087.854736,535.107361 
	C1067.607544,525.173523 1046.296753,518.051025 1024.142334,513.540161 
	C994.371460,507.478607 964.291077,505.828827 934.215454,509.428192 
	C891.288391,514.565552 853.291016,531.463501 820.411560,559.852478 
	C795.466064,581.390991 776.761963,607.398560 764.071167,637.609558 
	C749.128174,673.182068 745.458679,710.356323 751.285400,748.336975 
	C755.637329,776.704407 766.163574,802.753357 782.549072,826.496643 
	C797.447266,848.084595 815.668091,866.504272 835.871765,882.894897 
	C845.743225,890.903259 856.672852,897.871399 867.881042,903.902771 
	C882.716492,911.886108 899.569763,913.692200 915.874390,917.034668 
	C931.182434,920.172852 946.510925,923.313171 961.630005,927.226685 
	C968.647705,929.043335 975.357361,932.356445 981.914795,935.584106 
	C998.115662,943.558411 1004.277893,957.512085 1004.444763,974.822571 
	C1004.631531,994.190491 995.061951,1007.810669 976.699707,1014.223389 
	C965.852356,1018.011658 954.735229,1017.855469 943.647339,1015.949890 
	C930.174622,1013.634338 921.263306,1006.176392 918.863403,992.169739 
	C918.358948,989.225403 918.087463,986.239868 917.749695,983.268677 
	C917.266296,979.017456 915.370728,976.877319 910.634033,976.911987 
	C901.303589,976.980408 901.300842,976.744812 899.639221,967.534119 
	C899.432434,966.387939 899.099304,965.241638 899.074341,964.089966 
	C898.997742,960.554871 897.245117,959.087097 893.745605,959.006470 
	C882.767151,958.753235 871.792786,958.326355 860.815796,958.003845 
	C849.339966,957.666626 837.855835,956.953796 826.387634,957.144836 
	C800.933472,957.568726 775.462830,958.008911 750.049927,959.385376 
	C740.607300,959.896912 739.892395,958.188049 739.966553,970.236755 
	C739.972717,971.234436 739.923767,972.240112 739.801331,973.229797 
	C737.795227,989.440613 738.969543,1005.489136 742.646423,1021.334900 
	C752.824036,1065.195679 779.068726,1098.536255 812.725708,1126.708496 
	C835.107178,1145.442627 860.306824,1159.615234 887.514160,1170.228882 
	C931.394165,1187.346558 976.623108,1195.191284 1023.496094,1187.916504 
	C1080.285522,1179.102539 1125.148438,1150.628052 1157.080933,1102.698242 
	C1184.182617,1062.019653 1193.520508,1016.624146 1189.731689,968.461975 
	C1186.944580,933.031006 1172.626099,901.599487 1152.869263,872.540466 
	C1138.105225,850.825012 1120.637573,831.516602 1100.337524,814.736328 
	C1074.558594,793.427185 1046.431396,776.272583 1014.813599,765.116943 
	C995.564697,758.325439 975.590881,754.761841 955.426697,751.994324 
	C940.644470,749.965576 936.020264,744.329163 936.004578,729.324463 
	C936.002502,727.324768 935.867310,725.309265 936.063721,723.327881 
	C937.233154,711.528503 941.590454,701.580261 951.878479,694.667480 
	C966.310669,684.970093 981.727112,684.307373 997.750366,689.192078 
	C1004.443420,691.232544 1009.934509,695.445190 1011.408508,702.554810 
	C1012.846436,709.490540 1013.588745,716.688904 1013.581421,723.770813 
	C1013.574890,730.102173 1013.335938,730.688232 1019.623718,732.374084 
	C1021.070984,732.762146 1022.523865,733.133606 1023.985168,733.464355 
	C1032.266602,735.338806 1032.486938,735.354187 1031.760132,744.067139 
	C1031.471680,747.523560 1032.664551,749.015808 1035.719849,749.700684 
	C1040.591675,750.792664 1045.413208,752.171997 1050.328979,752.994019 
	C1075.513062,757.204956 1100.819702,759.446960 1126.359375,757.030762 
	C1143.072388,755.449707 1159.823608,754.159790 1176.475586,752.081848 
	C1190.633301,750.315063 1190.581299,749.898743 1192.170776,734.733337 
M495.440491,975.021423 
	C493.923035,969.926147 491.633881,964.919800 491.034546,959.718689 
	C489.322815,944.864136 488.068542,929.945374 487.090881,915.022034 
	C486.524048,906.369385 486.717133,906.110596 478.335785,905.068909 
	C469.170990,903.929871 468.958069,903.927063 469.080292,894.718384 
	C469.145752,889.786133 467.395050,887.310547 462.403687,886.794800 
	C444.055145,884.898987 425.761292,881.810974 407.373596,881.119507 
	C382.625641,880.188843 357.804443,880.807373 333.026672,881.329712 
	C326.304962,881.471436 319.554047,883.382507 312.973541,885.087402 
	C311.066833,885.581482 308.888123,887.924561 308.277832,889.872314 
	C307.254700,893.137634 307.141113,896.761353 307.077393,900.242249 
	C306.510040,931.231750 307.174133,962.148315 311.950958,992.874695 
	C318.486664,1034.915039 331.010681,1074.799561 352.782898,1111.637451 
	C370.877594,1142.253418 395.909424,1164.806519 428.880096,1178.039673 
	C473.041504,1195.764404 518.856018,1195.998413 565.109131,1189.417969 
	C588.809082,1186.046143 610.363647,1176.495361 631.883972,1166.430176 
	C654.065247,1156.055786 673.642883,1142.635620 687.998535,1122.759766 
	C710.547729,1091.539917 722.856201,1056.136108 726.755066,1018.063843 
	C729.955078,986.816345 732.215393,955.440857 733.778442,924.066589 
	C735.268677,894.153381 735.606384,864.171265 735.901367,834.214050 
	C736.101379,813.909302 735.382874,793.594666 735.016663,773.285461 
	C734.731628,757.474487 734.416870,741.663574 734.007080,725.855469 
	C733.399109,702.400146 732.593445,678.949646 732.062744,655.492737 
	C731.576904,634.019531 731.230713,612.541626 731.034668,591.063904 
	C730.867432,572.732849 731.001892,554.399109 731.000977,536.066528 
	C731.000671,530.900085 730.833252,525.727356 731.037476,520.569153 
	C731.220215,515.953003 729.508972,513.586243 724.674377,514.000488 
	C723.682129,514.085449 722.675598,514.003479 721.675659,513.997498 
	C713.157898,513.946045 713.053467,513.841064 713.002380,505.275909 
	C712.947083,496.023132 712.946655,495.949493 703.884460,496.011658 
	C659.242126,496.317963 614.600159,496.673065 569.957886,496.995331 
	C560.305603,497.065033 560.196350,497.312897 559.965027,506.735168 
	C559.426025,528.691895 558.682373,550.643616 558.066223,572.598572 
	C557.352051,598.051270 556.498535,623.502380 556.084900,648.960327 
	C555.903992,660.095581 556.821228,671.244141 556.968506,682.390198 
	C557.381958,713.698547 557.652405,745.008667 557.983093,776.318115 
	C558.319031,808.127441 558.609619,839.937500 559.017273,871.745911 
	C559.260437,890.723755 559.689514,909.699158 560.038940,928.675598 
	C560.051208,929.341675 560.072266,930.010376 560.143188,930.672119 
	C562.111694,949.052002 557.315125,965.999207 548.818970,982.013672 
	C545.211304,988.813782 539.717163,993.885254 531.974243,995.973389 
	C516.103333,1000.253662 502.689545,992.760559 495.440491,975.021423 
M1238.001709,1369.227417 
	C1238.232544,1369.493164 1238.463257,1369.759033 1238.693970,1370.024902 
	C1238.807007,1369.912842 1238.919922,1369.800659 1239.032959,1369.688599 
	C1238.765747,1369.459229 1238.498657,1369.229858 1238.001709,1369.227417 
M1245.379883,1363.080322 
	C1245.379883,1363.080322 1245.565308,1363.031128 1245.565308,1363.031128 
	C1245.565308,1363.031128 1245.383911,1362.971313 1245.379883,1363.080322 
M1287.379272,1340.080566 
	C1287.379272,1340.080566 1287.565674,1340.031250 1287.565674,1340.031250 
	C1287.565674,1340.031250 1287.383423,1339.971069 1287.379272,1340.080566 
z"/>
<path opacity="0.000000" stroke="none"
	d="
M1.000000,792.000000 
	C1.000000,528.369263 1.000000,264.738586 1.000000,1.053936 
	C500.895874,1.053936 1000.791748,1.053936 1501.000000,1.053936 
	C1501.000000,232.364166 1501.000000,463.728455 1500.822754,695.203308 
	C1496.773682,677.599670 1493.125488,659.832092 1488.914429,642.198914 
	C1487.340698,635.609436 1483.438721,629.497681 1482.368896,622.881775 
	C1479.801270,607.006104 1473.849609,592.513062 1466.626709,578.375305 
	C1465.651123,576.465576 1464.643188,574.471741 1464.212646,572.399963 
	C1460.354248,553.831970 1453.792969,536.132263 1445.037720,519.473083 
	C1427.772583,486.621674 1410.551880,453.685944 1391.639404,421.776886 
	C1369.000854,383.581177 1341.239868,349.035309 1310.450439,317.010864 
	C1300.538208,306.701172 1290.577026,296.398010 1280.057739,286.722961 
	C1266.107666,273.892426 1251.934570,261.255493 1237.236328,249.298523 
	C1212.418579,229.109100 1186.414185,210.442703 1158.738159,194.377197 
	C1137.452515,182.021347 1115.395020,170.999451 1093.753174,159.251053 
	C1086.949707,155.557785 1080.360840,151.465652 1073.711792,147.492554 
	C1069.287598,144.848892 1065.200928,141.441071 1060.500000,139.492371 
	C1029.851440,126.787193 998.446350,116.269897 966.342773,107.863556 
	C935.708496,99.841965 904.691162,93.839157 873.286987,89.708557 
	C842.408142,85.647057 811.431213,82.732338 780.287781,83.129066 
	C754.518616,83.457336 728.688660,84.032974 703.024841,86.170387 
	C678.365295,88.224152 653.748047,91.633942 629.353088,95.843521 
	C575.475220,105.140625 523.612000,121.481812 473.262207,142.720978 
	C424.943817,163.103195 378.996948,187.815338 335.536530,217.209274 
	C292.653473,246.212708 252.845795,278.865204 216.613113,315.859161 
	C215.409927,317.087646 214.022705,318.135895 212.721268,319.268188 
	C212.430664,319.059143 212.140076,318.850128 211.849487,318.641113 
	C212.262497,317.114868 212.675522,315.588654 213.156708,313.983093 
	C213.030090,313.828979 212.835297,313.754181 212.341766,313.825989 
	C209.505066,316.366760 206.757156,318.576843 204.467392,321.188568 
	C196.689560,330.060089 189.045731,339.049805 181.400772,348.036957 
	C153.959808,380.295593 129.468567,414.692596 107.605240,450.932526 
	C89.958473,480.183197 74.829575,510.749969 61.415546,542.165344 
	C44.377048,582.069092 31.069529,623.196167 21.959827,665.601074 
	C18.427961,682.041748 16.484165,698.818970 13.622181,715.409302 
	C10.712253,732.277588 7.437963,749.083313 4.569381,765.958313 
	C3.101804,774.591614 2.172555,783.316528 1.000000,792.000000 
z"/>
<path fill="#1C4B82" opacity="1.000000" stroke="none"
	d="
M213.088531,314.062408 
	C212.675522,315.588654 212.262497,317.114868 211.849487,318.641113 
	C212.140076,318.850128 212.430664,319.059143 212.721268,319.268188 
	C214.022705,318.135895 215.409927,317.087646 216.613113,315.859161 
	C252.845795,278.865204 292.653473,246.212708 335.536530,217.209274 
	C378.996948,187.815338 424.943817,163.103195 473.262207,142.720978 
	C523.612000,121.481812 575.475220,105.140625 629.353088,95.843521 
	C653.748047,91.633942 678.365295,88.224152 703.024841,86.170387 
	C728.688660,84.032974 754.518616,83.457336 780.287781,83.129066 
	C811.431213,82.732338 842.408142,85.647057 873.286987,89.708557 
	C904.691162,93.839157 935.708496,99.841965 966.342773,107.863556 
	C998.446350,116.269897 1029.851440,126.787193 1060.500000,139.492371 
	C1065.200928,141.441071 1069.287598,144.848892 1073.711792,147.492554 
	C1080.360840,151.465652 1086.949707,155.557785 1093.753174,159.251053 
	C1115.395020,170.999451 1137.452515,182.021347 1158.738159,194.377197 
	C1186.414185,210.442703 1212.418579,229.109100 1237.236328,249.298523 
	C1251.934570,261.255493 1266.107666,273.892426 1280.057739,286.722961 
	C1290.577026,296.398010 1300.538208,306.701172 1310.450439,317.010864 
	C1341.239868,349.035309 1369.000854,383.581177 1391.639404,421.776886 
	C1410.551880,453.685944 1427.772583,486.621674 1445.037720,519.473083 
	C1453.792969,536.132263 1460.354248,553.831970 1464.212646,572.399963 
	C1464.643188,574.471741 1465.651123,576.465576 1466.626709,578.375305 
	C1473.849609,592.513062 1479.801270,607.006104 1482.368896,622.881775 
	C1483.438721,629.497681 1487.340698,635.609436 1488.914429,642.198914 
	C1493.125488,659.832092 1496.773682,677.599670 1500.822754,695.656921 
	C1501.000000,697.066711 1501.000000,698.133362 1501.000000,699.600037 
	C1499.384644,697.224487 1496.958008,694.625488 1496.307983,691.639832 
	C1494.456177,683.133423 1493.327759,674.469421 1491.840332,665.053833 
	C1491.387573,662.133850 1491.009033,660.027405 1490.630615,657.921021 
	C1490.386963,657.955994 1490.143311,657.990967 1489.899658,658.025940 
	C1489.899658,660.338867 1489.899658,662.651733 1489.899658,664.964661 
	C1488.508667,662.883789 1486.502197,660.985657 1485.822144,658.693848 
	C1479.075195,635.956604 1472.781250,613.082581 1465.832031,590.408875 
	C1463.380493,582.410034 1459.478394,574.855774 1456.004395,566.606934 
	C1454.102417,560.718262 1452.434692,555.321167 1450.766846,549.924133 
	C1450.429932,550.040527 1450.093018,550.156921 1449.756104,550.273315 
	C1451.137329,555.838440 1452.518677,561.403564 1453.899902,566.968750 
	C1444.625854,547.071594 1435.978638,526.850647 1425.910156,507.363953 
	C1414.772461,485.807770 1403.277222,464.318726 1390.194946,443.918030 
	C1377.305298,423.817902 1362.525513,404.893250 1347.970825,385.916290 
	C1342.443359,378.709259 1335.179077,372.844391 1328.830078,366.248810 
	C1327.538452,364.907013 1326.801758,363.030975 1325.977051,361.019592 
	C1326.213257,360.380371 1326.175415,360.136169 1326.031128,359.905457 
	C1324.416992,358.823151 1322.937256,357.221558 1321.161865,356.762634 
	C1316.992676,355.684814 1312.113281,350.321045 1312.008667,345.495483 
	C1312.723267,345.240753 1313.126953,345.156677 1313.530518,345.072632 
	C1313.032349,344.349243 1312.534180,343.625824 1312.036011,342.902405 
	C1308.942627,340.434692 1305.891846,337.911133 1302.744873,335.513763 
	C1299.084351,332.725037 1294.905884,330.478271 1291.698120,327.254059 
	C1258.312012,293.696991 1223.493774,261.754181 1184.287109,235.075577 
	C1166.159546,222.740417 1147.509888,210.886169 1128.035889,200.878342 
	C1092.071899,182.396194 1055.516968,165.090652 1017.168945,151.774200 
	C974.586182,136.987244 931.183533,125.558014 886.692871,118.608299 
	C864.543030,115.148354 842.171753,112.634544 819.803955,111.169044 
	C795.255127,109.560631 770.588440,108.945290 745.984924,109.172241 
	C711.344055,109.491791 676.954407,113.327919 642.851440,119.535355 
	C586.729065,129.750763 532.646790,146.511047 480.710541,170.125992 
	C476.034027,172.252350 471.558380,174.820496 466.595337,177.575500 
	C466.107697,178.496735 466.014191,179.025940 465.920715,179.555145 
	C466.630951,179.398026 467.341217,179.240921 468.051483,179.083817 
	C474.760071,176.426773 481.468658,173.769699 488.759399,171.286865 
	C492.087646,173.733963 494.570862,173.155258 498.015594,170.164841 
	C495.324158,169.982758 493.679840,169.871506 492.035492,169.760269 
	C498.401703,166.962830 504.652679,163.856018 511.158173,161.432312 
	C524.713989,156.381866 538.373474,151.601715 552.069763,146.943985 
	C554.374634,146.160187 557.077576,146.547104 559.473694,146.818863 
	C556.991089,148.512527 554.631470,149.780426 552.271790,151.048309 
	C552.424377,151.356598 552.576904,151.664871 552.729431,151.973160 
	C555.507507,151.003586 558.285645,150.034012 561.063782,149.064423 
	C561.722595,149.064407 562.381409,149.064407 563.040222,149.064407 
	C563.134766,149.257721 563.229248,149.451050 563.323792,149.644363 
	C558.285522,151.753769 553.247192,153.863159 548.208923,155.972565 
	C548.444824,156.684769 548.680664,157.396973 548.916504,158.109177 
	C556.968262,156.877686 564.585144,153.719849 573.111694,151.221527 
	C588.893799,147.480606 603.930969,143.800934 619.062195,140.559937 
	C629.286133,138.370071 639.642456,136.798126 650.387573,134.958145 
	C658.220520,134.006470 665.937561,134.828857 672.875000,131.468277 
	C672.787537,131.013458 672.700012,130.558640 672.612549,130.103821 
	C665.068298,131.735931 657.524109,133.368057 649.661438,134.998734 
	C648.272278,134.850143 647.201599,134.702988 645.446167,134.461731 
	C647.350403,132.975388 648.666748,131.947922 649.983093,130.920456 
	C649.872131,130.615311 649.761108,130.310181 649.650146,130.005035 
	C643.353577,130.753845 637.057068,131.502655 630.443848,132.289124 
	C631.788330,133.093567 632.775940,133.684525 634.931152,134.974091 
	C631.539490,135.884018 629.386841,136.509506 627.210632,137.037842 
	C609.144714,141.423828 591.074463,145.791885 573.005493,150.165375 
	C573.660400,149.296051 574.137878,148.151138 574.996521,147.598495 
	C588.931885,138.629196 603.345093,131.103546 620.269043,129.095001 
	C645.854736,126.058464 671.319092,121.993019 696.909912,119.006912 
	C726.713501,115.529228 756.713135,115.256332 786.648560,116.152054 
	C819.064453,117.121994 851.348389,120.143768 883.415039,125.310669 
	C922.776123,131.652924 961.528442,140.631424 999.124023,153.815186 
	C1023.276062,162.284683 1046.934448,172.261063 1070.470337,182.362976 
	C1097.902588,194.137177 1123.600220,209.280609 1148.905151,225.051666 
	C1151.990479,226.974625 1154.793823,229.350266 1158.029663,231.956879 
	C1158.496704,232.596527 1158.692505,232.758118 1158.919189,232.882385 
	C1183.854614,252.029892 1209.409058,270.436096 1233.521606,290.569031 
	C1251.496094,305.576752 1268.277344,322.180847 1284.410767,339.192352 
	C1321.527466,378.328857 1353.666260,421.383972 1381.509644,467.576294 
	C1385.240601,473.765869 1386.922729,481.156342 1390.069336,487.744476 
	C1392.096191,491.988190 1395.096313,495.762482 1397.603760,499.782318 
	C1400.748169,504.823090 1404.622803,509.581818 1406.815063,515.014038 
	C1418.585815,544.178772 1430.890259,573.182434 1441.189941,602.873230 
	C1455.237305,643.367920 1464.549072,685.174927 1470.743774,727.602539 
	C1475.055298,757.132568 1476.964722,786.860291 1475.909912,816.710327 
	C1475.607056,825.281006 1474.403809,833.819885 1473.613525,842.373413 
	C1473.200928,842.388489 1472.788452,842.403564 1472.375854,842.418701 
	C1472.249390,841.084778 1472.017090,839.751160 1472.013184,838.416870 
	C1471.983154,828.085144 1472.124268,817.751465 1471.973877,807.421814 
	C1471.522583,776.400452 1467.814087,745.690308 1462.462280,715.184448 
	C1459.817749,700.109436 1456.374878,685.174133 1453.260864,670.182312 
	C1452.888306,668.389221 1453.253174,666.225098 1449.961670,666.293518 
	C1449.057007,666.312256 1447.803955,662.906250 1447.177612,660.924194 
	C1440.404541,639.491638 1434.149292,617.885376 1426.924683,596.607666 
	C1414.594482,560.293823 1399.636353,525.049194 1381.975586,490.979645 
	C1381.454102,489.973602 1380.841064,489.014954 1380.078003,487.702972 
	C1377.339355,491.418304 1378.535889,494.545135 1380.422974,497.553009 
	C1382.988892,501.642975 1385.781494,505.593842 1388.261475,509.733307 
	C1389.492065,511.787231 1390.242310,514.128906 1391.209839,516.340393 
	C1390.841675,516.618042 1390.473389,516.895752 1390.105225,517.173401 
	C1388.844116,516.093750 1387.251099,515.230530 1386.381470,513.895874 
	C1383.208740,509.027649 1379.705566,504.257660 1377.352539,498.992340 
	C1366.202271,474.039856 1350.919067,451.618195 1335.235962,429.451935 
	C1317.813721,404.827515 1298.326416,381.929901 1277.631348,359.953674 
	C1233.019043,312.579681 1182.209229,273.132507 1126.478638,239.824188 
	C1121.900269,237.087845 1117.453125,234.533676 1111.729126,233.613846 
	C1106.441650,232.764191 1101.327759,229.222839 1096.733887,226.013184 
	C1087.788940,219.763504 1077.618774,217.154388 1067.166870,214.976135 
	C1078.089722,220.666275 1089.012695,226.356415 1100.036133,232.442032 
	C1100.136841,232.837494 1099.937500,233.090256 1099.937500,233.090256 
	C1084.454590,226.120544 1069.198120,218.582321 1053.439575,212.304626 
	C1024.519897,200.783966 995.333923,189.927261 966.194580,178.965057 
	C956.921814,175.476669 947.444702,172.531448 938.061096,169.337692 
	C938.220703,168.837250 938.380249,168.336792 938.539795,167.836349 
	C955.250732,173.014145 971.961609,178.191940 988.672485,183.369736 
	C988.779785,183.061142 988.887146,182.752533 988.994446,182.443939 
	C981.117249,179.706177 973.240051,176.968414 965.362793,174.230652 
	C965.365234,174.035080 965.367676,173.839508 965.370117,173.643921 
	C967.778809,173.877304 970.187500,174.110672 972.596191,174.344040 
	C972.689758,174.081055 972.783325,173.818069 972.876892,173.555084 
	C965.198242,170.852325 957.539124,168.092133 949.832397,165.472031 
	C946.208984,164.240143 942.523315,163.162872 938.814209,162.217926 
	C931.764893,160.422012 924.653625,157.103088 918.251526,162.937057 
	C921.582581,163.744049 925.550049,164.705231 929.517578,165.666397 
	C929.447266,166.074188 929.376953,166.481979 929.306641,166.889771 
	C894.652832,162.017944 859.999084,157.146103 825.997314,152.365936 
	C825.886902,152.431763 826.846558,151.859711 827.993713,151.175888 
	C827.414734,150.788727 827.011902,150.284546 826.638489,150.305466 
	C822.156006,150.556656 817.667725,151.235062 813.201416,151.103806 
	C807.897644,150.947906 802.621704,150.008179 797.318481,149.612045 
	C794.193604,149.378586 791.033691,149.649704 787.899292,149.495895 
	C784.312744,149.319885 780.671326,149.253143 777.170410,148.554459 
	C770.265442,147.176407 763.395203,147.988358 757.935913,151.819870 
	C749.933533,157.436127 741.025208,157.557007 732.208008,157.863113 
	C696.983459,159.086014 662.295105,164.180298 627.911011,171.574509 
	C580.839478,181.697128 535.467590,197.060104 491.605896,216.823517 
	C447.277008,236.797424 405.184418,260.764954 366.431366,290.183258 
	C348.304993,303.943420 331.003418,318.838989 313.867584,333.836487 
	C303.879181,342.578430 294.933533,352.515656 285.592194,361.987549 
	C284.630554,362.962646 283.511108,364.476929 283.588287,365.668243 
	C284.066467,373.051758 278.383942,379.726898 270.946686,380.426086 
	C269.635345,380.549408 268.153809,381.429474 267.210480,382.404694 
	C264.670013,385.030914 262.257782,387.803528 260.007935,390.684601 
	C249.784576,403.776398 239.659363,416.944763 229.453812,430.050476 
	C198.708069,469.533569 173.246048,512.269409 152.324310,557.628967 
	C124.327133,618.328430 104.971260,681.733643 95.986015,748.068237 
	C93.176582,768.809265 91.321129,789.724609 90.102554,810.622681 
	C88.989014,829.719666 88.121780,848.976318 89.309082,868.027832 
	C91.065620,896.213318 93.944206,924.387817 97.776878,952.370911 
	C103.441498,993.729553 114.292984,1033.937012 127.982414,1073.353394 
	C144.822800,1121.842529 166.879150,1167.849609 193.939651,1211.478027 
	C211.714493,1240.135864 232.004898,1266.848389 254.385788,1292.068237 
	C276.088501,1316.523804 299.260956,1339.449219 324.597290,1360.065308 
	C350.281738,1380.964844 376.554138,1401.140747 402.517822,1421.698242 
	C429.003265,1442.668823 458.495758,1458.213379 489.826019,1470.520630 
	C521.740845,1483.057617 553.347290,1496.436890 585.576233,1508.100342 
	C615.209167,1518.824463 645.943115,1525.835571 677.298035,1529.695435 
	C680.916931,1530.140991 684.620605,1530.035522 688.281738,1529.978149 
	C708.181396,1529.666016 727.616577,1533.315308 747.244751,1535.892090 
	C764.427124,1538.147583 782.076294,1537.395020 799.502380,1537.068481 
	C812.778809,1536.819824 826.149902,1535.952759 839.265015,1533.956177 
	C865.740601,1529.925415 892.195068,1525.543823 918.421570,1520.155029 
	C939.436523,1515.837158 960.104187,1509.826660 980.916992,1504.531982 
	C982.353210,1504.166626 984.173279,1503.906250 985.035950,1502.917480 
	C990.554565,1496.592163 998.823547,1494.377563 1005.768127,1494.211426 
	C1023.416260,1493.789551 1037.376953,1484.295776 1052.523560,1477.948242 
	C1067.848267,1471.526001 1082.770874,1463.932617 1097.252441,1455.758545 
	C1120.148071,1442.835815 1142.875000,1429.542847 1165.025269,1415.391968 
	C1185.364746,1402.397827 1204.672607,1387.842651 1221.839844,1370.691772 
	C1222.511353,1370.020996 1223.336060,1369.503662 1224.089355,1368.914795 
	C1224.442993,1369.221558 1224.796631,1369.528320 1225.150269,1369.835083 
	C1221.541016,1373.898926 1218.413574,1378.561523 1214.238403,1381.922241 
	C1196.755371,1395.994751 1179.523315,1410.489746 1161.123779,1423.282715 
	C1141.056152,1437.235474 1119.803467,1449.484741 1099.056641,1462.459106 
	C1096.271240,1464.201294 1093.422241,1465.841797 1090.074829,1467.845093 
	C1097.650024,1467.526611 1136.898315,1445.436035 1163.727051,1426.085815 
	C1186.630981,1409.566406 1209.112549,1392.461182 1232.691650,1374.938232 
	C1230.903320,1377.077881 1229.881836,1378.806885 1228.415039,1379.978516 
	C1209.180176,1395.340698 1190.275513,1411.155029 1170.503784,1425.796997 
	C1144.086304,1445.360474 1115.494385,1461.574951 1086.158813,1476.302246 
	C1035.661377,1501.653198 982.790710,1520.698975 927.931702,1534.282593 
	C912.934143,1537.995972 898.293762,1543.448120 883.142151,1546.166748 
	C864.519592,1549.508301 845.584656,1551.803345 826.692566,1552.796021 
	C792.967468,1554.568726 759.173218,1555.025146 725.408142,1556.041992 
	C724.928833,1556.056519 724.453613,1556.203735 723.940857,1556.801025 
	C730.930847,1557.501587 737.906677,1558.437134 744.913391,1558.860474 
	C769.022888,1560.316406 793.086304,1559.972900 817.219360,1558.291504 
	C863.116821,1555.093994 907.944458,1546.348267 952.109314,1533.918213 
	C991.450500,1522.845825 1029.631836,1508.529663 1066.837280,1491.610107 
	C1072.585449,1488.996094 1078.411499,1486.553101 1084.665283,1484.083496 
	C1085.129028,1484.135864 1085.323853,1484.359619 1085.323853,1484.359619 
	C1079.617676,1488.036865 1074.211914,1492.336060 1068.144531,1495.265137 
	C1054.510132,1501.847168 1040.547485,1507.748901 1026.718750,1513.928345 
	C1025.521973,1514.462891 1024.326904,1515.001709 1023.474792,1516.566650 
	C1028.726074,1514.730835 1034.135498,1513.250122 1039.200073,1510.995117 
	C1057.124878,1503.014160 1076.447266,1497.000244 1092.451172,1486.133789 
	C1121.123779,1466.665039 1153.367065,1453.222290 1180.842773,1432.026367 
	C1196.640137,1419.839844 1212.607544,1407.794189 1227.586060,1394.645874 
	C1245.455933,1378.959229 1262.345825,1362.156494 1279.678711,1345.856934 
	C1280.480225,1345.103149 1281.461548,1344.540283 1282.359131,1343.888550 
	C1282.781616,1344.268433 1283.203979,1344.648315 1283.626465,1345.028320 
	C1277.714844,1351.845947 1271.980835,1358.828613 1265.842407,1365.435425 
	C1259.608398,1372.144897 1253.110107,1378.624756 1246.479736,1384.945312 
	C1239.741089,1391.368896 1232.779053,1397.565308 1225.769043,1403.694458 
	C1218.882812,1409.715454 1211.934326,1415.677856 1204.790649,1421.387573 
	C1197.512939,1427.204224 1190.030640,1432.772583 1182.515625,1438.282715 
	C1175.160889,1443.675171 1167.651611,1448.857300 1160.612549,1455.086060 
	C1161.638794,1454.673340 1162.800049,1454.448242 1163.671387,1453.820435 
	C1186.345459,1437.487305 1209.082886,1421.238892 1231.563721,1404.643188 
	C1236.338623,1401.118286 1240.103638,1396.242798 1244.430420,1392.090088 
	C1259.679932,1377.454224 1275.264038,1363.153809 1290.182861,1348.189453 
	C1317.137573,1321.152588 1341.915161,1292.204224 1363.171997,1260.440430 
	C1371.303345,1248.289795 1378.199585,1235.312378 1385.648071,1222.705444 
	C1392.250366,1211.530762 1399.010620,1200.444824 1405.397949,1189.148315 
	C1421.676392,1160.358154 1434.496704,1130.059937 1445.000366,1098.705200 
	C1458.901489,1057.209473 1468.775391,1014.769165 1474.616211,971.463867 
	C1477.657593,948.914856 1479.383789,926.158630 1480.885132,903.441833 
	C1481.959717,887.185181 1481.669800,870.838501 1482.002075,854.532227 
	C1482.037109,852.810120 1482.161499,851.089783 1482.244385,849.368652 
	C1482.658081,849.359802 1483.071655,849.350952 1483.485352,849.342163 
	C1484.242432,854.667419 1485.239624,859.971375 1485.714600,865.321655 
	C1487.701294,887.706970 1489.293823,910.110779 1487.119629,932.587341 
	C1485.055298,953.929565 1483.780029,975.384094 1480.758057,996.589722 
	C1475.466064,1033.724121 1466.442871,1070.056763 1455.281982,1105.895630 
	C1444.264526,1141.274048 1430.369751,1175.459473 1414.538696,1208.906494 
	C1412.565063,1213.076538 1410.635376,1217.267578 1408.904785,1221.928467 
	C1409.768188,1222.612305 1410.412109,1222.816650 1411.055908,1223.020996 
	C1412.404297,1222.222168 1413.752686,1221.423462 1415.101074,1220.624634 
	C1415.516113,1220.968750 1415.931152,1221.312866 1416.346313,1221.656982 
	C1413.160278,1227.365967 1410.298462,1233.287354 1406.724487,1238.742188 
	C1397.697021,1252.520508 1388.540649,1266.224731 1379.020752,1279.664429 
	C1375.900635,1284.068970 1370.968018,1287.180542 1367.793945,1291.557495 
	C1359.492310,1303.004761 1351.919678,1314.979370 1343.663208,1326.460938 
	C1329.340088,1346.379272 1313.352051,1364.852783 1294.758057,1380.967041 
	C1293.765625,1381.827271 1292.763062,1382.828003 1292.168945,1383.972778 
	C1284.028442,1399.657959 1269.992188,1409.909790 1257.539917,1421.606934 
	C1249.910522,1428.773804 1242.374146,1436.077393 1234.311401,1442.732422 
	C1228.571411,1447.470215 1222.049316,1451.267700 1215.832275,1455.419189 
	C1190.084229,1472.613037 1164.667236,1490.339600 1138.406494,1506.712158 
	C1126.223267,1514.307617 1112.367554,1519.211304 1099.310669,1525.420532 
	C1095.428223,1527.266968 1091.715820,1529.467529 1087.869385,1531.393799 
	C1076.735107,1536.969604 1065.789185,1542.987183 1054.382690,1547.941650 
	C1008.843689,1567.722046 961.518799,1581.982788 912.817810,1591.335693 
	C889.156006,1595.879883 865.180298,1598.910522 841.263184,1601.974609 
	C809.172424,1606.085938 776.840271,1607.116455 744.575439,1605.774536 
	C717.363525,1604.642578 690.153442,1602.234009 663.087463,1599.127563 
	C625.817871,1594.850098 589.278687,1586.569702 553.265625,1576.052856 
	C521.893494,1566.891357 491.342712,1555.543579 461.440308,1542.318359 
	C420.342041,1524.141479 381.364380,1502.217773 344.186920,1477.064453 
	C317.556671,1459.047119 291.967072,1439.636597 268.319977,1417.801636 
	C254.504883,1405.045288 240.512802,1392.409546 227.574875,1378.793579 
	C213.268356,1363.737427 199.571716,1348.030029 186.520737,1331.870483 
	C169.180008,1310.399292 152.583420,1288.319824 135.977188,1266.268066 
	C131.697830,1260.585571 128.681320,1253.965332 124.899712,1247.890991 
	C120.865822,1241.411255 116.578644,1235.089844 112.467201,1228.657715 
	C109.604774,1224.179565 106.652733,1219.741333 104.087044,1215.094116 
	C95.479294,1199.503174 87.027756,1183.825806 78.511810,1168.184082 
	C78.193703,1167.599854 77.755234,1167.072388 77.495628,1166.465942 
	C70.691872,1150.572754 63.848591,1134.696045 57.160828,1118.753906 
	C55.815514,1115.546997 55.071018,1112.088013 53.917316,1108.158936 
	C53.505058,1107.249512 53.224983,1106.926270 52.944897,1106.603149 
	C52.597511,1107.057129 52.250137,1107.511230 51.902771,1107.965210 
	C50.986786,1106.634521 49.701500,1105.427368 49.208275,1103.955078 
	C33.045540,1055.707397 17.699095,1007.194458 10.472568,956.653381 
	C8.445108,942.473694 9.718518,927.849915 8.508258,913.511719 
	C8.017981,907.703369 7.783712,900.907776 1.372563,896.984924 
	C1.000000,895.285645 1.000000,893.571289 1.301427,891.217163 
	C1.401903,883.384949 1.200951,876.192444 1.000000,869.000000 
	C1.000000,859.979126 1.000000,850.958191 1.174366,841.115967 
	C6.083970,816.871033 7.374875,799.189941 4.983099,794.721008 
	C3.750804,796.354187 2.375402,798.177124 1.000000,800.000000 
	C1.000000,797.629456 1.000000,795.258850 1.000000,792.444153 
	C2.172555,783.316528 3.101804,774.591614 4.569381,765.958313 
	C7.437963,749.083313 10.712253,732.277588 13.622181,715.409302 
	C16.484165,698.818970 18.427961,682.041748 21.959827,665.601074 
	C31.069529,623.196167 44.377048,582.069092 61.415546,542.165344 
	C74.829575,510.749969 89.958473,480.183197 107.605240,450.932526 
	C129.468567,414.692596 153.959808,380.295593 181.400772,348.036957 
	C189.045731,339.049805 196.689560,330.060089 204.467392,321.188568 
	C206.757156,318.576843 209.505066,316.366760 212.453613,313.921936 
	C212.864212,313.871216 213.088516,314.062408 213.088531,314.062408 
M1156.355591,1457.925537 
	C1156.461182,1457.616211 1156.566772,1457.306763 1156.672363,1456.997437 
	C1156.348267,1457.207153 1156.024170,1457.416992 1155.455078,1457.743530 
	C1155.300537,1457.950317 1155.146118,1458.157104 1154.991699,1458.363770 
	C1155.344971,1458.267456 1155.698364,1458.171143 1156.355591,1457.925537 
M155.610962,466.270416 
	C155.363098,466.908478 155.115250,467.546570 154.867386,468.184631 
	C155.082916,468.263580 155.298447,468.342529 155.513977,468.421478 
	C155.776443,467.712646 156.038910,467.003784 156.544128,466.089600 
	C156.654327,465.823853 156.764526,465.558136 156.874710,465.292389 
	C156.561569,465.504791 156.248444,465.717224 155.610962,466.270416 
M1018.097046,189.209320 
	C1018.217651,189.239914 1018.338196,189.270508 1018.458801,189.301102 
	C1018.403198,189.092300 1018.347656,188.883484 1018.052673,188.029465 
	C1012.858948,182.088364 1005.387329,182.304352 998.965515,179.682678 
	C998.752747,180.235733 998.539917,180.788788 998.327148,181.341858 
	C1004.867249,183.919678 1011.407349,186.497513 1018.097046,189.209320 
M423.744690,200.882126 
	C434.833130,195.730438 445.727600,190.224960 456.543457,184.575989 
	C456.162201,183.867859 455.780975,183.159729 455.399719,182.451584 
	C444.140198,187.826675 432.904297,193.246826 422.074402,200.865707 
	C420.257324,201.687515 418.440216,202.509323 416.623138,203.331131 
	C416.805511,203.671432 416.987885,204.011719 417.170288,204.352005 
	C419.131073,203.259506 421.091858,202.166992 423.744690,200.882126 
M316.424774,280.939819 
	C297.565155,296.991608 279.259338,313.632019 262.166870,331.605530 
	C265.833618,329.609039 268.975464,327.012146 272.102905,324.398010 
	C290.479767,309.037476 308.553345,293.295959 327.289368,278.386963 
	C368.215240,245.820587 412.222748,217.957291 459.439972,195.468903 
	C482.409027,184.529327 506.188538,175.292206 529.587219,165.251862 
	C531.154724,164.579254 532.604004,163.631027 534.108215,162.810989 
	C533.894531,162.359116 533.680847,161.907257 533.467102,161.455399 
	C531.932007,161.823349 530.321228,162.003494 528.873108,162.587204 
	C504.335663,172.477921 479.672394,182.077194 455.352600,192.478912 
	C441.166931,198.546219 427.479156,205.798523 413.688446,212.757614 
	C408.388092,215.432266 403.261963,218.533585 398.340546,221.860718 
	C388.412628,228.572495 378.827179,235.798615 368.797150,242.348038 
	C364.422119,245.204865 358.681183,246.127228 354.632111,249.296951 
	C341.801697,259.340912 329.476532,270.030365 316.424774,280.939819 
M883.836731,1565.303345 
	C939.787842,1557.804443 992.821350,1540.663818 1043.886597,1516.994873 
	C983.630249,1541.542114 921.420898,1558.834106 856.947998,1568.300049 
	C865.621765,1567.367920 874.295532,1566.435791 883.836731,1565.303345 
M1340.583740,430.910767 
	C1350.957031,447.472961 1361.330200,464.035187 1371.787109,480.730896 
	C1374.964233,478.941467 1374.555664,476.593414 1373.098022,474.317932 
	C1368.391357,466.970520 1363.663574,459.632416 1358.750732,452.422455 
	C1353.696289,445.004730 1348.473389,437.699280 1343.212769,430.425354 
	C1339.602783,425.433990 1335.802490,420.580322 1332.087280,415.665131 
	C1331.647461,415.991821 1331.207764,416.318512 1330.767944,416.645172 
	C1333.906982,421.199341 1337.046143,425.753510 1340.583740,430.910767 
M197.498016,406.999908 
	C201.411530,401.557678 205.325027,396.115448 209.238541,390.673218 
	C208.819565,390.386932 208.400589,390.100647 207.981598,389.814362 
	C189.700668,412.249847 173.061798,435.816406 158.551331,460.849060 
	C159.061264,461.200562 159.571182,461.552094 160.081116,461.903595 
	C172.401962,443.787994 184.722824,425.672394 197.498016,406.999908 
M797.692566,142.951614 
	C794.297668,142.736618 790.902832,142.521622 787.507935,142.306625 
	C787.473328,143.146851 787.438660,143.987061 787.403992,144.827286 
	C798.104126,147.427490 809.044312,145.293198 819.893250,145.091064 
	C812.796570,144.387650 805.699951,143.684235 797.692566,142.951614 
M758.750916,142.005005 
	C752.088257,142.005005 745.425659,142.005005 738.763000,142.005005 
	C738.772827,142.455688 738.782593,142.906372 738.792419,143.357056 
	C746.510925,143.357056 754.229492,143.357056 761.948059,143.357056 
	C761.946533,142.948456 761.945068,142.539871 761.943542,142.131271 
	C761.127075,142.090607 760.310547,142.049927 758.750916,142.005005 
M707.700745,129.449326 
	C710.535706,128.531113 713.370728,127.612915 716.205688,126.694710 
	C716.059387,126.152237 715.913025,125.609756 715.766724,125.067284 
	C709.037415,126.669739 702.308044,128.272202 695.578735,129.874664 
	C695.646362,130.275589 695.713928,130.676498 695.781555,131.077423 
	C699.487183,130.609360 703.192871,130.141296 707.700745,129.449326 
M887.082153,150.614548 
	C881.623169,149.287140 876.164246,147.959732 870.705261,146.632324 
	C870.551819,147.361389 870.398315,148.090469 870.244873,148.819550 
	C872.763123,149.545364 875.242188,150.613495 877.809875,150.906738 
	C880.745911,151.242065 883.760681,150.888397 887.082153,150.614548 
M747.684082,124.002274 
	C745.429810,124.002274 743.175537,124.002274 740.921265,124.002274 
	C740.925598,124.212967 740.929932,124.423668 740.934265,124.634361 
	C752.588013,124.634361 764.241760,124.634361 775.895508,124.634361 
	C775.894531,124.423676 775.893555,124.212982 775.892639,124.002296 
	C766.804565,124.002296 757.716553,124.002296 747.684082,124.002274 
M957.348938,155.165649 
	C956.352966,155.235748 955.357056,155.305847 953.802063,155.415283 
	C959.806763,159.956802 962.247192,159.800110 963.183472,154.750366 
	C961.310181,154.937332 959.612549,155.106781 957.348938,155.165649 
M1160.568848,246.054047 
	C1159.221436,245.307983 1157.874023,244.561920 1156.526611,243.815857 
	C1156.223999,244.272614 1155.921387,244.729370 1155.618774,245.186127 
	C1158.829346,247.557205 1162.039917,249.928268 1165.250488,252.299347 
	C1165.617920,251.877167 1165.985229,251.454987 1166.352661,251.032806 
	C1164.607422,249.506348 1162.862061,247.979904 1160.568848,246.054047 
M1281.011230,357.337738 
	C1281.655029,357.330475 1282.298706,357.323212 1282.942505,357.315948 
	C1282.186279,356.562256 1281.430176,355.808563 1280.674072,355.054871 
	C1280.672974,355.701935 1280.671997,356.349030 1281.011230,357.337738 
M1149.856689,1461.204224 
	C1150.216797,1461.231934 1150.586060,1461.311035 1150.930786,1461.250366 
	C1151.014893,1461.235352 1151.018311,1460.762207 1151.058838,1460.499634 
	C1150.680908,1460.645142 1150.302856,1460.790527 1149.856689,1461.204224 
M1145.969849,1464.209839 
	C1146.061768,1463.975708 1146.153809,1463.741577 1146.245850,1463.507446 
	C1145.990601,1463.544067 1145.735352,1463.580811 1145.480103,1463.617432 
	C1145.566040,1463.834106 1145.652100,1464.050781 1145.969849,1464.209839 
M216.095139,380.819427 
	C215.996048,380.872223 215.896957,380.925018 215.797852,380.977814 
	C215.870056,381.059570 215.942245,381.141357 216.014435,381.223114 
	C216.078247,381.130432 216.142059,381.037781 216.095139,380.819427 
M211.818344,385.904327 
	C211.952881,385.930817 212.087433,385.957336 212.221970,385.983856 
	C212.129181,385.920319 212.036392,385.856750 211.818344,385.904327 
M1291.819092,367.904297 
	C1291.953491,367.931396 1292.087769,367.958466 1292.222168,367.985565 
	C1292.129639,367.921661 1292.037109,367.857727 1291.819092,367.904297 
M1322.095093,403.819733 
	C1321.996094,403.872681 1321.897217,403.925598 1321.798218,403.978516 
	C1321.870483,404.060120 1321.942871,404.141754 1322.015137,404.223389 
	C1322.078735,404.130646 1322.142334,404.037903 1322.095093,403.819733 
M1326.197876,408.932129 
	C1326.084839,409.010223 1325.971924,409.088318 1325.858887,409.166382 
	C1325.969238,409.144897 1326.079468,409.123383 1326.197876,408.932129 
M1329.067627,413.197205 
	C1329.011108,413.194305 1328.954468,413.191437 1329.067627,413.197205 
M539.789551,161.041656 
	C539.903748,160.963287 540.017883,160.884918 540.132019,160.806503 
	C540.020752,160.827835 539.909546,160.849167 539.789551,161.041656 
M1299.387451,376.626617 
	C1299.387451,376.626617 1299.642334,376.440887 1299.642334,376.440887 
	C1299.642334,376.440887 1299.345093,376.500153 1299.387451,376.626617 
M1314.405396,394.406219 
	C1314.405396,394.406219 1314.548340,394.710083 1314.548340,394.710083 
	C1314.548340,394.710083 1314.530151,394.365417 1314.405396,394.406219 
M1310.515381,389.348511 
	C1310.515381,389.348511 1310.427124,389.682129 1310.427124,389.682129 
	C1310.427124,389.682129 1310.624634,389.423157 1310.515381,389.348511 
M1305.594849,383.593842 
	C1305.594849,383.593842 1305.451782,383.289978 1305.451782,383.289978 
	C1305.451782,383.289978 1305.470093,383.634644 1305.594849,383.593842 
M1318.612549,399.373444 
	C1318.612549,399.373444 1318.357422,399.559082 1318.357422,399.559082 
	C1318.357422,399.559082 1318.654907,399.499878 1318.612549,399.373444 
M1153.077759,241.616150 
	C1153.077759,241.616150 1153.031128,241.437775 1153.031128,241.437775 
	C1153.031128,241.437775 1152.973267,241.612106 1153.077759,241.616150 
M1168.545288,254.020813 
	C1168.545288,254.020813 1168.440796,253.861496 1168.440796,253.861496 
	C1168.440796,253.861496 1168.446167,254.054993 1168.545288,254.020813 
M209.450363,321.960663 
	C209.450363,321.960663 209.554382,322.119415 209.554382,322.119415 
	C209.554382,322.119415 209.549088,321.924500 209.450363,321.960663 
M1261.530762,335.920563 
	C1261.530762,335.920563 1261.463623,336.102509 1261.463623,336.102509 
	C1261.463623,336.102509 1261.610840,335.988342 1261.530762,335.920563 
M252.979095,340.545074 
	C252.979095,340.545074 253.138397,340.440613 253.138397,340.440613 
	C253.138397,340.440613 252.944962,340.446228 252.979095,340.545074 
M220.383804,376.077728 
	C220.383804,376.077728 220.562210,376.031006 220.562210,376.031006 
	C220.562210,376.031006 220.387848,375.973297 220.383804,376.077728 
M537.506836,161.549530 
	C537.506836,161.549530 537.473999,161.476944 537.506836,161.549530 
z"/>
<path fill="#4C6971" opacity="1.000000" stroke="none"
	d="
M1.000000,800.468628 
	C2.375402,798.177124 3.750804,796.354187 4.983099,794.721008 
	C7.374875,799.189941 6.083970,816.871033 1.174366,840.647339 
	C1.000000,827.645752 1.000000,814.291565 1.000000,800.468628 
z"/>
<path fill="#4C6971" opacity="1.000000" stroke="none"
	d="
M1.000000,869.468567 
	C1.200951,876.192444 1.401903,883.384949 1.301427,890.788696 
	C1.000000,883.979065 1.000000,876.958069 1.000000,869.468567 
z"/>
<path fill="#4C6971" opacity="1.000000" stroke="none"
	d="
M1.000000,1687.500000 
	C1.229094,1687.215332 1.453657,1687.435181 1.836844,1687.829834 
	C1.666667,1688.000000 1.333333,1688.000000 1.000000,1687.500000 
z"/>
<path fill="#4C6971" opacity="1.000000" stroke="none" 
	d="
M1500.500000,1688.000000 
	C1500.215210,1687.770752 1500.435059,1687.546265 1500.829834,1687.163086 
	C1501.000000,1687.333374 1501.000000,1687.666626 1500.500000,1688.000000 
z"/>
<path fill="#1C4B82" opacity="1.000000" stroke="none" 
	d="
M1192.124268,735.172241 
	C1190.581299,749.898743 1190.633301,750.315063 1176.475586,752.081848 
	C1159.823608,754.159790 1143.072388,755.449707 1126.359375,757.030762 
	C1100.819702,759.446960 1075.513062,757.204956 1050.328979,752.994019 
	C1045.413208,752.171997 1040.591675,750.792664 1035.719849,749.700684 
	C1032.664551,749.015808 1031.471680,747.523560 1031.760132,744.067139 
	C1032.486938,735.354187 1032.266602,735.338806 1023.985168,733.464355 
	C1022.523865,733.133606 1021.070984,732.762146 1019.623718,732.374084 
	C1013.335938,730.688232 1013.574890,730.102173 1013.581421,723.770813 
	C1013.588745,716.688904 1012.846436,709.490540 1011.408508,702.554810 
	C1009.934509,695.445190 1004.443420,691.232544 997.750366,689.192078 
	C981.727112,684.307373 966.310669,684.970093 951.878479,694.667480 
	C941.590454,701.580261 937.233154,711.528503 936.063721,723.327881 
	C935.867310,725.309265 936.002502,727.324768 936.004578,729.324463 
	C936.020264,744.329163 940.644470,749.965576 955.426697,751.994324 
	C975.590881,754.761841 995.564697,758.325439 1014.813599,765.116943 
	C1046.431396,776.272583 1074.558594,793.427185 1100.337524,814.736328 
	C1120.637573,831.516602 1138.105225,850.825012 1152.869263,872.540466 
	C1172.626099,901.599487 1186.944580,933.031006 1189.731689,968.461975 
	C1193.520508,1016.624146 1184.182617,1062.019653 1157.080933,1102.698242 
	C1125.148438,1150.628052 1080.285522,1179.102539 1023.496094,1187.916504 
	C976.623108,1195.191284 931.394165,1187.346558 887.514160,1170.228882 
	C860.306824,1159.615234 835.107178,1145.442627 812.725708,1126.708496 
	C779.068726,1098.536255 752.824036,1065.195679 742.646423,1021.334900 
	C738.969543,1005.489136 737.795227,989.440613 739.801331,973.229797 
	C739.923767,972.240112 739.972717,971.234436 739.966553,970.236755 
	C739.892395,958.188049 740.607300,959.896912 750.049927,959.385376 
	C775.462830,958.008911 800.933472,957.568726 826.387634,957.144836 
	C837.855835,956.953796 849.339966,957.666626 860.815796,958.003845 
	C871.792786,958.326355 882.767151,958.753235 893.745605,959.006470 
	C897.245117,959.087097 898.997742,960.554871 899.074341,964.089966 
	C899.099304,965.241638 899.432434,966.387939 899.639221,967.534119 
	C901.300842,976.744812 901.303589,976.980408 910.634033,976.911987 
	C915.370728,976.877319 917.266296,979.017456 917.749695,983.268677 
	C918.087463,986.239868 918.358948,989.225403 918.863403,992.169739 
	C921.263306,1006.176392 930.174622,1013.634338 943.647339,1015.949890 
	C954.735229,1017.855469 965.852356,1018.011658 976.699707,1014.223389 
	C995.061951,1007.810669 1004.631531,994.190491 1004.444763,974.822571 
	C1004.277893,957.512085 998.115662,943.558411 981.914795,935.584106 
	C975.357361,932.356445 968.647705,929.043335 961.630005,927.226685 
	C946.510925,923.313171 931.182434,920.172852 915.874390,917.034668 
	C899.569763,913.692200 882.716492,911.886108 867.881042,903.902771 
	C856.672852,897.871399 845.743225,890.903259 835.871765,882.894897 
	C815.668091,866.504272 797.447266,848.084595 782.549072,826.496643 
	C766.163574,802.753357 755.637329,776.704407 751.285400,748.336975 
	C745.458679,710.356323 749.128174,673.182068 764.071167,637.609558 
	C776.761963,607.398560 795.466064,581.390991 820.411560,559.852478 
	C853.291016,531.463501 891.288391,514.565552 934.215454,509.428192 
	C964.291077,505.828827 994.371460,507.478607 1024.142334,513.540161 
	C1046.296753,518.051025 1067.607544,525.173523 1087.854736,535.107361 
	C1105.375732,543.703735 1121.595337,554.365540 1136.259644,567.486511 
	C1153.612793,583.013184 1167.839111,600.825623 1178.206055,621.597168 
	C1187.216187,639.650208 1192.264893,658.886719 1194.139648,679.021973 
	C1195.879395,697.706848 1195.140869,716.244690 1192.124268,735.172241 
M995.529236,1016.061646 
	C978.641846,1027.731079 959.848206,1029.262085 940.479553,1025.476440 
	C924.926086,1022.436646 911.326477,1015.281555 901.139282,1002.645081 
	C894.797302,994.778442 891.478760,985.632202 889.981812,975.753723 
	C889.420837,972.052307 888.568115,969.039429 883.745667,968.975952 
	C871.599854,968.816345 859.458740,968.325684 847.314514,968.013367 
	C843.150513,967.906128 838.982849,967.896301 834.817078,967.907166 
	C810.697266,967.970154 786.568665,967.690247 762.461365,968.278076 
	C749.985596,968.582275 750.002563,969.282776 750.001099,981.854675 
	C750.000732,985.021179 749.972961,988.187988 750.006531,991.354126 
	C750.220276,1011.492432 754.706665,1030.726318 763.474976,1048.763306 
	C780.775208,1084.350830 808.596680,1110.008057 842.753296,1128.686890 
	C889.929443,1154.485596 940.546387,1165.687622 994.376526,1161.058716 
	C1020.606934,1158.803223 1045.250610,1151.330933 1068.458496,1138.867432 
	C1106.366943,1118.508911 1132.126953,1087.473999 1148.069214,1048.026489 
	C1158.956665,1021.086609 1162.454834,992.800476 1162.071655,963.853455 
	C1161.723999,937.575256 1155.713135,912.712402 1144.492798,889.101929 
	C1131.146973,861.019226 1112.250977,837.141235 1088.565552,817.038879 
	C1058.795410,791.772034 1025.143188,774.326782 986.618103,766.919250 
	C974.863403,764.659058 962.906250,763.406067 951.205688,760.920410 
	C935.921082,757.673340 922.606323,750.873230 914.244507,736.806335 
	C907.755798,725.890442 906.632507,714.037292 907.941101,701.648376 
	C909.388123,687.950012 915.103027,676.657288 926.466553,668.815918 
	C947.407471,654.365784 969.634033,655.123047 992.106567,664.619690 
	C1014.678955,674.158508 1027.698975,692.448792 1025.105225,717.030090 
	C1024.730591,720.580505 1026.150024,722.853577 1029.802734,723.405640 
	C1044.421753,725.615173 1058.978271,728.817627 1073.680298,729.773926 
	C1101.536987,731.585754 1129.186157,728.158325 1156.703003,723.896912 
	C1160.370361,723.328918 1162.534668,721.871582 1163.227661,717.732056 
	C1166.848633,696.104309 1168.168457,674.490662 1164.975464,652.659912 
	C1160.343628,620.992371 1147.957642,593.157837 1124.423096,571.072388 
	C1105.822144,553.616577 1083.720459,541.731567 1059.828369,533.114197 
	C1020.909607,519.077026 980.695312,515.704407 939.751709,518.976501 
	C916.097656,520.866882 893.520020,527.156982 872.192871,537.472351 
	C833.928040,555.979980 803.965637,583.572693 783.225464,620.798767 
	C763.778625,655.703247 755.536377,693.213440 759.983948,732.933838 
	C764.960327,777.377014 781.639526,816.738708 813.383606,849.133728 
	C828.158325,864.211365 845.073853,875.782776 865.484497,881.182922 
	C882.036499,885.562195 898.933411,888.696106 915.756104,891.978638 
	C936.090454,895.946350 956.186646,900.452637 974.496399,910.737854 
	C986.759521,917.626465 997.186584,926.505676 1004.717041,938.456909 
	C1013.025574,951.642761 1015.129944,966.204224 1014.089417,981.544128 
	C1013.130066,995.686890 1007.695618,1007.218567 995.529236,1016.061646 
z"/>
<path fill="#1C4B82" opacity="1.000000" stroke="none" 
	d="
M495.590424,975.373047 
	C502.689545,992.760559 516.103333,1000.253662 531.974243,995.973389 
	C539.717163,993.885254 545.211304,988.813782 548.818970,982.013672 
	C557.315125,965.999207 562.111694,949.052002 560.143188,930.672119 
	C560.072266,930.010376 560.051208,929.341675 560.038940,928.675598 
	C559.689514,909.699158 559.260437,890.723755 559.017273,871.745911 
	C558.609619,839.937500 558.319031,808.127441 557.983093,776.318115 
	C557.652405,745.008667 557.381958,713.698547 556.968506,682.390198 
	C556.821228,671.244141 555.903992,660.095581 556.084900,648.960327 
	C556.498535,623.502380 557.352051,598.051270 558.066223,572.598572 
	C558.682373,550.643616 559.426025,528.691895 559.965027,506.735168 
	C560.196350,497.312897 560.305603,497.065033 569.957886,496.995331 
	C614.600159,496.673065 659.242126,496.317963 703.884460,496.011658 
	C712.946655,495.949493 712.947083,496.023132 713.002380,505.275909 
	C713.053467,513.841064 713.157898,513.946045 721.675659,513.997498 
	C722.675598,514.003479 723.682129,514.085449 724.674377,514.000488 
	C729.508972,513.586243 731.220215,515.953003 731.037476,520.569153 
	C730.833252,525.727356 731.000671,530.900085 731.000977,536.066528 
	C731.001892,554.399109 730.867432,572.732849 731.034668,591.063904 
	C731.230713,612.541626 731.576904,634.019531 732.062744,655.492737 
	C732.593445,678.949646 733.399109,702.400146 734.007080,725.855469 
	C734.416870,741.663574 734.731628,757.474487 735.016663,773.285461 
	C735.382874,793.594666 736.101379,813.909302 735.901367,834.214050 
	C735.606384,864.171265 735.268677,894.153381 733.778442,924.066589 
	C732.215393,955.440857 729.955078,986.816345 726.755066,1018.063843 
	C722.856201,1056.136108 710.547729,1091.539917 687.998535,1122.759766 
	C673.642883,1142.635620 654.065247,1156.055786 631.883972,1166.430176 
	C610.363647,1176.495361 588.809082,1186.046143 565.109131,1189.417969 
	C518.856018,1195.998413 473.041504,1195.764404 428.880096,1178.039673 
	C395.909424,1164.806519 370.877594,1142.253418 352.782898,1111.637451 
	C331.010681,1074.799561 318.486664,1034.915039 311.950958,992.874695 
	C307.174133,962.148315 306.510040,931.231750 307.077393,900.242249 
	C307.141113,896.761353 307.254700,893.137634 308.277832,889.872314 
	C308.888123,887.924561 311.066833,885.581482 312.973541,885.087402 
	C319.554047,883.382507 326.304962,881.471436 333.026672,881.329712 
	C357.804443,880.807373 382.625641,880.188843 407.373596,881.119507 
	C425.761292,881.810974 444.055145,884.898987 462.403687,886.794800 
	C467.395050,887.310547 469.145752,889.786133 469.080292,894.718384 
	C468.958069,903.927063 469.170990,903.929871 478.335785,905.068909 
	C486.717133,906.110596 486.524048,906.369385 487.090881,915.022034 
	C488.068542,929.945374 489.322815,944.864136 491.034546,959.718689 
	C491.633881,964.919800 493.923035,969.926147 495.590424,975.373047 
M358.418060,1104.081177 
	C365.562592,1115.430786 374.052795,1125.594971 384.554474,1134.025391 
	C398.771912,1145.438721 414.388275,1154.444092 432.340332,1157.920044 
	C447.648224,1160.884155 463.272064,1162.266357 478.784088,1164.113525 
	C497.763306,1166.373779 516.662842,1164.667358 535.509583,1162.347168 
	C561.075439,1159.199951 584.893799,1150.389282 608.236145,1139.914429 
	C629.087830,1130.557251 647.664795,1118.215576 661.212769,1099.524292 
	C680.436401,1073.002441 692.392212,1043.145508 696.716309,1010.884644 
	C700.730835,980.932800 703.020508,950.695740 704.759827,920.508789 
	C706.395752,892.115662 706.541077,863.626648 706.907166,835.174316 
	C707.095459,820.540161 706.270569,805.895020 706.019165,791.252869 
	C705.633423,768.781494 705.479492,746.305420 704.981140,723.836853 
	C704.490540,701.716431 703.598938,679.605225 703.059509,657.485657 
	C702.580627,637.849365 702.174561,618.208313 702.041870,598.567261 
	C701.869629,573.074158 701.992798,547.579041 702.012024,522.084778 
	C702.013733,519.755737 702.006836,517.403564 702.307739,515.101929 
	C703.440308,506.438873 703.126770,505.949860 694.274597,506.017914 
	C655.139099,506.318787 616.003967,506.673401 576.868713,507.008789 
	C576.535522,507.011627 576.200684,507.041138 575.869324,507.018738 
	C571.558167,506.727448 570.078552,508.854492 569.962097,513.027527 
	C569.433105,531.981873 568.540710,550.926453 568.064941,569.881836 
	C567.547119,590.516724 567.019531,611.160339 567.070740,631.798767 
	C567.185913,678.266296 567.610901,724.733215 567.997437,771.199707 
	C568.253662,802.004150 568.619202,832.807922 569.016418,863.610962 
	C569.282593,884.251343 569.689453,904.889893 570.036743,925.529236 
	C570.047974,926.195251 570.055420,926.865540 570.134155,927.525513 
	C572.546387,947.747864 567.511780,966.521484 558.696106,984.440430 
	C554.408813,993.154846 548.156982,1000.355103 538.905396,1004.074646 
	C520.331848,1011.542114 489.357208,1005.976685 477.373322,981.005981 
	C465.459534,956.181396 461.105988,929.748901 459.167938,902.741821 
	C458.794647,897.539612 456.740631,895.583923 452.131287,895.158508 
	C433.590912,893.447327 415.080750,890.966553 396.501587,890.229858 
	C373.064026,889.300537 349.562469,889.424683 326.236115,892.980530 
	C318.445038,894.168213 316.994904,895.244080 317.068146,903.046204 
	C317.219696,919.188293 317.458344,935.333557 317.972351,951.467529 
	C318.855438,979.188232 323.168274,1006.431763 330.066528,1033.272827 
	C336.386475,1057.863647 344.149658,1081.890991 358.418060,1104.081177 
z"/>
<path fill="#4C6971" opacity="1.000000" stroke="none" 
	d="
M649.939514,134.949783 
	C639.642456,136.798126 629.286133,138.370071 619.062195,140.559937 
	C603.930969,143.800934 588.893799,147.480606 573.426819,151.037720 
	C573.037109,151.101913 573.020935,150.633316 573.013184,150.399338 
	C591.074463,145.791885 609.144714,141.423828 627.210632,137.037842 
	C629.386841,136.509506 631.539490,135.884018 634.931152,134.974091 
	C632.775940,133.684525 631.788330,133.093567 630.443848,132.289124 
	C637.057068,131.502655 643.353577,130.753845 649.650146,130.005035 
	C649.761108,130.310181 649.872131,130.615311 649.983093,130.920456 
	C648.666748,131.947922 647.350403,132.975388 645.446167,134.461731 
	C647.201599,134.702988 648.272278,134.850143 649.653320,134.985886 
	C649.963684,134.974472 649.939514,134.949783 649.939514,134.949783 
z"/>
<path fill="#4C6971" opacity="1.000000" stroke="none" 
	d="
M1454.344971,566.924316 
	C1452.518677,561.403564 1451.137329,555.838440 1449.756104,550.273315 
	C1450.093018,550.156921 1450.429932,550.040527 1450.766846,549.924133 
	C1452.434692,555.321167 1454.102417,560.718262 1455.724854,566.448120 
	C1455.383057,566.813904 1455.086670,566.846863 1454.344971,566.924316 
z"/>
<path fill="#4C6971" opacity="1.000000" stroke="none" 
	d="
M491.877869,169.848755 
	C493.679840,169.871506 495.324158,169.982758 498.015594,170.164841 
	C494.570862,173.155258 492.087646,173.733963 489.126465,171.251343 
	C489.847687,170.673447 490.783997,170.305344 491.877869,169.848755 
z"/>
<path fill="#4C6971" opacity="1.000000" stroke="none" 
	d="
M560.916260,148.799957 
	C558.285645,150.034012 555.507507,151.003586 552.729431,151.973160 
	C552.576904,151.664871 552.424377,151.356598 552.271790,151.048309 
	C554.631470,149.780426 556.991089,148.512527 559.652954,147.077881 
	C560.226318,147.452576 560.497498,147.994049 560.916260,148.799957 
z"/>
<path fill="#4C6971" opacity="1.000000" stroke="none" 
	d="
M1490.223999,664.971130 
	C1489.899658,662.651733 1489.899658,660.338867 1489.899658,658.025940 
	C1490.143311,657.990967 1490.386963,657.955994 1490.630615,657.921021 
	C1491.009033,660.027405 1491.387573,662.133850 1491.804810,664.620117 
	C1491.411743,664.992554 1490.980103,664.985046 1490.223999,664.971130 
z"/>
<path fill="#1C4B82" opacity="1.000000" stroke="none" 
	d="
M1100.236450,232.711044 
	C1102.363281,233.498428 1104.390625,234.412262 1106.417847,235.326111 
	C1106.255615,235.662582 1106.093506,235.999069 1105.931274,236.335541 
	C1104.100098,235.394836 1102.269043,234.454147 1100.187744,233.301849 
	C1099.937500,233.090256 1100.136841,232.837494 1100.236450,232.711044 
z"/>
<path fill="#1C4B82" opacity="1.000000" stroke="none" 
	d="
M1238.116577,1369.114014 
	C1238.498657,1369.229858 1238.765747,1369.459229 1239.032959,1369.688599 
	C1238.919922,1369.800659 1238.807007,1369.912842 1238.693970,1370.024902 
	C1238.463257,1369.759033 1238.232544,1369.493164 1238.116577,1369.114014 
z"/>
<path fill="#4C6971" opacity="1.000000" stroke="none" 
	d="
M1312.026855,343.269836 
	C1312.534180,343.625824 1313.032349,344.349243 1313.530518,345.072632 
	C1313.126953,345.156677 1312.723267,345.240753 1312.151611,345.216125 
	C1311.994873,344.617340 1312.006226,344.127258 1312.026855,343.269836 
z"/>
<path fill="#4C6971" opacity="1.000000" stroke="none" 
	d="
M52.226982,1107.971680 
	C52.250137,1107.511230 52.597511,1107.057129 52.944897,1106.603149 
	C53.224983,1106.926270 53.505058,1107.249512 53.815388,1107.786377 
	C53.414158,1107.992798 52.982677,1107.985474 52.226982,1107.971680 
z"/>
<path fill="#4C6971" opacity="1.000000" stroke="none" 
	d="
M467.797363,178.851318 
	C467.341217,179.240921 466.630951,179.398026 465.920715,179.555145 
	C466.014191,179.025940 466.107697,178.496735 466.353088,177.829239 
	C466.851044,178.000244 467.197113,178.309525 467.797363,178.851318 
z"/>
<path fill="#4C6971" opacity="1.000000" stroke="none" 
	d="
M1410.785889,1222.893555 
	C1410.412109,1222.816650 1409.768188,1222.612305 1409.006348,1222.210693 
	C1409.430908,1222.264282 1409.973267,1222.515259 1410.785889,1222.893555 
z"/>
<path fill="#1C4B82" opacity="1.000000" stroke="none" 
	d="
M1245.381836,1363.025879 
	C1245.383911,1362.971313 1245.565308,1363.031128 1245.565308,1363.031128 
	C1245.565308,1363.031128 1245.379883,1363.080322 1245.381836,1363.025879 
z"/>
<path fill="#1C4B82" opacity="1.000000" stroke="none" 
	d="
M1085.031982,1484.023682 
	C1085.115356,1484.011719 1085.295776,1484.111816 1085.400146,1484.285767 
	C1085.323853,1484.359619 1085.129028,1484.135864 1085.031982,1484.023682 
z"/>
<path fill="#1C4B82" opacity="1.000000" stroke="none" 
	d="
M1287.381348,1340.025879 
	C1287.383423,1339.971069 1287.565674,1340.031250 1287.565674,1340.031250 
	C1287.565674,1340.031250 1287.379272,1340.080566 1287.381348,1340.025879 
z"/>
<path fill="#4C6971" opacity="1.000000" stroke="none" 
	d="
M1158.788818,232.745850 
	C1158.692505,232.758118 1158.496704,232.596527 1158.224854,232.240356 
	C1158.302612,232.254074 1158.482666,232.429474 1158.788818,232.745850 
z"/>
<path fill="#4C6971" opacity="1.000000" stroke="none" 
	d="
M1326.026855,360.142578 
	C1326.175415,360.136169 1326.213257,360.380371 1326.080078,360.746094 
	C1326.015503,360.854126 1326.022461,360.379761 1326.026855,360.142578 
z"/>
<path fill="#1C4B82" opacity="1.000000" stroke="none" 
	d="
M212.752350,313.775269 
	C212.835297,313.754181 213.030090,313.828979 213.156708,313.983093 
	C213.088516,314.062408 212.864212,313.871216 212.752350,313.775269 
z"/>
<path fill="#4C6971" opacity="1.000000" stroke="none" 
	d="
M316.690399,280.705017 
	C329.476532,270.030365 341.801697,259.340912 354.632111,249.296951 
	C358.681183,246.127228 364.422119,245.204865 368.797150,242.348038 
	C378.827179,235.798615 388.412628,228.572495 398.340546,221.860718 
	C403.261963,218.533585 408.388092,215.432266 413.688446,212.757614 
	C427.479156,205.798523 441.166931,198.546219 455.352600,192.478912 
	C479.672394,182.077194 504.335663,172.477921 528.873108,162.587204 
	C530.321228,162.003494 531.932007,161.823349 533.467102,161.455399 
	C533.680847,161.907257 533.894531,162.359116 534.108215,162.810989 
	C532.604004,163.631027 531.154724,164.579254 529.587219,165.251862 
	C506.188538,175.292206 482.409027,184.529327 459.439972,195.468903 
	C412.222748,217.957291 368.215240,245.820587 327.289368,278.386963 
	C308.553345,293.295959 290.479767,309.037476 272.102905,324.398010 
	C268.975464,327.012146 265.833618,329.609039 262.166870,331.605530 
	C279.259338,313.632019 297.565155,296.991608 316.690399,280.705017 
z"/>
<path fill="#4C6971" opacity="1.000000" stroke="none" 
	d="
M883.403015,1565.403442 
	C874.295532,1566.435791 865.621765,1567.367920 856.947998,1568.300049 
	C921.420898,1558.834106 983.630249,1541.542114 1043.886597,1516.994873 
	C992.821350,1540.663818 939.787842,1557.804443 883.403015,1565.403442 
z"/>
<path fill="#4C6971" opacity="1.000000" stroke="none" 
	d="
M1340.384521,430.609222 
	C1337.046143,425.753510 1333.906982,421.199341 1330.767944,416.645172 
	C1331.207764,416.318512 1331.647461,415.991821 1332.087280,415.665131 
	C1335.802490,420.580322 1339.602783,425.433990 1343.212769,430.425354 
	C1348.473389,437.699280 1353.696289,445.004730 1358.750732,452.422455 
	C1363.663574,459.632416 1368.391357,466.970520 1373.098022,474.317932 
	C1374.555664,476.593414 1374.964233,478.941467 1371.787109,480.730896 
	C1361.330200,464.035187 1350.957031,447.472961 1340.384521,430.609222 
z"/>
<path fill="#4C6971" opacity="1.000000" stroke="none" 
	d="
M197.270844,407.278351 
	C184.722824,425.672394 172.401962,443.787994 160.081116,461.903595 
	C159.571182,461.552094 159.061264,461.200562 158.551331,460.849060 
	C173.061798,435.816406 189.700668,412.249847 207.981598,389.814362 
	C208.400589,390.100647 208.819565,390.386932 209.238541,390.673218 
	C205.325027,396.115448 201.411530,401.557678 197.270844,407.278351 
z"/>
<path fill="#4C6971" opacity="1.000000" stroke="none" 
	d="
M422.697083,200.632706 
	C432.904297,193.246826 444.140198,187.826675 455.399719,182.451584 
	C455.780975,183.159729 456.162201,183.867859 456.543457,184.575989 
	C445.727600,190.224960 434.833130,195.730438 423.309448,200.868103 
	C422.874237,200.854095 422.697083,200.632706 422.697083,200.632706 
z"/>
<path fill="#4C6971" opacity="1.000000" stroke="none" 
	d="
M798.147949,142.966217 
	C805.699951,143.684235 812.796570,144.387650 819.893250,145.091064 
	C809.044312,145.293198 798.104126,147.427490 787.403992,144.827286 
	C787.438660,143.987061 787.473328,143.146851 787.507935,142.306625 
	C790.902832,142.521622 794.297668,142.736618 798.147949,142.966217 
z"/>
<path fill="#4C6971" opacity="1.000000" stroke="none" 
	d="
M1017.947449,189.075348 
	C1011.407349,186.497513 1004.867249,183.919678 998.327148,181.341858 
	C998.539917,180.788788 998.752747,180.235733 998.965515,179.682678 
	C1005.387329,182.304352 1012.858948,182.088364 1018.086182,188.452179 
	C1018.119629,188.874893 1017.947449,189.075333 1017.947449,189.075348 
z"/>
<path fill="#4C6971" opacity="1.000000" stroke="none" 
	d="
M759.122498,142.007141 
	C760.310547,142.049927 761.127075,142.090607 761.943542,142.131271 
	C761.945068,142.539871 761.946533,142.948456 761.948059,143.357056 
	C754.229492,143.357056 746.510925,143.357056 738.792419,143.357056 
	C738.782593,142.906372 738.772827,142.455688 738.763000,142.005005 
	C745.425659,142.005005 752.088257,142.005005 759.122498,142.007141 
z"/>
<path fill="#4C6971" opacity="1.000000" stroke="none" 
	d="
M707.299622,129.561279 
	C703.192871,130.141296 699.487183,130.609360 695.781555,131.077423 
	C695.713928,130.676498 695.646362,130.275589 695.578735,129.874664 
	C702.308044,128.272202 709.037415,126.669739 715.766724,125.067284 
	C715.913025,125.609756 716.059387,126.152237 716.205688,126.694710 
	C713.370728,127.612915 710.535706,128.531113 707.299622,129.561279 
z"/>
<path fill="#4C6971" opacity="1.000000" stroke="none" 
	d="
M886.911682,150.724304 
	C883.760681,150.888397 880.745911,151.242065 877.809875,150.906738 
	C875.242188,150.613495 872.763123,149.545364 870.244873,148.819550 
	C870.398315,148.090469 870.551819,147.361389 870.705261,146.632324 
	C876.164246,147.959732 881.623169,149.287140 886.911682,150.724304 
z"/>
<path fill="#4C6971" opacity="1.000000" stroke="none" 
	d="
M748.156250,124.002289 
	C757.716553,124.002296 766.804565,124.002296 775.892639,124.002296 
	C775.893555,124.212982 775.894531,124.423676 775.895508,124.634361 
	C764.241760,124.634361 752.588013,124.634361 740.934265,124.634361 
	C740.929932,124.423668 740.925598,124.212967 740.921265,124.002274 
	C743.175537,124.002274 745.429810,124.002274 748.156250,124.002289 
z"/>
<path fill="#4C6971" opacity="1.000000" stroke="none" 
	d="
M649.971802,134.987320 
	C657.524109,133.368057 665.068298,131.735931 672.612549,130.103821 
	C672.700012,130.558640 672.787537,131.013458 672.875000,131.468277 
	C665.937561,134.828857 658.220520,134.006470 650.387573,134.958145 
	C649.939514,134.949783 649.963684,134.974472 649.971802,134.987320 
z"/>
<path fill="#4C6971" opacity="1.000000" stroke="none" 
	d="
M957.631958,155.220932 
	C959.612549,155.106781 961.310181,154.937332 963.183472,154.750366 
	C962.247192,159.800110 959.806763,159.956802 953.802063,155.415283 
	C955.357056,155.305847 956.352966,155.235748 957.631958,155.220932 
z"/>
<path fill="#4C6971" opacity="1.000000" stroke="none" 
	d="
M1160.842773,246.253754 
	C1162.862061,247.979904 1164.607422,249.506348 1166.352661,251.032806 
	C1165.985229,251.454987 1165.617920,251.877167 1165.250488,252.299347 
	C1162.039917,249.928268 1158.829346,247.557205 1155.618774,245.186127 
	C1155.921387,244.729370 1156.223999,244.272614 1156.526611,243.815857 
	C1157.874023,244.561920 1159.221436,245.307983 1160.842773,246.253754 
z"/>
<path fill="#4C6971" opacity="1.000000" stroke="none" 
	d="
M1280.841064,357.166931 
	C1280.671997,356.349030 1280.672974,355.701935 1280.674072,355.054871 
	C1281.430176,355.808563 1282.186279,356.562256 1282.942505,357.315979 
	C1282.298706,357.323212 1281.655029,357.330475 1280.841064,357.166931 
z"/>
<path fill="#4C6971" opacity="1.000000" stroke="none" 
	d="
M422.963440,200.964294 
	C421.091858,202.166992 419.131073,203.259506 417.170288,204.352005 
	C416.987885,204.011719 416.805511,203.671432 416.623138,203.331131 
	C418.440216,202.509323 420.257324,201.687515 422.385742,200.749207 
	C422.697083,200.632706 422.874237,200.854095 422.963440,200.964294 
z"/>
<path fill="#4C6971" opacity="1.000000" stroke="none" 
	d="
M1149.890869,1461.070068 
	C1150.302856,1460.790527 1150.680908,1460.645142 1151.058838,1460.499634 
	C1151.018311,1460.762207 1151.014893,1461.235352 1150.930786,1461.250366 
	C1150.586060,1461.311035 1150.216797,1461.231934 1149.890869,1461.070068 
z"/>
<path fill="#4C6971" opacity="1.000000" stroke="none" 
	d="
M156.301361,466.294922 
	C156.038910,467.003784 155.776443,467.712646 155.513977,468.421478 
	C155.298447,468.342529 155.082916,468.263580 154.867386,468.184631 
	C155.115250,467.546570 155.363098,466.908478 155.864655,466.191345 
	C156.118347,466.112274 156.301361,466.294922 156.301361,466.294922 
z"/>
<path fill="#4C6971" opacity="1.000000" stroke="none" 
	d="
M1145.854004,1464.238525 
	C1145.652100,1464.050781 1145.566040,1463.834106 1145.480103,1463.617432 
	C1145.735352,1463.580811 1145.990601,1463.544067 1146.245850,1463.507446 
	C1146.153809,1463.741577 1146.061768,1463.975708 1145.854004,1464.238525 
z"/>
<path fill="#4C6971" opacity="1.000000" stroke="none" 
	d="
M216.150497,380.882263 
	C216.142059,381.037781 216.078247,381.130432 216.014435,381.223114 
	C215.942245,381.141357 215.870056,381.059570 215.797852,380.977814 
	C215.896957,380.925018 215.996048,380.872223 216.150497,380.882263 
z"/>
<path fill="#4C6971" opacity="1.000000" stroke="none" 
	d="
M211.880981,385.848755 
	C212.036392,385.856750 212.129181,385.920319 212.221970,385.983856 
	C212.087433,385.957336 211.952881,385.930817 211.880981,385.848755 
z"/>
<path fill="#4C6971" opacity="1.000000" stroke="none" 
	d="
M1291.881836,367.849060 
	C1292.037109,367.857727 1292.129639,367.921661 1292.222168,367.985565 
	C1292.087769,367.958466 1291.953491,367.931396 1291.881836,367.849060 
z"/>
<path fill="#4C6971" opacity="1.000000" stroke="none" 
	d="
M1155.700195,1457.626831 
	C1156.024170,1457.416992 1156.348267,1457.207153 1156.672363,1456.997437 
	C1156.566772,1457.306763 1156.461182,1457.616211 1156.115479,1457.888428 
	C1155.875488,1457.851196 1155.700195,1457.626831 1155.700195,1457.626831 
z"/>
<path fill="#4C6971" opacity="1.000000" stroke="none" 
	d="
M1322.150513,403.882446 
	C1322.142334,404.037903 1322.078735,404.130646 1322.015137,404.223389 
	C1321.942871,404.141754 1321.870483,404.060120 1321.798218,403.978516 
	C1321.897217,403.925598 1321.996094,403.872681 1322.150513,403.882446 
z"/>
<path fill="#4C6971" opacity="1.000000" stroke="none" 
	d="
M1326.193848,409.016998 
	C1326.079468,409.123383 1325.969238,409.144897 1325.858887,409.166382 
	C1325.971924,409.088318 1326.084839,409.010223 1326.193848,409.016998 
z"/>
<path fill="#4C6971" opacity="1.000000" stroke="none" 
	d="
M1328.982788,413.192871 
	C1328.954468,413.191437 1329.011108,413.194305 1328.982788,413.192871 
z"/>
<path fill="#4C6971" opacity="1.000000" stroke="none" 
	d="
M156.026825,466.020935 
	C156.248444,465.717224 156.561569,465.504791 156.874710,465.292389 
	C156.764526,465.558136 156.654327,465.823853 156.422745,466.192261 
	C156.301361,466.294922 156.118347,466.112274 156.026825,466.020935 
z"/>
<path fill="#4C6971" opacity="1.000000" stroke="none" 
	d="
M539.793945,160.956085 
	C539.909546,160.849167 540.020752,160.827835 540.132019,160.806519 
	C540.017883,160.884918 539.903748,160.963287 539.793945,160.956085 
z"/>
<path fill="#4C6971" opacity="1.000000" stroke="none" 
	d="
M1155.963623,1457.962891 
	C1155.698364,1458.171143 1155.344971,1458.267456 1154.991699,1458.363770 
	C1155.146118,1458.157104 1155.300537,1457.950317 1155.577637,1457.685181 
	C1155.700195,1457.626831 1155.875488,1457.851196 1155.963623,1457.962891 
z"/>
<path fill="#4C6971" opacity="1.000000" stroke="none" 
	d="
M1299.366211,376.563385 
	C1299.345093,376.500153 1299.642334,376.440887 1299.642334,376.440887 
	C1299.642334,376.440887 1299.387451,376.626617 1299.366211,376.563385 
z"/>
<path fill="#4C6971" opacity="1.000000" stroke="none" 
	d="
M1314.467773,394.385803 
	C1314.530151,394.365417 1314.548340,394.710083 1314.548340,394.710083 
	C1314.548340,394.710083 1314.405396,394.406219 1314.467773,394.385803 
z"/>
<path fill="#4C6971" opacity="1.000000" stroke="none" 
	d="
M1310.570068,389.385834 
	C1310.624634,389.423157 1310.427124,389.682129 1310.427124,389.682129 
	C1310.427124,389.682129 1310.515381,389.348511 1310.570068,389.385834 
z"/>
<path fill="#4C6971" opacity="1.000000" stroke="none" 
	d="
M1305.532471,383.614258 
	C1305.470093,383.634644 1305.451782,383.289978 1305.451782,383.289978 
	C1305.451782,383.289978 1305.594849,383.593842 1305.532471,383.614258 
z"/>
<path fill="#4C6971" opacity="1.000000" stroke="none" 
	d="
M1318.633789,399.436646 
	C1318.654907,399.499878 1318.357422,399.559082 1318.357422,399.559082 
	C1318.357422,399.559082 1318.612549,399.373444 1318.633789,399.436646 
z"/>
<path fill="#4C6971" opacity="1.000000" stroke="none" 
	d="
M1018.205811,188.774780 
	C1018.347656,188.883484 1018.403198,189.092300 1018.458801,189.301102 
	C1018.338196,189.270508 1018.217651,189.239914 1018.022217,189.142334 
	C1017.947449,189.075333 1018.119629,188.874893 1018.205811,188.774780 
z"/>
<path fill="#4C6971" opacity="1.000000" stroke="none" 
	d="
M1153.025513,241.614136 
	C1152.973267,241.612106 1153.031128,241.437775 1153.031128,241.437775 
	C1153.031128,241.437775 1153.077759,241.616150 1153.025513,241.614136 
z"/>
<path fill="#4C6971" opacity="1.000000" stroke="none" 
	d="
M1168.495728,254.037903 
	C1168.446167,254.054993 1168.440796,253.861496 1168.440796,253.861496 
	C1168.440796,253.861496 1168.545288,254.020813 1168.495728,254.037903 
z"/>
<path fill="#4C6971" opacity="1.000000" stroke="none" 
	d="
M209.499725,321.942566 
	C209.549088,321.924500 209.554382,322.119415 209.554382,322.119415 
	C209.554382,322.119415 209.450363,321.960663 209.499725,321.942566 
z"/>
<path fill="#4C6971" opacity="1.000000" stroke="none" 
	d="
M1261.570801,335.954468 
	C1261.610840,335.988342 1261.463623,336.102509 1261.463623,336.102509 
	C1261.463623,336.102509 1261.530762,335.920563 1261.570801,335.954468 
z"/>
<path fill="#4C6971" opacity="1.000000" stroke="none" 
	d="
M252.962036,340.495667 
	C252.944962,340.446228 253.138397,340.440613 253.138397,340.440613 
	C253.138397,340.440613 252.979095,340.545074 252.962036,340.495667 
z"/>
<path fill="#4C6971" opacity="1.000000" stroke="none" 
	d="
M220.385834,376.025513 
	C220.387848,375.973297 220.562210,376.031006 220.562210,376.031006 
	C220.562210,376.031006 220.383804,376.077728 220.385834,376.025513 
z"/>
<path fill="#4C6971" opacity="1.000000" stroke="none" 
	d="
M537.490417,161.513245 
	C537.473999,161.476944 537.506836,161.549530 537.490417,161.513245 
z"/>
<path fill="#4C6971" opacity="1.000000" stroke="none" 
	d="
M995.811951,1015.840576 
	C1007.695618,1007.218567 1013.130066,995.686890 1014.089417,981.544128 
	C1015.129944,966.204224 1013.025574,951.642761 1004.717041,938.456909 
	C997.186584,926.505676 986.759521,917.626465 974.496399,910.737854 
	C956.186646,900.452637 936.090454,895.946350 915.756104,891.978638 
	C898.933411,888.696106 882.036499,885.562195 865.484497,881.182922 
	C845.073853,875.782776 828.158325,864.211365 813.383606,849.133728 
	C781.639526,816.738708 764.960327,777.377014 759.983948,732.933838 
	C755.536377,693.213440 763.778625,655.703247 783.225464,620.798767 
	C803.965637,583.572693 833.928040,555.979980 872.192871,537.472351 
	C893.520020,527.156982 916.097656,520.866882 939.751709,518.976501 
	C980.695312,515.704407 1020.909607,519.077026 1059.828369,533.114197 
	C1083.720459,541.731567 1105.822144,553.616577 1124.423096,571.072388 
	C1147.957642,593.157837 1160.343628,620.992371 1164.975464,652.659912 
	C1168.168457,674.490662 1166.848633,696.104309 1163.227661,717.732056 
	C1162.534668,721.871582 1160.370361,723.328918 1156.703003,723.896912 
	C1129.186157,728.158325 1101.536987,731.585754 1073.680298,729.773926 
	C1058.978271,728.817627 1044.421753,725.615173 1029.802734,723.405640 
	C1026.150024,722.853577 1024.730591,720.580505 1025.105225,717.030090 
	C1027.698975,692.448792 1014.678955,674.158508 992.106567,664.619690 
	C969.634033,655.123047 947.407471,654.365784 926.466553,668.815918 
	C915.103027,676.657288 909.388123,687.950012 907.941101,701.648376 
	C906.632507,714.037292 907.755798,725.890442 914.244507,736.806335 
	C922.606323,750.873230 935.921082,757.673340 951.205688,760.920410 
	C962.906250,763.406067 974.863403,764.659058 986.618103,766.919250 
	C1025.143188,774.326782 1058.795410,791.772034 1088.565552,817.038879 
	C1112.250977,837.141235 1131.146973,861.019226 1144.492798,889.101929 
	C1155.713135,912.712402 1161.723999,937.575256 1162.071655,963.853455 
	C1162.454834,992.800476 1158.956665,1021.086609 1148.069214,1048.026489 
	C1132.126953,1087.473999 1106.366943,1118.508911 1068.458496,1138.867432 
	C1045.250610,1151.330933 1020.606934,1158.803223 994.376526,1161.058716 
	C940.546387,1165.687622 889.929443,1154.485596 842.753296,1128.686890 
	C808.596680,1110.008057 780.775208,1084.350830 763.474976,1048.763306 
	C754.706665,1030.726318 750.220276,1011.492432 750.006531,991.354126 
	C749.972961,988.187988 750.000732,985.021179 750.001099,981.854675 
	C750.002563,969.282776 749.985596,968.582275 762.461365,968.278076 
	C786.568665,967.690247 810.697266,967.970154 834.817078,967.907166 
	C838.982849,967.896301 843.150513,967.906128 847.314514,968.013367 
	C859.458740,968.325684 871.599854,968.816345 883.745667,968.975952 
	C888.568115,969.039429 889.420837,972.052307 889.981812,975.753723 
	C891.478760,985.632202 894.797302,994.778442 901.139282,1002.645081 
	C911.326477,1015.281555 924.926086,1022.436646 940.479553,1025.476440 
	C959.848206,1029.262085 978.641846,1027.731079 995.811951,1015.840576 
z"/>
<path fill="#4C6971" opacity="1.000000" stroke="none" 
	d="
M358.207764,1103.786865 
	C344.149658,1081.890991 336.386475,1057.863647 330.066528,1033.272827 
	C323.168274,1006.431763 318.855438,979.188232 317.972351,951.467529 
	C317.458344,935.333557 317.219696,919.188293 317.068146,903.046204 
	C316.994904,895.244080 318.445038,894.168213 326.236115,892.980530 
	C349.562469,889.424683 373.064026,889.300537 396.501587,890.229858 
	C415.080750,890.966553 433.590912,893.447327 452.131287,895.158508 
	C456.740631,895.583923 458.794647,897.539612 459.167938,902.741821 
	C461.105988,929.748901 465.459534,956.181396 477.373322,981.005981 
	C489.357208,1005.976685 520.331848,1011.542114 538.905396,1004.074646 
	C548.156982,1000.355103 554.408813,993.154846 558.696106,984.440430 
	C567.511780,966.521484 572.546387,947.747864 570.134155,927.525513 
	C570.055420,926.865540 570.047974,926.195251 570.036743,925.529236 
	C569.689453,904.889893 569.282593,884.251343 569.016418,863.610962 
	C568.619202,832.807922 568.253662,802.004150 567.997437,771.199707 
	C567.610901,724.733215 567.185913,678.266296 567.070740,631.798767 
	C567.019531,611.160339 567.547119,590.516724 568.064941,569.881836 
	C568.540710,550.926453 569.433105,531.981873 569.962097,513.027527 
	C570.078552,508.854492 571.558167,506.727448 575.869324,507.018738 
	C576.200684,507.041138 576.535522,507.011627 576.868713,507.008789 
	C616.003967,506.673401 655.139099,506.318787 694.274597,506.017914 
	C703.126770,505.949860 703.440308,506.438873 702.307739,515.101929 
	C702.006836,517.403564 702.013733,519.755737 702.012024,522.084778 
	C701.992798,547.579041 701.869629,573.074158 702.041870,598.567261 
	C702.174561,618.208313 702.580627,637.849365 703.059509,657.485657 
	C703.598938,679.605225 704.490540,701.716431 704.981140,723.836853 
	C705.479492,746.305420 705.633423,768.781494 706.019165,791.252869 
	C706.270569,805.895020 707.095459,820.540161 706.907166,835.174316 
	C706.541077,863.626648 706.395752,892.115662 704.759827,920.508789 
	C703.020508,950.695740 700.730835,980.932800 696.716309,1010.884644 
	C692.392212,1043.145508 680.436401,1073.002441 661.212769,1099.524292 
	C647.664795,1118.215576 629.087830,1130.557251 608.236145,1139.914429 
	C584.893799,1150.389282 561.075439,1159.199951 535.509583,1162.347168 
	C516.662842,1164.667358 497.763306,1166.373779 478.784088,1164.113525 
	C463.272064,1162.266357 447.648224,1160.884155 432.340332,1157.920044 
	C414.388275,1154.444092 398.771912,1145.438721 384.554474,1134.025391 
	C374.052795,1125.594971 365.562592,1115.430786 358.207764,1103.786865 
z"/>
</svg>