<?xml version="1.0" encoding="UTF-8"?>
<!-- Generated by Pixelmator Pro 3.6.4 -->
<svg width="750" height="844" viewBox="0 0 750 844" xmlns="http://www.w3.org/2000/svg">
    <g id="Group">
        <g id="g1">
            <g id="tight-bounds">
                <clipPath id="clipPath1">
                    <path d="M 0.111111 0 L 749.888943 0 L 749.888943 844 L 0.111111 844 Z"/>
                </clipPath>
                <g id="g2" clip-path="url(#clipPath1)">
                    <g id="g3">
                        <g id="g4"/>
                        <g id="g5">
                            <clipPath id="clipPath2">
                                <path d="M 0.111111 0 L 749.888943 0 L 749.888943 844 L 0.111111 844 Z"/>
                            </clipPath>
                            <g id="g6" clip-path="url(#clipPath2)">
                                <g id="g7">
                                    <g id="g8">
                                        <path id="Path" fill="#1c4b82" stroke="none" d="M 514.599243 96.140991 C 516.255798 96.140991 529.512817 102.773438 536.968384 105.260864 C 534.482422 106.09082 528.68335 103.603394 522.05481 101.115845 C 523.711365 101.115845 527.026794 101.945862 530.339905 103.601013 C 528.68335 101.943481 516.255798 97.798462 514.599243 96.140991 M 391.155365 70.443542 C 393.641327 69.613586 422.636658 73.758545 435.893677 74.588501 C 436.723114 73.758545 434.237122 73.758545 430.921722 72.930969 C 435.064209 72.101074 443.349274 74.588501 449.148315 75.416077 C 431.751129 76.246033 412.695068 71.271118 396.127319 72.930969 C 390.328278 72.930969 394.470795 71.273438 391.155365 70.443542 M 367.1297 70.443542 C 382.043213 70.443542 393.641327 70.443542 372.099274 72.101074 C 369.613312 71.271118 366.300232 71.271118 367.1297 70.443542 M 601.589905 139.248291 C 603.246399 139.248291 609.874939 146.708313 613.188049 149.19574 C 612.358582 150.025696 605.732422 143.39325 602.419312 140.905823 C 603.248779 141.735779 602.419312 140.905823 601.589905 139.248291 M 585.019775 128.470886 C 578.391296 122.668396 575.907654 122.668396 575.078186 119.353271 C 580.877258 122.668396 585.019775 125.985779 585.019775 128.470886 M 478.145996 76.246033 C 478.975464 75.416077 480.631958 77.075928 484.774506 77.903564 C 479.802551 77.073608 480.631958 77.903564 482.288513 79.561035 C 476.489471 78.73114 474.832916 77.903564 476.489471 76.246033 C 479.802551 77.903564 480.631958 77.075928 478.145996 76.246033 M 242.856354 86.193542 C 242.856354 85.363586 246.169434 83.705994 248.655426 82.878418 C 246.169434 84.536011 246.998886 85.365906 251.141403 83.705994 C 251.141403 84.536011 246.169434 86.193542 242.856354 87.851013 C 244.512894 87.021118 246.169434 84.536011 242.856354 86.193542 M 494.716064 67.956116 C 492.230103 68.786011 483.11795 63.811096 474.003479 62.153564 C 469.031525 60.496033 493.886658 66.298584 494.716064 67.956116 M 5.910173 477.469574 C 10.882138 498.194427 7.566714 497.364502 5.910173 477.469574 M 6.739615 353.122589 C 7.569057 349.807526 8.396155 340.687653 9.223254 341.517578 C 6.737272 361.412506 2.59475 370.53241 1.767651 385.452454 C 4.253633 372.189911 0.93821 392.912476 0.111111 397.88739 C 0.940553 404.519836 0.940553 393.742401 2.597093 395.402283 C 4.253633 397.88974 -0.715987 432.707092 0.940553 413.63974 C -0.715987 431.047211 0.940553 450.114594 4.253633 455.087158 C 0.111111 481.614502 20.823723 541.299438 24.966244 553.734375 C 25.795687 554.56427 24.966244 549.589355 26.622784 552.906738 C 28.279325 563.684143 35.734928 571.144165 38.220909 582.749146 C 40.706894 586.064209 50.648476 604.301636 52.305016 608.449036 C 55.618099 615.081421 57.276981 614.251465 60.590061 620.881592 C 70.531647 639.948914 86.272293 658.186401 101.185844 675.593872 C 149.237228 731.963684 222.973175 778.386047 304.994171 794.968262 C 387.015198 812.375732 473.176361 799.943237 540.281494 767.610962 C 544.424011 765.123474 543.594543 764.295898 548.566528 762.636108 C 571.765137 755.176025 599.93335 731.136108 615.67395 722.016174 C 623.129578 713.726318 643.015076 699.633789 645.501099 691.346191 C 659.585205 679.741211 673.669312 660.673767 681.124939 648.238892 C 685.267456 641.606445 688.580505 641.606445 690.237 637.461548 C 689.407593 637.461548 703.491699 620.053955 707.636597 610.106445 C 705.980042 610.106445 703.49408 615.081421 703.49408 610.106445 C 733.318848 552.906738 749.888916 475.812042 740.774353 422.757263 C 742.430908 488.246979 725.86084 561.196655 694.379517 607.61908 C 680.295471 637.461548 651.297791 669.791382 624.788452 693.003723 C 620.645935 697.148682 616.503418 702.121277 611.531494 705.43866 C 595.790771 718.701172 578.391296 729.478577 560.166992 739.426025 C 517.085266 763.465942 469.033844 784.190918 412.695068 785.018494 C 509.627258 776.728516 596.61792 727.818726 644.671631 668.133789 C 608.218384 703.778809 592.477722 717.871216 551.881958 738.596069 C 548.568848 744.398621 521.227722 756.003662 503.001129 760.978577 C 513.772156 756.003662 536.141296 747.716003 543.596863 741.083557 C 483.11795 770.098389 416.010529 786.678284 353.045593 777.558472 C 377.071259 777.558472 411.038544 778.388367 443.349274 772.585876 C 448.321228 770.928345 450.804871 769.270813 456.606262 768.440918 C 519.571228 754.34845 580.050171 723.676086 623.131958 680.568787 C 598.276794 702.951172 560.99646 729.478577 536.968384 737.768494 C 559.337524 725.333618 599.93335 701.293701 613.188049 683.056274 C 586.676331 709.583618 536.968384 736.110962 505.487091 747.716003 C 500.515137 748.545959 508.800171 744.40094 500.515137 747.716003 C 490.573578 750.203491 494.716064 750.203491 492.230103 751.861023 C 454.1203 762.638367 410.209076 771.75592 373.758179 768.440918 C 367.1297 767.610962 364.646027 765.95343 358.844635 765.95343 C 352.216125 765.123474 346.417053 765.123474 338.961456 765.123474 C 309.963806 761.808411 278.482513 750.201111 255.28392 740.255981 C 242.856354 734.453491 230.428772 730.308533 218.001221 722.84613 C 208.059631 717.04364 199.774582 710.411255 191.491882 703.781128 C 160.010605 680.568787 133.498917 657.358826 108.641441 624.198975 C 63.903141 562.026611 40.706894 484.10199 44.01997 407.007263 C 47.33305 329.912537 77.987251 254.475403 126.868073 198.933167 C 124.382088 201.420593 130.181152 193.130676 135.153107 188.158081 C 135.153107 189.815552 134.323669 192.303101 140.125076 186.500549 C 145.097046 180.698059 138.468536 184.843018 140.952179 181.525635 C 192.318985 125.155823 281.795593 79.561035 373.758179 77.903564 C 377.071259 75.416077 382.8703 72.101074 389.49884 73.758545 C 389.49884 74.588501 385.356293 74.588501 385.356293 74.588501 C 394.468475 73.758545 402.75351 73.758545 406.896027 75.416077 C 407.725433 74.586182 403.582947 73.758545 406.896027 73.758545 C 412.695068 75.416077 414.351624 73.758545 417.667053 75.416077 C 415.181061 75.416077 412.695068 75.416077 411.038544 76.246033 C 431.751129 76.246033 445.005829 81.220886 465.718445 82.878418 C 454.947418 80.390991 452.463776 80.390991 444.178711 77.903564 C 453.290863 79.561035 457.433411 81.218567 461.575897 80.390991 C 459.919342 80.390991 460.74646 77.903564 462.405334 78.733459 C 478.975464 82.878418 480.631958 84.536011 498.029144 90.338501 C 499.685699 88.680969 490.573578 87.851013 488.087585 85.363586 C 504.657684 91.166077 519.568909 95.311035 529.512817 101.943481 C 526.199707 99.455994 516.258118 96.140991 508.800171 92.825928 C 507.970764 93.655884 511.286163 94.483459 512.113281 96.140991 C 503.828217 91.996033 492.230103 87.851013 480.631958 86.193542 C 490.573578 88.680969 497.202057 91.996033 501.344604 93.653503 C 492.232422 91.996033 480.631958 86.193542 467.374969 83.705994 C 488.914673 90.338501 529.510437 105.258545 554.365601 118.523376 C 545.253418 112.720886 534.482422 108.575928 528.68335 105.260864 C 533.655334 106.09082 539.454407 109.405823 539.454407 107.745972 C 545.253418 110.233459 552.709045 116.035889 556.851563 116.865845 C 549.395996 111.89093 534.482422 104.430969 529.512817 101.943481 C 591.648315 130.128418 647.157593 177.380676 682.781433 237.895447 C 686.094543 243.697937 691.066467 256.96283 695.208984 258.620361 C 694.379517 254.475403 691.066467 251.987915 687.753357 245.357788 C 689.409912 245.357788 689.409912 242.870361 687.753357 240.382874 C 684.440308 236.237915 687.753357 243.697937 684.437988 239.552979 C 669.524414 212.195679 651.297791 188.155701 623.131958 161.630676 C 638.872559 176.553101 627.274475 165.775635 623.959045 160.800781 C 645.498718 179.868164 670.353821 212.198059 681.124939 228.777954 C 679.468384 226.290466 678.638916 224.632935 679.468384 224.632935 C 699.351501 258.620361 711.779053 289.292725 724.206665 333.2276 C 725.036133 334.057556 724.206665 329.912537 725.86322 332.400024 C 734.148254 367.217377 736.634216 396.232239 735.80481 422.757263 C 742.433289 377.992462 727.519714 308.357727 701.008057 253.645447 C 697.695007 247.013062 697.695007 251.987915 694.379517 244.527893 C 694.379517 242.040405 691.893555 237.067871 690.237 233.750488 C 657.096863 179.038208 616.501099 140.075867 568.449707 109.405823 C 571.762817 111.063354 578.391296 116.038269 578.393616 115.208313 C 488.917023 56.351074 385.356293 48.061096 300.022217 66.298584 C 294.223175 68.786011 291.737183 71.273438 285.108673 74.588501 C 297.536255 70.443542 304.991852 69.613586 316.592316 67.12616 C 319.078278 64.638672 305.821289 67.956116 311.620331 65.468567 C 312.449799 66.298584 323.218445 63.811096 325.704437 64.640991 C 325.704437 65.470947 322.391357 66.298584 321.56192 67.12616 C 348.903046 61.323608 377.071259 60.493713 401.096954 62.153564 C 387.012848 62.983459 361.330627 60.496033 353.045593 64.640991 C 361.330627 63.811096 372.928741 62.983459 380.384338 63.811096 C 370.442749 63.811096 352.216125 64.640991 343.931091 65.468567 C 343.101654 64.638672 357.18576 62.98114 348.073608 62.983459 C 343.931091 63.813416 337.302582 63.813416 334.818939 66.298584 C 263.56897 72.930969 193.975525 110.233459 145.094696 154.170654 C 135.153107 162.460632 123.554993 171.578125 116.099388 180.69574 C 97.872757 201.420593 86.274635 222.145447 73.017624 240.382874 C 81.302673 222.975403 99.529305 196.448059 121.069016 174.065674 C 142.608719 151.683167 165.807312 132.615845 178.234894 122.668396 C 178.234894 125.983398 198.118057 110.233459 205.576004 105.260864 C 200.604034 109.405823 208.889084 103.603394 210.545609 104.430969 C 237.057281 88.680969 258.596985 82.878418 282.625031 73.758545 C 276.825958 75.416077 271.854004 77.073608 271.024567 76.246033 C 276.823639 74.588501 280.136719 72.930969 279.309631 72.101074 C 256.111023 78.733459 219.657745 94.483459 190.662445 111.89093 C 242.856354 76.246033 309.136719 54.691223 374.585266 53.863647 C 440.036194 52.206116 503.828217 68.786011 554.365601 95.313354 C 588.332886 110.235779 620.643555 137.590698 646.328186 164.118164 C 653.783813 170.750549 647.98468 162.460632 658.755798 174.065674 C 655.442688 172.408081 652.956665 170.750549 657.099243 175.723206 C 663.727661 183.183167 655.442688 169.920593 666.211304 183.183167 C 665.381958 183.183167 662.068848 179.038208 662.068848 180.69574 C 691.066467 206.393127 713.435608 252.815491 726.690308 283.490234 C 723.377197 271.055298 715.092163 253.647766 708.463684 241.21283 C 728.346863 277.687683 734.975342 299.240173 743.260376 331.570068 C 746.573425 334.057556 741.603821 319.965088 744.916931 326.597534 C 745.746338 331.572388 746.573425 347.322418 749.888916 349.807526 C 747.402893 334.057556 743.260376 314.990173 739.947266 311.67511 C 742.433289 313.332642 735.80481 292.607727 731.662292 287.635193 C 730.005737 274.372681 718.407593 251.160339 708.463684 233.750488 C 672.839844 164.115784 609.045471 106.918396 537.797852 75.416077 C 537.797852 73.758545 533.655334 72.101074 531.99646 70.443542 C 461.575897 40.601074 377.068909 32.311157 295.8797 51.37616 C 213.858688 71.271118 136.811996 118.523376 82.129776 186.500549 C 84.615761 178.210632 105.328362 162.460632 106.157799 155.828186 C 82.132118 181.525635 56.449883 215.515442 39.05035 251.987915 C 20.823723 288.462769 10.882138 325.767578 6.739615 353.122589"/>
                                    </g>
                                    <g id="g9">
                                        <clipPath id="clipPath3">
                                            <path d="M 115.389442 211 L 634.610573 211 L 634.610573 633 L 115.389442 633 Z"/>
                                        </clipPath>
                                        <g id="g10" clip-path="url(#clipPath3)">
                                            <g id="g11">
                                                <g id="g12">
                                                    <clipPath id="clipPath4">
                                                        <path d="M 115.389442 211 L 634.610573 211 L 634.610573 633 L 115.389442 633 Z"/>
                                                    </clipPath>
                                                    <g id="g13" clip-path="url(#clipPath4)">
                                                        <g id="g14">
                                                            <g id="g15">
                                                                <clipPath id="clipPath5">
                                                                    <path d="M 115.389442 211 L 634.610573 211 L 634.610573 633 L 115.389442 633 Z"/>
                                                                </clipPath>
                                                                <g id="g16" clip-path="url(#clipPath5)">
                                                                    <g id="g17">
                                                                        <g id="g18">
                                                                            <clipPath id="clipPath6">
                                                                                <path d="M 115.389442 211 L 634.610573 211 L 634.610573 633 L 115.389442 633 Z"/>
                                                                            </clipPath>
                                                                            <g id="g19" clip-path="url(#clipPath6)">
                                                                                <g id="g20">
                                                                                    <g id="textblocktransform">
                                                                                        <clipPath id="clipPath7">
                                                                                            <path d="M 115.389442 211 L 634.610573 211 L 634.610573 633 L 115.389442 633 Z"/>
                                                                                        </clipPath>
                                                                                        <g id="g21" clip-path="url(#clipPath7)">
                                                                                            <g id="textblock">
                                                                                                <g id="g22">
                                                                                                    <clipPath id="clipPath8">
                                                                                                        <path d="M 115.389442 211 L 634.610573 211 L 634.610573 633 L 115.389442 633 Z"/>
                                                                                                    </clipPath>
                                                                                                    <g id="g23" clip-path="url(#clipPath8)">
                                                                                                        <g id="g24">
                                                                                                            <g id="g25">
                                                                                                                <clipPath id="clipPath9">
                                                                                                                    <path d="M 115.389442 211 L 634.610573 211 L 634.610573 633 L 115.389442 633 Z"/>
                                                                                                                </clipPath>
                                                                                                                <g id="g26" clip-path="url(#clipPath9)">
                                                                                                                    <g id="g27">
                                                                                                                        <path id="text-0" fill="#1c4b82" stroke="none" d="M 355.746185 247.695679 L 355.746185 256.869568 L 364.914673 256.869568 L 364.914673 284.391296 C 364.914673 297.540588 365.220286 317.876099 365.831512 345.397827 L 365.831512 345.397827 C 366.748362 366.497823 367.206787 388.362315 367.206787 410.991302 L 367.206787 410.991302 C 367.206787 421.082611 367.053986 428.574646 366.748383 433.467407 L 366.748383 433.467407 L 366.289948 455.943481 C 365.678701 478.878276 364.303426 497.898865 362.164124 513.005249 C 360.024821 528.172729 354.982157 542.392293 347.036133 555.66394 C 339.090129 568.996704 326.865489 578.721029 310.362213 584.836914 L 310.362213 584.836914 L 310.820648 584.836914 C 296.762319 592.481852 278.883789 596.304321 257.185059 596.304321 L 257.185059 596.304321 C 219.899913 596.304321 193.21964 583.307943 177.144241 557.315186 C 161.129969 531.322428 153.122833 499.060842 153.122833 460.530426 L 153.122833 460.530426 L 153.581253 443.100006 C 158.165492 441.571014 163.452647 440.653615 169.442719 440.347809 C 175.371663 440.042023 181.239487 439.88913 187.046188 439.88913 L 187.046188 439.88913 C 205.99438 439.88913 221.580795 441.265218 233.805435 444.017395 L 233.805435 444.017395 L 233.805435 451.815216 L 242.973907 453.191284 L 242.973907 459.613037 C 242.973907 461.142029 243.279526 465.728984 243.890762 473.373901 C 244.501989 481.01884 246.274562 487.134776 249.208481 491.72171 C 252.081273 496.308685 256.115407 498.602173 261.310883 498.602173 L 261.310883 498.602173 C 267.117584 498.602173 271.487885 495.911153 274.421783 490.529114 C 277.294586 485.208252 279.189412 478.572459 280.106262 470.621735 L 280.106262 470.621735 C 278.883789 434.843475 278.272552 391.573181 278.272552 340.810852 L 278.272552 340.810852 C 277.966929 337.141296 277.814117 331.484049 277.814117 323.839111 L 277.814117 323.839111 C 277.814117 316.499959 278.119741 305.491272 278.730988 290.813049 L 278.730988 290.813049 C 279.342214 275.523173 279.647827 264.055786 279.647827 256.410889 L 279.647827 256.410889 L 279.647827 248.613037 L 355.746185 247.695679 Z M 284.232056 253.200012 L 284.232056 256.410889 C 283.315206 284.850016 282.856781 312.983337 282.856781 340.810852 L 282.856781 340.810852 C 282.856781 389.738403 283.468018 433.008698 284.690491 470.621735 L 284.690491 470.621735 C 283.773641 479.795644 281.4204 487.50174 277.630768 493.740021 C 273.779999 500.039419 268.340037 503.189117 261.310883 503.189117 L 261.310883 503.189117 C 249.697469 503.189117 241.690328 498.143473 237.289459 488.052185 C 232.827464 477.960856 230.138041 465.423167 229.221191 450.439117 L 229.221191 450.439117 L 229.221191 447.686951 C 214.857249 445.546366 200.798915 444.476074 187.046188 444.476074 L 187.046188 444.476074 C 176.044022 444.476074 166.417119 445.24057 158.165482 446.769562 L 158.165482 446.769562 C 157.859868 450.133331 157.707062 454.873189 157.707062 460.989136 L 157.707062 460.989136 C 157.707062 488.816671 161.985687 513.892029 170.542938 536.21521 C 179.100179 558.538371 193.616933 572.757935 214.093201 578.873901 L 214.093201 578.873901 C 226.317841 581.320272 237.625631 582.543457 248.016571 582.543457 L 248.016571 582.543457 C 267.575999 582.543457 284.843302 578.873901 299.818481 571.53479 L 299.818481 571.53479 C 315.404887 565.72465 326.957174 556.397827 334.475342 543.554321 C 341.932353 530.710897 346.669393 516.950033 348.686462 502.271729 C 350.642395 487.593486 351.925985 469.092763 352.537231 446.769562 L 352.537231 446.769562 C 352.537231 438.207245 352.690043 431.938405 352.995667 427.963043 L 352.995667 427.963043 C 353.30127 422.764496 353.392944 418.238698 353.270691 414.385651 C 353.087341 410.593781 352.995667 407.321757 352.995667 404.56958 L 352.995667 404.56958 C 352.995667 382.246399 352.537231 360.381897 351.620361 338.976074 L 351.620361 338.976074 C 351.009155 310.23116 350.703552 288.978271 350.703552 275.217407 L 350.703552 275.217407 C 350.703552 265.126058 350.856354 257.48114 351.161957 252.282654 L 351.161957 252.282654 L 284.232056 253.200012 Z M 590.459229 375.213043 C 577.012126 377.353628 564.481873 378.42392 552.868469 378.42392 L 552.868469 378.42392 C 538.504537 378.42392 525.974284 376.894928 515.27771 373.836945 L 515.27771 373.836945 C 515.583333 372.919545 515.736145 370.626068 515.736145 366.956512 L 515.736145 366.956512 C 511.45752 366.34492 508.248556 365.580434 506.109253 364.663055 L 506.109253 364.663055 C 506.414856 363.745656 506.567657 361.757965 506.567657 358.699982 L 506.567657 358.699982 C 506.567657 352.278249 505.039581 347.997101 501.983429 345.856537 C 498.927277 343.715953 494.648651 342.64566 489.147552 342.64566 L 489.147552 342.64566 C 483.035227 342.64566 477.839752 344.480438 473.561127 348.149994 C 469.282522 351.81957 467.143219 357.171021 467.143219 364.204346 L 467.143219 364.204346 C 467.143219 369.097107 468.21287 372.216248 470.352173 373.561768 C 472.491475 374.968424 475.089203 375.824646 478.145355 376.130432 C 481.201528 376.436218 483.340841 376.742015 484.563293 377.047821 L 484.563293 377.047821 C 503.511495 379.800018 521.451152 387.047414 538.382263 398.790009 C 555.374532 410.59376 568.974447 424.813324 579.182007 441.4487 C 589.450684 458.145233 594.585022 475.055806 594.585022 492.18042 L 594.585022 492.18042 C 594.585022 512.668864 590.000793 530.710897 580.832336 546.306519 C 571.663839 561.90214 559.500326 573.919963 544.341797 582.359985 C 529.244344 590.738851 512.832774 594.928284 495.107086 594.928284 L 495.107086 594.928284 C 474.936432 594.928284 455.071391 590.433065 435.511963 581.442627 C 415.952535 572.391032 399.968821 559.975667 387.560822 544.196533 C 375.213938 528.478556 369.040497 511.292755 369.040497 492.63913 L 369.040497 492.63913 L 369.498901 486.676086 L 369.498901 480.254364 C 377.750549 479.031158 386.613413 478.419556 396.087494 478.419556 L 396.087494 478.419556 L 422.676086 478.878265 C 428.788391 479.184052 437.498444 479.336945 448.806244 479.336945 L 448.806244 479.336945 C 448.806244 482.700714 449.264669 485.758687 450.181519 488.510864 L 450.181519 488.510864 L 457.974731 488.510864 C 457.974731 496.155802 459.655619 501.415507 463.017395 504.289978 C 466.379171 507.225647 471.421824 508.693481 478.145355 508.693481 L 478.145355 508.693481 C 484.868927 508.693481 490.522837 506.858693 495.107086 503.189117 C 499.691315 499.519562 501.983429 494.321014 501.983429 487.593475 L 501.983429 487.593475 C 501.983429 478.113759 498.468842 471.539113 491.439667 467.869537 C 484.410512 464.200002 477.228546 461.661896 469.893768 460.255219 C 462.55897 458.909698 457.82192 458.084056 455.682617 457.77829 L 455.682617 457.77829 L 448.806244 456.402161 C 439.637767 454.567383 431.997365 451.570577 425.88504 447.411743 C 419.772736 443.314067 413.201996 437.748556 406.172821 430.71521 L 406.172821 430.71521 C 384.779714 410.226827 374.08316 385.915955 374.08316 357.782593 L 374.08316 357.782593 C 374.08316 338.823201 378.820201 321.392761 388.294281 305.491272 C 397.768382 289.589864 410.665385 276.960449 426.985291 267.603027 C 443.366292 258.306803 461.489309 253.658691 481.35434 253.658691 L 481.35434 253.658691 C 501.830597 253.658691 520.839905 257.48114 538.382263 265.126038 C 555.985738 272.771016 570.135763 283.779724 580.832336 298.152161 C 591.52891 312.524638 596.877197 329.496379 596.877197 349.067383 L 596.877197 349.067383 C 596.877197 356.712321 595.960347 365.427541 594.126648 375.213043 L 594.126648 375.213043 L 590.459229 375.213043 Z M 580.832336 361.452179 C 582.360413 352.889842 583.124451 345.703613 583.124451 339.893494 L 583.124451 339.893494 C 583.124451 312.677551 573.405863 292.250305 553.968689 278.611755 C 534.592631 265.034363 510.387848 258.245667 481.35434 258.245667 L 481.35434 258.245667 C 462.100535 258.245667 444.68043 262.679728 429.094025 271.547852 C 413.507619 280.415975 401.191294 292.494954 392.14505 307.78479 C 383.159943 323.074626 378.667389 339.74056 378.667389 357.782593 L 378.667389 357.782593 C 378.667389 368.485494 380.959513 380.014048 385.543762 392.368256 C 390.127991 404.78362 397.157155 415.73115 406.631256 425.210846 C 416.105357 434.690562 427.413147 440.500712 440.554626 442.641296 L 440.554626 442.641296 C 443.305176 443.252909 451.25118 444.843058 464.392639 447.411743 C 477.534139 450.041606 487.833405 454.720306 495.290436 461.447845 C 502.808584 468.175385 506.567657 476.890594 506.567657 487.593475 L 506.567657 487.593475 C 506.567657 496.155792 503.817118 502.577525 498.31604 506.858673 C 492.814962 511.139821 486.0914 513.280396 478.145355 513.280396 L 478.145355 513.280396 C 469.282522 513.280396 461.550446 510.742289 454.949127 505.666077 C 448.408946 500.651001 444.833242 493.403615 444.222015 483.92392 L 444.222015 483.92392 C 434.747915 483.92392 427.565938 483.771016 422.676086 483.46521 L 422.676086 483.46521 L 397.921204 483.0065 C 389.363953 483.0065 381.417938 483.4652 374.08316 484.382599 L 374.08316 484.382599 L 374.08316 492.18042 C 374.08316 510.222493 379.584239 525.971049 390.586395 539.426086 C 401.588593 552.881124 415.708059 563.186483 432.944794 570.342163 C 450.242645 577.55896 468.060048 581.167358 486.397003 581.167358 L 486.397003 581.167358 C 503.205882 581.167358 518.792297 577.406067 533.15625 569.883484 C 547.520223 562.422017 559.041931 551.260417 567.721375 536.398682 C 576.462016 521.598145 580.832336 503.953654 580.832336 483.46521 L 580.832336 483.46521 C 580.832336 466.646362 576.400899 450.806081 567.538025 435.944366 C 558.675191 421.143789 546.817301 408.850739 531.964355 399.065216 C 517.172526 389.279714 501.219371 383.469564 484.104889 381.634766 L 484.104889 381.634766 C 463.628632 379.494202 453.390503 370.473185 453.390503 354.571716 L 453.390503 354.571716 C 453.390503 346.315226 455.98823 339.954651 461.183685 335.48999 C 466.379161 331.086507 472.644287 328.884766 479.979065 328.884766 L 479.979065 328.884766 C 488.536316 328.884766 496.023905 331.331146 502.441833 336.223907 C 508.859762 341.116669 512.068726 347.538411 512.068726 355.489136 L 512.068726 355.489136 C 512.068726 358.241313 511.915924 360.076101 511.610321 360.9935 L 511.610321 360.9935 C 521.695669 363.745677 532.239421 365.121765 543.241577 365.121765 L 543.241577 365.121765 C 552.715658 365.121765 565.093099 363.89857 580.373901 361.452179 L 580.373901 361.452179 L 580.832336 361.452179 Z"/>
                                                                                                                    </g>
                                                                                                                </g>
                                                                                                            </g>
                                                                                                        </g>
                                                                                                    </g>
                                                                                                </g>
                                                                                            </g>
                                                                                        </g>
                                                                                    </g>
                                                                                </g>
                                                                            </g>
                                                                        </g>
                                                                        <g id="g28"/>
                                                                    </g>
                                                                </g>
                                                            </g>
                                                        </g>
                                                    </g>
                                                </g>
                                            </g>
                                        </g>
                                    </g>
                                </g>
                            </g>
                        </g>
                    </g>
                </g>
                <path id="path1" fill="none" stroke="none" visibility="hidden" d="M 0.111111 0 L 749.888916 0 L 749.888916 844 L 0.111111 844 Z"/>
            </g>
        </g>
    </g>
</svg>
