<?xml version="1.0" encoding="UTF-8"?>
<!-- Generated by Pixelmator Pro 3.6.4 -->
<svg width="750" height="844" viewBox="0 0 750 844" xmlns="http://www.w3.org/2000/svg">
    <path id="Path" stroke="none" d="M 106.544266 157.124268 C 106.337761 157.887817 106.131248 158.651428 105.924744 159.414978 C 106.070038 159.519531 106.215332 159.624084 106.360634 159.728699 C 107.011353 159.162231 107.704964 158.637817 108.306557 158.023193 C 126.422897 139.515259 146.326736 123.179321 167.768265 108.669006 C 189.498474 93.963318 212.471909 81.599915 236.631104 71.402771 C 261.806 60.776917 287.73761 52.601501 314.676544 47.950134 C 326.874023 45.844116 339.182648 44.138184 351.512421 43.110718 C 364.34433 42.041382 377.259308 41.753357 390.14389 41.589172 C 405.715607 41.390686 421.204071 42.848938 436.643494 44.880859 C 452.345581 46.947388 467.854248 49.950562 483.171387 53.963745 C 499.223175 58.169434 514.92572 63.431213 530.25 69.787537 C 532.600464 70.762451 534.643799 72.467346 536.855896 73.789978 C 540.18042 75.777771 543.474854 77.824951 546.876587 79.672729 C 557.69751 85.550415 568.726257 91.064636 579.36908 97.246216 C 593.207092 105.283752 606.20929 114.622498 618.618164 124.723206 C 625.967285 130.7052 633.053833 137.027405 640.02887 143.446411 C 645.288513 148.286804 650.269104 153.441467 655.22522 158.599365 C 670.619934 174.621094 684.500427 191.904297 695.819702 211.013428 C 705.27594 226.977417 713.886292 243.455078 722.51886 259.890564 C 726.896484 268.225037 730.177124 277.080139 732.106323 286.369629 C 732.321594 287.406128 732.825562 288.403625 733.313354 289.35907 C 736.924805 296.432129 739.900635 303.682983 741.184448 311.625549 C 741.71936 314.935425 743.670349 317.993042 744.457214 321.289795 C 746.562744 330.111572 748.386841 339.000671 750.411377 348.034637 C 750.5 348.73996 750.5 349.27359 750.5 350.007355 C 749.692322 348.818878 748.479004 347.518616 748.153992 346.024902 C 747.228088 341.769196 746.663879 337.434601 745.920166 332.72403 C 745.693787 331.263123 745.504517 330.20929 745.315308 329.155518 C 745.193481 329.173035 745.071655 329.190491 744.949829 329.207947 C 744.949829 330.365173 744.949829 331.522278 744.949829 332.679413 C 744.254333 331.638367 743.251099 330.688721 742.911072 329.542175 C 739.537598 318.166748 736.390625 306.722961 732.916016 295.379456 C 731.690247 291.377625 729.739197 287.598206 728.002197 283.471375 C 727.051208 280.52533 726.217346 277.825195 725.383423 275.125 C 725.214966 275.183289 725.046509 275.241577 724.878052 275.299744 C 725.568665 278.083923 726.259338 280.868164 726.949951 283.652405 C 722.312927 273.697937 717.989319 263.581421 712.955078 253.832397 C 707.38623 243.047852 701.638611 232.296997 695.097473 222.090576 C 688.652649 212.034546 681.262756 202.56665 673.985413 193.07251 C 671.22168 189.466858 667.589539 186.532715 664.415039 183.23291 C 663.769226 182.561646 663.400879 181.623108 662.988525 180.61676 C 663.106628 180.296997 663.087708 180.174866 663.015564 180.059448 C 662.208496 179.517883 661.468628 178.716675 660.580933 178.487061 C 658.496338 177.947815 656.056641 175.264343 656.004333 172.850159 C 656.361633 172.722656 656.563477 172.680664 656.765259 172.638611 C 656.516174 172.276672 656.26709 171.914795 656.018005 171.552795 C 654.471313 170.318237 652.945923 169.055725 651.372437 167.856323 C 649.542175 166.461182 647.452942 165.337097 645.84906 163.723999 C 629.156006 146.935547 611.746887 130.954651 592.143555 117.607483 C 583.079773 111.436279 573.754944 105.505615 564.017944 100.498657 C 546.03595 91.252197 527.758484 82.594299 508.584473 75.932068 C 487.293091 68.534241 465.591766 62.816223 443.346436 59.339294 C 432.271515 57.608276 421.085876 56.350647 409.901978 55.617493 C 397.627563 54.812805 385.29422 54.504944 372.992462 54.618469 C 355.672028 54.778381 338.477203 56.69751 321.42572 59.803101 C 293.364532 64.913818 266.323395 73.298889 240.35527 85.113403 C 238.017014 86.177185 235.77919 87.462097 233.297668 88.840332 C 233.053848 89.30127 233.007095 89.565979 232.960358 89.830811 C 233.315475 89.752197 233.670609 89.673584 234.025742 89.595032 C 237.380035 88.265686 240.734329 86.93634 244.3797 85.694214 C 246.043823 86.918518 247.285431 86.628967 249.007797 85.132813 C 247.662079 85.041748 246.83992 84.986084 246.017746 84.93042 C 249.200851 83.530945 252.32634 81.976563 255.579086 80.764038 C 262.356995 78.237244 269.186737 75.845764 276.034882 73.515564 C 277.187317 73.123413 278.538788 73.317017 279.736847 73.452942 C 278.495544 74.300293 277.315735 74.93457 276.135895 75.568909 C 276.212189 75.723145 276.288452 75.87738 276.364716 76.031616 C 277.753754 75.546509 279.142822 75.061523 280.531891 74.576416 C 280.861298 74.576416 281.190704 74.576416 281.520111 74.576416 C 281.567383 74.673096 281.614624 74.769836 281.661896 74.866577 C 279.142761 75.921875 276.623596 76.977173 274.104462 78.032471 C 274.222412 78.388855 274.340332 78.745117 274.458252 79.10144 C 278.484131 78.485352 282.292572 76.905457 286.555847 75.655579 C 294.446899 73.783997 301.965485 71.943054 309.531097 70.321655 C 314.643066 69.226074 319.821228 68.439575 325.193787 67.519043 C 329.11026 67.042969 332.968781 67.454407 336.4375 65.773071 C 336.393768 65.545532 336.350006 65.317993 336.306274 65.090454 C 332.534149 65.907043 328.762054 66.723572 324.830719 67.539429 C 324.136139 67.465027 323.6008 67.391418 322.723083 67.270691 C 323.675201 66.5271 324.333374 66.013062 324.991547 65.499023 C 324.936066 65.346375 324.880554 65.193726 324.825073 65.041016 C 321.676788 65.41571 318.528534 65.790344 315.221924 66.183716 C 315.894165 66.586182 316.38797 66.881897 317.465576 67.527039 C 315.769745 67.9823 314.69342 68.295227 313.605316 68.559509 C 304.572357 70.753845 295.537231 72.939148 286.502747 75.127197 C 286.8302 74.692261 287.068939 74.119446 287.49826 73.843018 C 294.465942 69.355652 301.672546 65.590637 310.134521 64.585754 C 322.927368 63.066589 335.659546 61.032654 348.454956 59.538757 C 363.35675 57.798828 378.356567 57.662354 393.32428 58.110474 C 409.532227 58.595703 425.674194 60.107483 441.70752 62.692505 C 461.388062 65.865479 480.764221 70.357422 499.562012 76.953186 C 511.638031 81.19043 523.467224 86.18158 535.235168 91.235596 C 548.951294 97.12616 561.80011 104.702332 574.452576 112.592529 C 575.995239 113.554565 577.396912 114.743103 579.014832 116.04718 C 579.248352 116.367188 579.346252 116.447998 579.459595 116.510193 C 591.927307 126.089661 604.704529 135.298157 616.760803 145.370667 C 625.748047 152.878967 634.138672 161.185913 642.205383 169.696716 C 660.763733 189.27655 676.83313 210.816895 690.754822 233.926758 C 692.6203 237.023376 693.461365 240.720764 695.034668 244.016785 C 696.048096 246.139893 697.548157 248.028137 698.80188 250.039307 C 700.374084 252.561157 702.311401 254.941956 703.407532 257.659668 C 709.292908 272.250671 715.445129 286.761047 720.594971 301.615356 C 727.618652 321.874634 732.274536 342.790527 735.371887 364.016907 C 737.527649 378.79068 738.482361 393.663361 737.954956 408.597229 C 737.803528 412.885101 737.201904 417.157074 736.806763 421.436371 C 736.600464 421.443909 736.394226 421.451447 736.187927 421.459015 C 736.124695 420.791687 736.008545 420.124481 736.006592 419.45694 C 735.991577 414.287994 736.062134 409.118103 735.986938 403.950226 C 735.761292 388.430328 733.907043 373.066162 731.23114 357.804199 C 729.908875 350.262207 728.187439 342.790131 726.630432 335.289795 C 726.444153 334.3927 726.626587 333.309998 724.980835 333.344238 C 724.528503 333.353607 723.901978 331.649597 723.588806 330.657959 C 720.202271 319.935364 717.074646 309.125793 713.462341 298.480652 C 707.297241 280.312988 699.818176 262.680237 690.987793 245.635315 C 690.727051 245.132019 690.420532 244.652405 690.039001 243.996033 C 688.669678 245.854797 689.267944 247.419128 690.211487 248.92395 C 691.494446 250.970154 692.890747 252.946777 694.130737 255.0177 C 694.746033 256.045288 695.121155 257.216858 695.604919 258.323181 C 695.420837 258.462158 695.236694 258.601074 695.052612 258.739929 C 694.422058 258.199829 693.625549 257.767944 693.190735 257.10022 C 691.60437 254.664673 689.852783 252.27832 688.67627 249.644043 C 683.101135 237.1604 675.459534 225.942932 667.617981 214.85321 C 658.90686 202.533752 649.163208 191.078186 638.815674 180.083496 C 616.509521 156.382507 591.104614 136.647217 563.239319 119.983215 C 560.950134 118.614197 558.726563 117.336365 555.864563 116.87616 C 553.220825 116.45105 550.663879 114.679382 548.366943 113.073608 C 543.89447 109.946899 538.809387 108.641541 533.583435 107.551758 C 539.044861 110.39856 544.506348 113.2453 550.018066 116.289917 C 550.06842 116.487793 549.96875 116.614197 549.96875 116.614197 C 542.227295 113.127319 534.59906 109.355896 526.719788 106.215271 C 512.259949 100.451477 497.666962 95.019897 483.09729 89.535583 C 478.460907 87.790344 473.722351 86.316895 469.030548 84.718994 C 469.110352 84.468689 469.190125 84.218262 469.269897 83.967896 C 477.625366 86.55835 485.980804 89.148743 494.336243 91.739197 C 494.389893 91.584839 494.443573 91.43042 494.497223 91.276062 C 490.558624 89.906372 486.620026 88.536621 482.681396 87.166992 C 482.682617 87.069092 482.683838 86.971252 482.685059 86.873413 C 483.889404 86.990173 485.09375 87.106934 486.298096 87.223694 C 486.344879 87.092102 486.391663 86.960571 486.438446 86.828979 C 482.599121 85.476807 478.769562 84.095886 474.916199 82.785095 C 473.104492 82.168762 471.261658 81.629761 469.407104 81.157043 C 465.882446 80.258545 462.326813 78.598083 459.125763 81.516785 C 460.79129 81.920532 462.775024 82.401428 464.758789 82.882263 C 464.723633 83.086304 464.688477 83.290283 464.65332 83.494324 C 447.326416 81.057007 429.999542 78.619629 412.998657 76.228149 C 412.943451 76.261047 413.423279 75.974854 413.996857 75.632751 C 413.707367 75.439026 413.505951 75.186829 413.319244 75.197266 C 411.078003 75.322937 408.833862 75.662354 406.600708 75.59668 C 403.948822 75.518677 401.310852 75.048523 398.659241 74.850403 C 397.096802 74.733521 395.516846 74.869202 393.949646 74.792236 C 392.156372 74.704163 390.335663 74.670837 388.585205 74.321228 C 385.132721 73.631836 381.697601 74.038086 378.967957 75.954895 C 374.966766 78.764771 370.512604 78.825195 366.104004 78.978394 C 348.49173 79.59021 331.147552 82.138794 313.955505 85.838074 C 290.419739 90.902405 267.733795 98.58844 245.802948 108.476013 C 223.638504 118.468872 202.592209 130.459717 183.215683 145.177612 C 174.152496 152.061768 165.501709 159.513977 156.933792 167.017151 C 151.93959 171.390747 147.466766 176.362305 142.796097 181.101074 C 142.315277 181.588928 141.755554 182.346497 141.794144 182.942505 C 142.033234 186.636475 139.191971 189.976013 135.473343 190.325745 C 134.817673 190.387512 134.076904 190.827759 133.60524 191.315674 C 132.335007 192.629578 131.128891 194.016663 130.003967 195.458069 C 124.892288 202.007874 119.829681 208.596008 114.726906 215.15271 C 99.354034 234.905945 86.623024 256.28656 76.162155 278.979736 C 62.163567 309.347473 52.48563 341.068878 47.993008 374.255829 C 46.588291 384.632507 45.660564 395.096375 45.051277 405.551605 C 44.494507 415.105743 44.06089 424.739777 44.654541 434.271179 C 45.53281 448.372284 46.972103 462.467896 48.888439 476.467712 C 51.720749 497.159302 57.146492 517.274963 63.991207 536.994812 C 72.4114 561.253784 83.439575 584.270935 96.969826 606.098083 C 105.857246 620.435486 116.002449 633.799683 127.192894 646.417053 C 138.04425 658.6521 149.630478 670.121582 162.298645 680.435791 C 175.140869 690.891724 188.277069 700.985657 201.258911 711.270508 C 214.501633 721.761963 229.247879 729.538879 244.91301 735.696167 C 260.870422 741.968384 276.673645 748.661987 292.788116 754.497131 C 307.604584 759.862366 322.971558 763.369995 338.649017 765.301086 C 340.458466 765.523987 342.310303 765.471252 344.140869 765.442505 C 354.090698 765.286377 363.808289 767.112122 373.622375 768.401245 C 382.213562 769.529663 391.038147 769.153198 399.75119 768.989807 C 406.389404 768.865417 413.074951 768.431641 419.632507 767.432739 C 432.8703 765.416138 446.097534 763.22406 459.210785 760.528076 C 469.718262 758.367859 480.052094 755.36084 490.458496 752.711914 C 491.176605 752.529114 492.086639 752.398865 492.517975 751.904175 C 495.277283 748.739624 499.411774 747.631714 502.884064 747.548584 C 511.70813 747.337524 518.688477 742.58783 526.26178 739.41217 C 533.924133 736.199158 541.385437 732.400208 548.626221 728.31073 C 560.074036 721.84552 571.4375 715.195129 582.512634 708.115479 C 592.682373 701.614563 602.336304 694.332642 610.919922 685.752136 C 611.255676 685.416565 611.66803 685.157715 612.044678 684.863159 C 612.221497 685.016602 612.398315 685.170044 612.575134 685.323547 C 610.770508 687.356689 609.206787 689.689331 607.119202 691.370728 C 598.377686 698.411133 589.761658 705.662903 580.56189 712.063232 C 570.528076 719.043701 559.901733 725.171997 549.52832 731.663025 C 548.13562 732.534607 546.711121 733.355347 545.037415 734.357605 C 548.825012 734.198242 568.449158 723.146423 581.863525 713.465576 C 593.315491 705.200989 604.556274 696.643311 616.345825 687.876648 C 615.45166 688.947083 614.940918 689.812134 614.20752 690.398254 C 604.590088 698.083923 595.137756 705.995728 585.251892 713.321045 C 572.043152 723.108643 557.747192 731.220642 543.079407 738.588684 C 517.830688 751.271667 491.395355 760.800171 463.965851 767.596008 C 456.467072 769.453857 449.146881 772.181519 441.571075 773.541626 C 432.259796 775.213379 422.792328 776.361572 413.346283 776.858215 C 396.483734 777.745117 379.586609 777.97345 362.704071 778.482178 C 362.464417 778.489441 362.226807 778.56311 361.970428 778.861938 C 365.465424 779.212402 368.953339 779.680481 372.456696 779.892273 C 384.511444 780.620667 396.543152 780.448792 408.60968 779.607605 C 431.558411 778.007935 453.972229 773.632446 476.054657 767.413757 C 495.72525 761.874268 514.815918 754.711914 533.41864 746.247131 C 536.292725 744.939331 539.20575 743.717163 542.332642 742.481628 C 542.564514 742.507813 542.661926 742.619751 542.661926 742.619751 C 539.808838 744.459473 537.105957 746.610352 534.072266 748.075745 C 527.255066 751.368713 520.273743 754.32135 513.359375 757.412903 C 512.760986 757.680298 512.163452 757.94989 511.737396 758.732788 C 514.363037 757.814331 517.067749 757.073547 519.600037 755.945374 C 528.562439 751.952576 538.223633 748.943787 546.225586 743.507385 C 560.56189 733.767212 576.683533 727.04187 590.421387 716.437622 C 598.320068 710.340759 606.303772 704.314331 613.79303 697.736267 C 622.727966 689.888306 631.172913 681.481934 639.839355 673.327393 C 640.240112 672.950256 640.730774 672.66864 641.179565 672.34259 C 641.390808 672.532654 641.60199 672.722656 641.813232 672.912842 C 638.857422 676.323608 635.990417 679.817017 632.921204 683.122437 C 629.804199 686.479126 626.555054 689.720947 623.239868 692.883118 C 619.870544 696.096802 616.389526 699.196899 612.884521 702.263245 C 609.441406 705.275513 605.967163 708.258545 602.395325 711.115051 C 598.75647 714.025146 595.01532 716.810913 591.257813 719.567627 C 587.580444 722.265442 583.825806 724.858093 580.306274 727.974304 C 580.819397 727.767822 581.400024 727.655212 581.835693 727.341125 C 593.172729 719.169678 604.541443 711.040649 615.78186 702.737915 C 618.169312 700.974426 620.051819 698.535217 622.21521 696.457642 C 629.839966 689.135376 637.632019 681.980957 645.091431 674.494324 C 658.568787 660.967896 670.957581 646.485107 681.585999 630.593811 C 685.651672 624.514893 689.099792 618.022339 692.824036 611.715088 C 696.125183 606.124451 699.50531 600.578186 702.698975 594.926636 C 710.838196 580.522949 717.248352 565.364868 722.500183 549.678223 C 729.450745 528.918091 734.387695 507.685333 737.308105 486.019867 C 738.828796 474.738678 739.691895 463.353821 740.442566 451.988678 C 740.979858 443.85553 740.8349 435.677368 741.001038 427.519379 C 741.018555 426.657806 741.08075 425.79715 741.122192 424.936066 C 741.329041 424.931641 741.535828 424.927216 741.742676 424.922821 C 742.121216 427.587006 742.619812 430.24057 742.8573 432.917297 C 743.850647 444.116577 744.646912 455.325134 743.559814 466.570068 C 742.527649 477.247498 741.890015 487.98114 740.379028 498.59024 C 737.733032 517.168457 733.221436 535.34552 727.640991 553.275574 C 722.132263 570.975281 715.184875 588.078125 707.269348 604.811523 C 706.282532 606.897827 705.317688 608.994568 704.452393 611.326416 C 704.884094 611.668518 705.206055 611.770752 705.527954 611.872986 C 706.202148 611.473328 706.876343 611.07373 707.550537 610.674072 C 707.758057 610.846252 707.965576 611.018433 708.173157 611.190552 C 706.580139 614.046753 705.149231 617.009216 703.362244 619.73822 C 698.848511 626.63147 694.270325 633.487671 689.510376 640.211487 C 687.950317 642.415039 685.484009 643.971802 683.896973 646.16156 C 679.746155 651.88855 675.959839 657.879395 671.831604 663.623596 C 664.670044 673.588684 656.676025 682.830933 647.379028 690.892822 C 646.882813 691.323181 646.381531 691.823853 646.084473 692.396606 C 642.014221 700.243835 634.996094 705.372803 628.769958 711.224792 C 624.955261 714.810364 621.187073 718.464355 617.155701 721.793823 C 614.285706 724.164124 611.024658 726.063965 607.916138 728.140991 C 595.042114 736.742981 582.333618 745.611511 569.203247 753.802612 C 563.111633 757.6026 556.183777 760.055908 549.655334 763.162354 C 547.714111 764.086121 545.85791 765.187073 543.934692 766.150757 C 538.367554 768.940308 532.894592 771.950928 527.191345 774.429626 C 504.421844 784.325684 480.759399 791.460266 456.408905 796.139465 C 444.578003 798.412964 432.590149 799.929138 420.631592 801.462097 C 404.586212 803.518982 388.420135 804.034546 372.28772 803.36322 C 358.681763 802.796875 345.076721 801.591858 331.543732 800.03772 C 312.908936 797.897705 294.639343 793.755066 276.632813 788.49353 C 260.946747 783.910095 245.671356 778.232849 230.720154 771.616272 C 210.171021 762.522461 190.68219 751.554138 172.09346 738.969971 C 158.778336 729.955994 145.983536 720.244995 134.159988 709.321045 C 127.252441 702.939087 120.256401 696.617432 113.787437 689.80542 C 106.634178 682.272888 99.785858 674.414551 93.260368 666.329956 C 84.590004 655.588013 76.29171 644.541748 67.988594 633.509338 C 65.848915 630.666382 64.34066 627.354309 62.449856 624.315369 C 60.432911 621.073547 58.289322 617.911011 56.233601 614.692993 C 54.802387 612.452637 53.326366 610.232178 52.043522 607.907227 C 47.739647 600.107117 43.513878 592.263794 39.255905 584.438232 C 39.096851 584.145996 38.877617 583.88208 38.747814 583.578735 C 35.345936 575.62738 31.924295 567.684326 28.580414 559.708496 C 27.907757 558.104126 27.535509 556.373657 26.958658 554.407898 C 26.752529 553.952942 26.612492 553.791199 26.472448 553.629517 C 26.298756 553.856689 26.125069 554.083862 25.951385 554.310974 C 25.493393 553.645264 24.85075 553.041321 24.604137 552.304749 C 16.52277 528.166626 8.849547 503.895752 5.236284 478.610229 C 4.222554 471.516174 4.859259 464.199951 4.254129 457.026611 C 4.00899 454.120728 3.891856 450.720917 0.686282 448.758301 C 0.5 447.908173 0.5 447.050476 0.650714 445.872711 C 0.700952 441.954285 0.600475 438.355927 0.5 434.757568 C 0.5 430.244446 0.5 425.731293 0.587183 420.807281 C 3.041985 408.677612 3.687438 399.831848 2.491549 397.596039 C 1.875402 398.413116 1.187701 399.325134 0.5 400.237122 C 0.5 399.051147 0.5 397.865112 0.5 396.45694 C 1.086277 391.890442 1.550902 387.525391 2.284691 383.206177 C 3.718982 374.763672 5.356126 366.355835 6.81109 357.916687 C 8.242083 349.616608 9.213981 341.223022 10.979914 332.997803 C 15.534764 311.782776 22.188524 291.207092 30.707773 271.243347 C 37.414787 255.526367 44.979237 240.233948 53.80262 225.599915 C 64.734283 207.469238 76.979904 190.260559 90.700386 174.121643 C 94.522865 169.625366 98.34478 165.127869 102.233696 160.689514 C 103.378578 159.382874 104.752533 158.2771 106.226807 157.053955 C 106.432106 157.028625 106.544258 157.124268 106.544266 157.124268 M 578.177795 729.394897 C 578.230591 729.240112 578.283386 729.085327 578.336182 728.930542 C 578.174133 729.035461 578.012085 729.140442 577.727539 729.303833 C 577.650269 729.407288 577.573059 729.510742 577.49585 729.614136 C 577.672485 729.565918 577.849182 729.517761 578.177795 729.394897 M 77.805481 233.273376 C 77.681549 233.59259 77.557625 233.911865 77.433693 234.231018 C 77.541458 234.270569 77.649223 234.310059 77.756989 234.349609 C 77.888222 233.994934 78.019455 233.64032 78.272064 233.182922 C 78.327164 233.049988 78.382263 232.917053 78.437355 232.784058 C 78.280785 232.89032 78.124222 232.996704 77.805481 233.273376 M 509.048523 94.660767 C 509.108826 94.676025 509.169098 94.691345 509.229401 94.706665 C 509.201599 94.602173 509.173828 94.497742 509.026337 94.070435 C 506.429474 91.098145 502.693665 91.206177 499.482758 89.894592 C 499.376373 90.171265 499.269958 90.447998 499.163574 90.72467 C 502.433624 92.014343 505.703674 93.304077 509.048523 94.660767 M 211.872345 100.500549 C 217.416565 97.923218 222.8638 95.168884 228.271729 92.342651 C 228.0811 91.988464 227.890488 91.634094 227.69986 91.279846 C 222.070099 93.968994 216.452148 96.680664 211.037201 100.492371 C 210.128662 100.903503 209.220108 101.314636 208.311569 101.72583 C 208.402756 101.896057 208.493942 102.066345 208.585144 102.236572 C 209.565536 101.690002 210.545929 101.143433 211.872345 100.500549 M 158.212387 140.553162 C 148.782578 148.583801 139.629669 156.908997 131.083435 165.901001 C 132.916809 164.902222 134.487732 163.603027 136.051453 162.295105 C 145.239883 154.610352 154.276672 146.734863 163.644684 139.276001 C 184.10762 122.983154 206.111374 109.043213 229.719986 97.792358 C 241.204514 92.319336 253.094269 87.698059 264.79361 82.674866 C 265.577362 82.338379 266.302002 81.864014 267.054108 81.453796 C 266.947266 81.227661 266.840424 81.001587 266.733551 80.775574 C 265.966003 80.959656 265.160614 81.049805 264.436554 81.341797 C 252.167831 86.2901 239.836197 91.092529 227.6763 96.296509 C 220.583466 99.33197 213.739578 102.960266 206.844223 106.441833 C 204.194046 107.779968 201.630981 109.331543 199.170273 110.996094 C 194.206314 114.354004 189.413589 117.969177 184.398575 121.24585 C 182.21106 122.67511 179.340591 123.136536 177.316055 124.722412 C 170.900848 129.747314 164.738266 135.095215 158.212387 140.553162 M 441.918365 783.115601 C 469.893921 779.363953 496.410675 770.788513 521.943298 758.947021 C 491.815125 771.227966 460.710449 779.879089 428.473999 784.614868 C 432.810883 784.148499 437.147766 783.68219 441.918365 783.115601 M 670.29187 215.583069 C 675.478516 223.86908 680.6651 232.15509 685.893555 240.507935 C 687.482117 239.612671 687.277832 238.437927 686.549011 237.2995 C 684.195679 233.623657 681.831787 229.952454 679.375366 226.345337 C 676.848145 222.634277 674.236694 218.979309 671.606384 215.34021 C 669.801392 212.843079 667.901245 210.414795 666.04364 207.95575 C 665.82373 208.119202 665.603882 208.282654 665.383972 208.446045 C 666.953491 210.724487 668.523071 213.00293 670.29187 215.583069 M 98.749008 203.620544 C 100.705765 200.897827 102.662514 198.175171 104.61927 195.452393 C 104.409782 195.309204 104.200294 195.165894 103.990799 195.022705 C 94.850334 206.247131 86.530899 218.037354 79.275665 230.561157 C 79.530632 230.737 79.785591 230.912842 80.040558 231.088684 C 86.200981 222.025513 92.361412 212.962341 98.749008 203.620544 M 398.846283 71.518188 C 397.148834 71.410583 395.451416 71.30304 393.753967 71.195496 C 393.736664 71.615845 393.71933 72.036194 393.701996 72.456543 C 399.052063 73.757446 404.522156 72.689697 409.946625 72.588562 C 406.398285 72.236633 402.849976 71.884705 398.846283 71.518188 M 379.375458 71.044617 C 376.044128 71.044617 372.71283 71.044617 369.3815 71.044617 C 369.386414 71.270081 369.391296 71.495544 369.39621 71.721008 C 373.255463 71.721008 377.114746 71.721008 380.97403 71.721008 C 380.973267 71.516602 380.972534 71.312195 380.971771 71.107727 C 380.563538 71.087402 380.155273 71.067078 379.375458 71.044617 M 353.850372 64.763062 C 355.267853 64.30365 356.685364 63.844299 358.102844 63.384888 C 358.029694 63.113525 357.956512 62.842102 357.883362 62.570679 C 354.518707 63.372375 351.154022 64.174133 347.789368 64.97583 C 347.823181 65.176453 347.856964 65.377014 347.890778 65.577576 C 349.743591 65.343384 351.596436 65.109253 353.850372 64.763062 M 443.541077 75.351868 C 440.811584 74.687805 438.082123 74.023682 435.352631 73.359619 C 435.275909 73.724365 435.199158 74.089111 435.122437 74.453918 C 436.381561 74.817017 437.621094 75.351379 438.904938 75.498108 C 440.372955 75.665833 441.880341 75.488953 443.541077 75.351868 M 373.842041 62.037903 C 372.714905 62.037903 371.587769 62.037903 370.460632 62.037903 C 370.462799 62.143311 370.464966 62.248718 370.467133 62.354126 C 376.294006 62.354126 382.12088 62.354126 387.947754 62.354126 C 387.947266 62.248718 387.946777 62.143311 387.94632 62.037903 C 383.402283 62.037903 378.858276 62.037903 373.842041 62.037903 M 478.674469 77.628784 C 478.176483 77.663879 477.678528 77.698975 476.901031 77.753723 C 479.903381 80.025818 481.123596 79.947388 481.591736 77.421021 C 480.65509 77.514587 479.806274 77.599365 478.674469 77.628784 M 580.284424 123.099976 C 579.610718 122.726685 578.937012 122.353455 578.263306 121.980225 C 578.112 122.208679 577.960693 122.437195 577.809387 122.665771 C 579.414673 123.85199 581.019958 125.038208 582.625244 126.224426 C 582.80896 126.013245 582.992615 125.802002 583.176331 125.59082 C 582.303711 124.827148 581.43103 124.063416 580.284424 123.099976 M 640.505615 178.77478 C 640.827515 178.771118 641.149353 178.767517 641.471252 178.763855 C 641.09314 178.38678 640.715088 178.009766 640.337036 177.63269 C 640.336487 177.95636 640.335999 178.28009 640.505615 178.77478 M 574.928345 731.035156 C 575.108398 731.049072 575.29303 731.088623 575.465393 731.058289 C 575.507446 731.050781 575.509155 730.814026 575.529419 730.682678 C 575.340454 730.755493 575.151428 730.828247 574.928345 731.035156 M 572.984924 732.538879 C 573.030884 732.421753 573.076904 732.304626 573.122925 732.1875 C 572.9953 732.205811 572.867676 732.224182 572.740051 732.242493 C 572.78302 732.350891 572.82605 732.45929 572.984924 732.538879 M 108.047569 190.522583 C 107.998024 190.54895 107.948479 190.575439 107.898926 190.601807 C 107.935028 190.6427 107.971123 190.683655 108.007217 190.724548 C 108.039124 190.678162 108.07103 190.631836 108.047569 190.522583 M 105.909172 193.066528 C 105.97644 193.079773 106.043716 193.093018 106.110985 193.106323 C 106.06459 193.074524 106.018196 193.042725 105.909172 193.066528 M 645.909546 184.061218 C 645.976746 184.074768 646.043884 184.088318 646.111084 184.101868 C 646.064819 184.069885 646.018555 184.037842 645.909546 184.061218 M 661.047546 202.029541 C 660.998047 202.05603 660.948608 202.082458 660.899109 202.109009 C 660.935242 202.14978 660.971436 202.190613 661.007568 202.231506 C 661.039368 202.185059 661.071167 202.138672 661.047546 202.029541 M 663.098938 204.58728 C 663.042419 204.626343 662.985962 204.665466 662.929443 204.704468 C 662.984619 204.693726 663.039734 204.682983 663.098938 204.58728 M 664.533813 206.721069 C 664.505554 206.719604 664.477234 206.71814 664.533813 206.721069 M 269.894775 80.568542 C 269.951874 80.529358 270.008942 80.490112 270.06601 80.450928 C 270.010376 80.461609 269.954773 80.472229 269.894775 80.568542 M 649.693726 188.424927 C 649.693726 188.424927 649.821167 188.332031 649.821167 188.332031 C 649.821167 188.332031 649.672546 188.361633 649.693726 188.424927 M 657.202698 197.320007 C 657.202698 197.320007 657.27417 197.472046 657.27417 197.472046 C 657.27417 197.472046 657.265076 197.299622 657.202698 197.320007 M 655.25769 194.789673 C 655.25769 194.789673 655.213562 194.956543 655.213562 194.956543 C 655.213562 194.956543 655.312317 194.826965 655.25769 194.789673 M 652.797424 191.910645 C 652.797424 191.910645 652.725891 191.758606 652.725891 191.758606 C 652.725891 191.758606 652.735046 191.93103 652.797424 191.910645 M 659.306274 199.805054 C 659.306274 199.805054 659.178711 199.897949 659.178711 199.897949 C 659.178711 199.897949 659.327454 199.868347 659.306274 199.805054 M 576.538879 120.8797 C 576.538879 120.8797 576.515564 120.790405 576.515564 120.790405 C 576.515564 120.790405 576.486633 120.877625 576.538879 120.8797 M 584.272644 127.085693 C 584.272644 127.085693 584.220398 127.005981 584.220398 127.005981 C 584.220398 127.005981 584.223083 127.102783 584.272644 127.085693 M 104.725182 161.075745 C 104.725182 161.075745 104.777191 161.155151 104.777191 161.155151 C 104.777191 161.155151 104.774544 161.057678 104.725182 161.075745 M 630.765381 168.059814 C 630.765381 168.059814 630.731812 168.150879 630.731812 168.150879 C 630.731812 168.150879 630.80542 168.09375 630.765381 168.059814 M 126.489548 170.373474 C 126.489548 170.373474 126.569199 170.321228 126.569199 170.321228 C 126.569199 170.321228 126.472481 170.324036 126.489548 170.373474 M 110.191902 188.15033 C 110.191902 188.15033 110.281105 188.126953 110.281105 188.126953 C 110.281105 188.126953 110.193924 188.098083 110.191902 188.15033 M 268.753418 80.822632 C 268.753418 80.822632 268.737 80.786316 268.753418 80.822632 Z"/>
    <path id="path1" stroke="none" d="M 596.062134 367.804016 C 595.290649 375.171631 595.31665 375.379913 588.237793 376.263824 C 579.911804 377.303406 571.536194 377.948761 563.179688 378.739746 C 550.409851 379.948578 537.756531 378.826904 525.16449 376.720184 C 522.706604 376.308929 520.295837 375.618866 517.859924 375.07254 C 516.332275 374.729889 515.73584 373.983337 515.880066 372.254089 C 516.243469 367.89505 516.133301 367.88736 511.992584 366.949554 C 511.261932 366.784088 510.535492 366.598267 509.811859 366.404114 C 506.667969 365.560669 506.787445 365.267487 506.79071 362.099915 C 506.794373 358.556854 506.423218 354.955566 505.704254 351.485626 C 504.967255 347.928711 502.22171 345.821136 498.875183 344.800293 C 490.863556 342.356506 483.155334 342.688049 475.93924 347.539642 C 470.795227 350.998077 468.616577 355.975128 468.03186 361.878326 C 467.933655 362.869598 468.001251 363.87796 468.002289 364.878387 C 468.010132 372.385193 470.322235 375.205078 477.713348 376.220032 C 487.795441 377.604614 497.782349 379.387482 507.406799 382.785248 C 523.215698 388.366364 537.279297 396.948761 550.168762 407.60965 C 560.318787 416.004761 569.052612 425.664673 576.434631 436.528839 C 586.313049 451.066956 593.47229 466.792053 594.865845 484.518036 C 596.760254 508.613373 592.091309 531.324585 578.540466 551.675903 C 562.574219 575.655029 540.142761 589.900757 511.748047 594.310303 C 488.311554 597.94989 465.697083 594.025208 443.75708 585.461304 C 430.153412 580.151306 417.553589 573.060791 406.362854 563.688171 C 389.534363 549.59375 376.412018 532.913574 371.323212 510.970154 C 369.484772 503.042572 368.897614 495.01355 369.900665 486.903351 C 369.961884 486.408203 369.986359 485.90509 369.983276 485.405945 C 369.946198 479.378021 370.30365 480.232941 375.024963 479.97702 C 387.731415 479.288391 400.466736 479.068176 413.193817 478.85611 C 418.927917 478.760529 424.669983 479.117157 430.407898 479.285858 C 435.896393 479.447205 441.383575 479.660767 446.872803 479.787476 C 448.622559 479.82782 449.498871 480.562134 449.53717 482.330719 C 449.549652 482.906891 449.716217 483.480377 449.819611 484.053833 C 450.650421 488.661896 450.651794 488.779755 455.317017 488.745544 C 457.685364 488.72818 458.633148 489.798889 458.874847 491.925751 C 459.043732 493.412231 459.179474 494.905884 459.431702 496.378937 C 460.631653 503.386414 465.087311 507.117584 471.823669 508.276062 C 477.367615 509.229401 482.926178 509.307556 488.349854 507.412292 C 497.530975 504.204041 502.315765 497.389893 502.222382 487.700195 C 502.138947 479.039825 499.057831 472.058868 490.957397 468.069336 C 487.67868 466.454559 484.323853 464.797028 480.815002 463.888153 C 473.255463 461.930237 465.591217 460.359161 457.937195 458.789124 C 449.784882 457.116913 441.358246 456.213318 433.940521 452.219299 C 428.336426 449.201813 422.871613 445.715668 417.935883 441.709137 C 407.834045 433.508942 398.723633 424.293671 391.274536 413.493286 C 383.081787 401.614594 377.818665 388.582397 375.6427 374.390289 C 372.72934 355.388702 374.564087 336.790558 382.035583 318.993774 C 388.380981 303.879333 397.733032 290.867798 410.20578 280.092224 C 426.645508 265.889282 445.644196 257.435303 467.107727 254.865112 C 482.145538 253.064331 497.18573 253.889709 512.071167 256.922302 C 523.148376 259.179077 533.803772 262.742432 543.927368 267.71228 C 552.687866 272.013 560.797668 277.347046 568.129822 283.911499 C 576.806396 291.679382 583.919556 300.590942 589.103027 310.982788 C 593.608093 320.014648 596.132446 329.638672 597.069824 339.71225 C 597.939697 349.060211 597.570435 358.334625 596.062134 367.804016 M 497.764618 508.33197 C 489.320923 514.170166 479.924103 514.936096 470.239777 513.042114 C 462.463043 511.521362 455.663239 507.941681 450.569641 501.61972 C 447.398651 497.684052 445.73938 493.108215 444.990906 488.166046 C 444.710419 486.31424 444.284058 484.806915 441.872833 484.775177 C 435.799927 484.695313 429.72937 484.449829 423.657257 484.293579 C 421.575256 484.239929 419.491425 484.235016 417.408539 484.240448 C 405.348633 484.271973 393.284332 484.131927 381.230682 484.426025 C 374.992798 484.578217 375.001282 484.92868 375.000549 491.218353 C 375.000366 492.802521 374.986481 494.386871 375.003265 495.970886 C 375.110138 506.046021 377.353333 515.66864 381.737488 524.692505 C 390.387604 542.496826 404.29834 555.333008 421.376648 564.677979 C 444.964722 577.584961 470.273193 583.189331 497.188263 580.873474 C 510.303467 579.745056 522.625305 576.006714 534.229248 569.77124 C 553.183472 559.585938 566.063477 544.059326 574.034607 524.323853 C 579.478333 510.845947 581.227417 496.694489 581.035828 482.212402 C 580.862 469.065521 577.856567 456.626709 572.246399 444.814484 C 565.573486 430.764801 556.125488 418.818726 544.282776 408.761597 C 529.397705 396.120697 512.571594 387.392883 493.309052 383.68692 C 487.431702 382.556152 481.453125 381.929291 475.602844 380.68573 C 467.960541 379.061218 461.303162 375.659149 457.122253 368.621552 C 453.877899 363.16037 453.316254 357.230286 453.970551 351.032135 C 454.694061 344.178894 457.551514 338.529205 463.233276 334.606171 C 473.703735 327.376831 484.817017 327.755676 496.053284 332.506836 C 507.339478 337.279053 513.849487 346.429626 512.552612 358.72757 C 512.365295 360.503815 513.075012 361.641022 514.901367 361.917236 C 522.210876 363.022644 529.489136 364.624817 536.840149 365.103271 C 550.768494 366.009705 564.593079 364.294983 578.351501 362.162994 C 580.185181 361.878845 581.267334 361.14975 581.613831 359.078766 C 583.424316 348.258484 584.084229 337.445251 582.487732 326.523376 C 580.171814 310.680298 573.978821 296.7547 562.211548 285.705444 C 552.911072 276.972351 541.860229 271.026367 529.914185 266.715149 C 510.454803 259.692383 490.347656 258.005005 469.875854 259.64209 C 458.048828 260.58783 446.76001 263.734741 436.096436 268.895508 C 416.96402 278.154785 401.982819 291.959351 391.612732 310.583435 C 381.889313 328.045959 377.768188 346.812164 379.991974 366.684143 C 382.480164 388.918915 390.819763 408.61142 406.691803 424.818542 C 414.079163 432.361816 422.536926 438.15097 432.742249 440.852631 C 441.01825 443.043579 449.466705 444.61145 457.878052 446.253693 C 468.045227 448.238708 478.093323 450.493195 487.248199 455.638855 C 493.379761 459.085205 498.593292 463.527435 502.358521 469.506592 C 506.512787 476.103424 507.564972 483.388489 507.044708 491.062988 C 506.565033 498.13855 503.847809 503.907806 497.764618 508.33197 Z"/>
    <path id="path2" stroke="none" d="M 247.795212 487.975616 C 251.344772 496.67453 258.051666 500.423279 265.987122 498.281891 C 269.858582 497.237213 272.605652 494.699951 274.409485 491.297882 C 278.657562 483.285919 281.055847 474.807281 280.071594 465.611908 C 280.036133 465.280823 280.025604 464.946289 280.01947 464.613037 C 279.844757 455.119202 279.630219 445.625885 279.508636 436.131317 C 279.30481 420.217682 279.159515 404.303223 278.991547 388.38916 C 278.826202 372.725128 278.690979 357.060791 278.484253 341.397339 C 278.410614 335.821014 277.951996 330.243408 278.04245 324.672485 C 278.249268 311.936035 278.676025 299.202881 279.033112 286.469055 C 279.341187 275.484985 279.713013 264.502625 279.982513 253.517761 C 280.098175 248.803833 280.152802 248.679871 284.978943 248.644958 C 307.300079 248.483765 329.621063 248.306091 351.94223 248.152893 C 356.473328 248.121704 356.473541 248.15863 356.50119 252.78772 C 356.526733 257.072815 356.578949 257.125366 360.83783 257.151123 C 361.337799 257.154053 361.841064 257.195068 362.337189 257.152588 C 364.754486 256.945313 365.610107 258.129395 365.518738 260.438843 C 365.416626 263.01947 365.500336 265.607422 365.500488 268.192139 C 365.500946 277.363892 365.433716 286.536194 365.517334 295.707153 C 365.615356 306.452332 365.788452 317.197693 366.031372 327.940613 C 366.296722 339.676056 366.699554 351.408264 367.00354 363.142853 C 367.208435 371.051605 367.365814 378.961761 367.508331 386.871918 C 367.691437 397.032532 368.05069 407.195892 367.950684 417.354279 C 367.803192 432.341766 367.634338 447.341705 366.889221 462.307159 C 366.107697 478.003601 364.977539 493.700653 363.377533 509.333649 C 361.428101 528.381104 355.273865 546.093506 343.999268 561.712646 C 336.821442 571.656494 327.032623 578.370544 315.941986 583.560791 C 305.181824 588.596375 294.404541 593.374634 282.554565 595.061523 C 259.428009 598.353699 236.520752 598.236572 214.440048 589.369019 C 197.954712 582.748535 185.438797 571.46521 176.391449 556.148193 C 165.505341 537.718323 159.243332 517.764282 155.975479 496.731628 C 153.587067 481.359314 153.25502 465.891876 153.538696 450.387939 C 153.570557 448.646454 153.62735 446.833527 154.138916 445.19989 C 154.444061 444.225433 155.533417 443.053223 156.486771 442.80603 C 159.777023 441.953064 163.152481 440.996979 166.513336 440.926056 C 178.902222 440.664734 191.31282 440.355286 203.686798 440.820892 C 212.880646 441.16684 222.027573 442.711761 231.201843 443.660217 C 233.697525 443.918243 234.572876 445.156799 234.540146 447.624359 C 234.479034 452.231445 234.585495 452.232849 239.167892 452.802704 C 243.358566 453.323853 243.262024 453.453339 243.545441 457.782227 C 244.034271 465.248322 244.661407 472.712097 245.517273 480.143799 C 245.81694 482.74588 246.961517 485.250549 247.795212 487.975616 M 179.20903 552.367798 C 182.781296 558.046021 187.026398 563.131104 192.277237 567.348816 C 199.385956 573.058838 207.194138 577.564209 216.170166 579.303223 C 223.824112 580.786133 231.636032 581.477661 239.392044 582.401794 C 248.881653 583.532593 258.331421 582.678833 267.754791 581.518066 C 280.53772 579.943542 292.446899 575.535583 304.118073 570.295044 C 314.543915 565.613708 323.832397 559.439209 330.606384 550.088013 C 340.218201 536.819214 346.196106 521.881958 348.358154 505.741943 C 350.365417 490.757141 351.510254 475.629639 352.379913 460.527222 C 353.197876 446.322235 353.270538 432.069275 353.453583 417.834686 C 353.547729 410.513275 353.135284 403.186371 353.009583 395.860962 C 352.816711 384.618591 352.739746 373.373901 352.49057 362.132965 C 352.24527 351.066193 351.799469 340.004028 351.529755 328.937683 C 351.290314 319.113708 351.08728 309.287354 351.020935 299.46106 C 350.934814 286.70697 350.996399 273.951843 351.006012 261.197083 C 351.006866 260.031921 351.003418 258.855103 351.15387 257.703613 C 351.720154 253.369507 351.563385 253.124878 347.137299 253.158936 C 327.56955 253.309509 308.001984 253.486816 288.434357 253.654663 C 288.267761 253.656067 288.100342 253.670837 287.934662 253.659668 C 285.779083 253.513916 285.039276 254.578064 284.981049 256.665833 C 284.716553 266.148621 284.270355 275.626526 284.032471 285.109802 C 283.77356 295.433411 283.509766 305.761353 283.53537 316.08667 C 283.592957 339.334167 283.80545 362.581421 283.998718 385.82843 C 284.126831 401.239777 284.309601 416.650787 284.508209 432.061432 C 284.641296 442.387756 284.844727 452.713135 285.018372 463.03894 C 285.023987 463.372131 285.02771 463.707489 285.067078 464.037659 C 286.273193 474.154816 283.75589 483.547211 279.348053 492.511993 C 277.204407 496.871765 274.078491 500.47403 269.452698 502.3349 C 260.165924 506.070862 244.678604 503.286499 238.686661 490.793732 C 232.729767 478.374084 230.552994 465.150024 229.583969 451.638458 C 229.397324 449.035828 228.370316 448.057404 226.065643 447.844574 C 216.795456 446.988464 207.540375 445.747345 198.250793 445.378784 C 186.532013 444.913849 174.781235 444.975952 163.118057 446.754944 C 159.222519 447.349121 158.497452 447.88739 158.534073 451.790741 C 158.609848 459.866577 158.729172 467.944 158.986176 476.015778 C 159.427719 489.884338 161.584137 503.51416 165.033264 516.942627 C 168.193237 529.245361 172.074829 541.266113 179.20903 552.367798 Z"/>
    <path id="path3" stroke="none" d="M 550.118225 116.4245 C 551.181641 116.81842 552.195313 117.275574 553.208923 117.732849 C 553.127808 117.901123 553.046753 118.069458 552.965637 118.237854 C 552.050049 117.767151 551.134521 117.296509 550.093872 116.720093 C 549.96875 116.614197 550.06842 116.487793 550.118225 116.4245 Z"/>
    <path id="path4" stroke="none" d="M 619.058289 684.962769 C 619.249329 685.020752 619.382874 685.135498 619.516479 685.250244 C 619.459961 685.306335 619.403503 685.362427 619.346985 685.418518 C 619.231628 685.285522 619.116272 685.152466 619.058289 684.962769 Z"/>
    <path id="path5" stroke="none" d="M 622.690918 681.916931 C 622.691956 681.889648 622.782654 681.919556 622.782654 681.919556 C 622.782654 681.919556 622.689941 681.944153 622.690918 681.916931 Z"/>
    <path id="path6" stroke="none" d="M 542.515991 742.45166 C 542.557678 742.445679 542.647888 742.495789 542.700073 742.582825 C 542.661926 742.619751 542.564514 742.507813 542.515991 742.45166 Z"/>
    <path id="path7" stroke="none" d="M 643.690674 670.410095 C 643.691711 670.38269 643.782837 670.412781 643.782837 670.412781 C 643.782837 670.412781 643.689636 670.437439 643.690674 670.410095 Z"/>
    <path id="path8" stroke="none" d="M 106.376175 156.980652 C 106.417648 156.970093 106.515045 157.007507 106.578354 157.084656 C 106.544258 157.124268 106.432106 157.028625 106.376175 156.980652 Z"/>
    <path id="path9" stroke="none" d="M 105.940491 193.038757 C 106.018196 193.042725 106.06459 193.074524 106.110985 193.106323 C 106.043716 193.093018 105.97644 193.079773 105.940491 193.038757 Z"/>
    <path id="path10" stroke="none" d="M 645.940918 184.033569 C 646.018555 184.037842 646.064819 184.069885 646.111084 184.101868 C 646.043884 184.088318 645.976746 184.074768 645.940918 184.033569 Z"/>
    <path id="path11" stroke="none" d="M 663.096924 204.6297 C 663.039734 204.682983 662.984619 204.693726 662.929443 204.704468 C 662.985962 204.665466 663.042419 204.626343 663.096924 204.6297 Z"/>
    <path id="path12" stroke="none" d="M 664.491394 206.718872 C 664.477234 206.71814 664.505554 206.719604 664.491394 206.718872 Z"/>
    <path id="path13" stroke="none" d="M 269.896973 80.525757 C 269.954773 80.472229 270.010376 80.461609 270.06601 80.450928 C 270.008942 80.490112 269.951874 80.529358 269.896973 80.525757 Z"/>
    <path id="path14" stroke="none" d="M 649.683105 188.393311 C 649.672546 188.361633 649.821167 188.332031 649.821167 188.332031 C 649.821167 188.332031 649.693726 188.424927 649.683105 188.393311 Z"/>
    <path id="path15" stroke="none" d="M 657.233887 197.309753 C 657.265076 197.299622 657.27417 197.472046 657.27417 197.472046 C 657.27417 197.472046 657.202698 197.320007 657.233887 197.309753 Z"/>
    <path id="path16" stroke="none" d="M 655.285034 194.80835 C 655.312317 194.826965 655.213562 194.956543 655.213562 194.956543 C 655.213562 194.956543 655.25769 194.789673 655.285034 194.80835 Z"/>
    <path id="path17" stroke="none" d="M 652.766235 191.920837 C 652.735046 191.93103 652.725891 191.758606 652.725891 191.758606 C 652.725891 191.758606 652.797424 191.910645 652.766235 191.920837 Z"/>
    <path id="path18" stroke="none" d="M 659.316895 199.836731 C 659.327454 199.868347 659.178711 199.897949 659.178711 199.897949 C 659.178711 199.897949 659.306274 199.805054 659.316895 199.836731 Z"/>
    <path id="path19" stroke="none" d="M 584.247864 127.094238 C 584.223083 127.102783 584.220398 127.005981 584.220398 127.005981 C 584.220398 127.005981 584.272644 127.085693 584.247864 127.094238 Z"/>
    <path id="path20" stroke="none" d="M 104.749863 161.066711 C 104.774544 161.057678 104.777191 161.155151 104.777191 161.155151 C 104.777191 161.155151 104.725182 161.075745 104.749863 161.066711 Z"/>
    <path id="path21" stroke="none" d="M 630.7854 168.076782 C 630.80542 168.09375 630.731812 168.150879 630.731812 168.150879 C 630.731812 168.150879 630.765381 168.059814 630.7854 168.076782 Z"/>
    <path id="path22" stroke="none" d="M 126.481018 170.348694 C 126.472481 170.324036 126.569199 170.321228 126.569199 170.321228 C 126.569199 170.321228 126.489548 170.373474 126.481018 170.348694 Z"/>
    <path id="path23" stroke="none" d="M 268.245209 80.804443 C 268.237 80.786316 268.253418 80.822632 268.245209 80.804443 Z"/>
    <path id="path24" stroke="none" d="M 497.905975 508.221375 C 503.847809 503.907806 506.565033 498.13855 507.044708 491.062988 C 507.564972 483.388489 506.512787 476.103424 502.358521 469.506592 C 498.593292 463.527435 493.379761 459.085205 487.248199 455.638855 C 478.093323 450.493195 468.045227 448.238708 457.878052 446.253693 C 449.466705 444.61145 441.01825 443.043579 432.742249 440.852631 C 422.536926 438.15097 414.079163 432.361816 406.691803 424.818542 C 390.819763 408.61142 382.480164 388.918915 379.991974 366.684143 C 377.768188 346.812164 381.889313 328.045959 391.612732 310.583435 C 401.982819 291.959351 416.96402 278.154785 436.096436 268.895508 C 446.76001 263.734741 458.048828 260.58783 469.875854 259.64209 C 490.347656 258.005005 510.454803 259.692383 529.914185 266.715149 C 541.860229 271.026367 552.911072 276.972351 562.211548 285.705444 C 573.978821 296.7547 580.171814 310.680298 582.487732 326.523376 C 584.084229 337.445251 583.424316 348.258484 581.613831 359.078766 C 581.267334 361.14975 580.185181 361.878845 578.351501 362.162994 C 564.593079 364.294983 550.768494 366.009705 536.840149 365.103271 C 529.489136 364.624817 522.210876 363.022644 514.901367 361.917236 C 513.075012 361.641022 512.365295 360.503815 512.552612 358.72757 C 513.849487 346.429626 507.339478 337.279053 496.053284 332.506836 C 484.817017 327.755676 473.703735 327.376831 463.233276 334.606171 C 457.551514 338.529205 454.694061 344.178894 453.970551 351.032135 C 453.316254 357.230286 453.877899 363.16037 457.122253 368.621552 C 461.303162 375.659149 467.960541 379.061218 475.602844 380.68573 C 481.453125 381.929291 487.431702 382.556152 493.309052 383.68692 C 512.571594 387.392883 529.397705 396.120697 544.282776 408.761597 C 556.125488 418.818726 565.573486 430.764801 572.246399 444.814484 C 577.856567 456.626709 580.862 469.065521 581.035828 482.212402 C 581.227417 496.694489 579.478333 510.845947 574.034607 524.323853 C 566.063477 544.059326 553.183472 559.585938 534.229248 569.77124 C 522.625305 576.006714 510.303467 579.745056 497.188263 580.873474 C 470.273193 583.189331 444.964722 577.584961 421.376648 564.677979 C 404.29834 555.333008 390.387604 542.496826 381.737488 524.692505 C 377.353333 515.66864 375.110138 506.046021 375.003265 495.970886 C 374.986481 494.386871 375.000366 492.802521 375.000549 491.218353 C 375.001282 484.92868 374.992798 484.578217 381.230682 484.426025 C 393.284332 484.131927 405.348633 484.271973 417.408539 484.240448 C 419.491425 484.235016 421.575256 484.239929 423.657257 484.293579 C 429.72937 484.449829 435.799927 484.695313 441.872833 484.775177 C 444.284058 484.806915 444.710419 486.31424 444.990906 488.166046 C 445.73938 493.108215 447.398651 497.684052 450.569641 501.61972 C 455.663239 507.941681 462.463043 511.521362 470.239777 513.042114 C 479.924103 514.936096 489.320923 514.170166 497.905975 508.221375 Z"/>
    <path id="path25" stroke="none" d="M 179.103882 552.220581 C 172.074829 541.266113 168.193237 529.245361 165.033264 516.942627 C 161.584137 503.51416 159.427719 489.884338 158.986176 476.015778 C 158.729172 467.944 158.609848 459.866577 158.534073 451.790741 C 158.497452 447.88739 159.222519 447.349121 163.118057 446.754944 C 174.781235 444.975952 186.532013 444.913849 198.250793 445.378784 C 207.540375 445.747345 216.795456 446.988464 226.065643 447.844574 C 228.370316 448.057404 229.397324 449.035828 229.583969 451.638458 C 230.552994 465.150024 232.729767 478.374084 238.686661 490.793732 C 244.678604 503.286499 260.165924 506.070862 269.452698 502.3349 C 274.078491 500.47403 277.204407 496.871765 279.348053 492.511993 C 283.75589 483.547211 286.273193 474.154816 285.067078 464.037659 C 285.02771 463.707489 285.023987 463.372131 285.018372 463.03894 C 284.844727 452.713135 284.641296 442.387756 284.508209 432.061432 C 284.309601 416.650787 284.126831 401.239777 283.998718 385.82843 C 283.80545 362.581421 283.592957 339.334167 283.53537 316.08667 C 283.509766 305.761353 283.77356 295.433411 284.032471 285.109802 C 284.270355 275.626526 284.716553 266.148621 284.981049 256.665833 C 285.039276 254.578064 285.779083 253.513916 287.934662 253.659668 C 288.100342 253.670837 288.267761 253.656067 288.434357 253.654663 C 308.001984 253.486816 327.56955 253.309509 347.137299 253.158936 C 351.563385 253.124878 351.720154 253.369507 351.15387 257.703613 C 351.003418 258.855103 351.006866 260.031921 351.006012 261.197083 C 350.996399 273.951843 350.934814 286.70697 351.020935 299.46106 C 351.08728 309.287354 351.290314 319.113708 351.529755 328.937683 C 351.799469 340.004028 352.24527 351.066193 352.49057 362.132965 C 352.739746 373.373901 352.816711 384.618591 353.009583 395.860962 C 353.135284 403.186371 353.547729 410.513275 353.453583 417.834686 C 353.270538 432.069275 353.197876 446.322235 352.379913 460.527222 C 351.510254 475.629639 350.365417 490.757141 348.358154 505.741943 C 346.196106 521.881958 340.218201 536.819214 330.606384 550.088013 C 323.832397 559.439209 314.543915 565.613708 304.118073 570.295044 C 292.446899 575.535583 280.53772 579.943542 267.754791 581.518066 C 258.331421 582.678833 248.881653 583.532593 239.392044 582.401794 C 231.636032 581.477661 223.824112 580.786133 216.170166 579.303223 C 207.194138 577.564209 199.385956 573.058838 192.277237 567.348816 C 187.026398 563.131104 182.781296 558.046021 179.103882 552.220581 Z"/>
</svg>
