<?xml version="1.0" encoding="UTF-8"?>
<!-- Generated by Pixelmator Pro 3.6.4 -->
<svg width="1500" height="1687" viewBox="0 0 1500 1687" xmlns="http://www.w3.org/2000/svg">
    <path id="Path"  stroke="none" d="M 213.088531 314.062378 C 212.675522 315.588623 212.262497 317.114868 211.849487 318.641113 C 212.140076 318.850098 212.430664 319.059082 212.721268 319.268188 C 214.022705 318.135864 215.409927 317.087646 216.613113 315.859131 C 252.845795 278.865234 292.653473 246.212646 335.53653 217.209229 C 378.996948 187.815308 424.943817 163.103149 473.262207 142.720947 C 523.612 121.481812 575.47522 105.140625 629.353088 95.843506 C 653.748047 91.633911 678.365295 88.224121 703.024841 86.17041 C 728.68866 84.032959 754.518616 83.457275 780.287781 83.129028 C 811.431213 82.7323 842.408142 85.647095 873.286987 89.708496 C 904.691162 93.839111 935.708496 99.841919 966.342773 107.863525 C 998.44635 116.269897 1029.85144 126.787231 1060.5 139.492432 C 1065.200928 141.44104 1069.287598 144.848877 1073.711792 147.492554 C 1080.36084 151.465698 1086.949707 155.557739 1093.753174 159.251099 C 1115.39502 170.999512 1137.452515 182.021362 1158.738159 194.377197 C 1186.414185 210.442749 1212.418579 229.109131 1237.236328 249.298584 C 1251.93457 261.255493 1266.107666 273.892456 1280.057739 286.7229 C 1290.577026 296.397949 1300.538208 306.701172 1310.450439 317.010864 C 1341.239868 349.035278 1369.000854 383.581177 1391.639404 421.776855 C 1410.55188 453.685913 1427.772583 486.621704 1445.03772 519.473145 C 1453.792969 536.132324 1460.354248 553.832031 1464.212646 572.399902 C 1464.643188 574.47168 1465.651123 576.465576 1466.626709 578.375244 C 1473.849609 592.513062 1479.80127 607.006104 1482.368896 622.881836 C 1483.438721 629.497681 1487.340698 635.609375 1488.914429 642.198975 C 1493.125488 659.832031 1496.773682 677.59967 1500.822754 695.656921 C 1501 697.066711 1501 698.133362 1501 699.600037 C 1499.384644 697.224487 1496.958008 694.625488 1496.307983 691.639832 C 1494.456177 683.133423 1493.327759 674.469421 1491.840332 665.053833 C 1491.387573 662.133789 1491.009033 660.027344 1490.630615 657.921021 C 1490.386963 657.956055 1490.143311 657.990967 1489.899658 658.025879 C 1489.899658 660.338867 1489.899658 662.651733 1489.899658 664.964661 C 1488.508667 662.883789 1486.502197 660.985596 1485.822144 658.693848 C 1479.075195 635.956543 1472.78125 613.08252 1465.832031 590.408936 C 1463.380493 582.410034 1459.478394 574.855713 1456.004395 566.606934 C 1454.102417 560.718262 1452.434692 555.321167 1450.766846 549.924072 C 1450.429932 550.040527 1450.093018 550.156982 1449.756104 550.273315 C 1451.137329 555.838379 1452.518677 561.403564 1453.899902 566.96875 C 1444.625854 547.071533 1435.978638 526.850586 1425.910156 507.364014 C 1414.772461 485.807739 1403.277222 464.318726 1390.194946 443.917969 C 1377.305298 423.817871 1362.525513 404.893311 1347.970825 385.91626 C 1342.443359 378.709229 1335.179077 372.84436 1328.830078 366.248779 C 1327.538452 364.906982 1326.801758 363.031006 1325.977051 361.019531 C 1326.213257 360.380371 1326.175415 360.13623 1326.031128 359.905518 C 1324.416992 358.82312 1322.937256 357.221558 1321.161865 356.762695 C 1316.992676 355.684814 1312.113281 350.321045 1312.008667 345.495483 C 1312.723267 345.240723 1313.126953 345.156738 1313.530518 345.072632 C 1313.032349 344.349243 1312.53418 343.625854 1312.036011 342.902344 C 1308.942627 340.434692 1305.891846 337.911133 1302.744873 335.513794 C 1299.084351 332.725098 1294.905884 330.478271 1291.69812 327.254028 C 1258.312012 293.697021 1223.493774 261.75415 1184.287109 235.075562 C 1166.159546 222.740479 1147.509888 210.88623 1128.035889 200.878296 C 1092.071899 182.39624 1055.516968 165.090698 1017.168945 151.77417 C 974.586182 136.987305 931.183533 125.557983 886.692871 118.608276 C 864.54303 115.148315 842.171753 112.634521 819.803955 111.169067 C 795.255127 109.560669 770.58844 108.945313 745.984924 109.172241 C 711.344055 109.491821 676.954407 113.327881 642.85144 119.5354 C 586.729065 129.750732 532.64679 146.510986 480.710541 170.125977 C 476.034027 172.252319 471.55838 174.820557 466.595337 177.575439 C 466.107697 178.496704 466.014191 179.025879 465.920715 179.555176 C 466.630951 179.398071 467.341217 179.240967 468.051483 179.083862 C 474.760071 176.426758 481.468658 173.769653 488.759399 171.286865 C 492.087646 173.734009 494.570862 173.155273 498.015594 170.164795 C 495.324158 169.982788 493.67984 169.87146 492.035492 169.760254 C 498.401703 166.962891 504.652679 163.855957 511.158173 161.432373 C 524.713989 156.381836 538.373474 151.601685 552.069763 146.94397 C 554.374634 146.160156 557.077576 146.547119 559.473694 146.818848 C 556.991089 148.512573 554.63147 149.780396 552.27179 151.04834 C 552.424377 151.356567 552.576904 151.664917 552.729431 151.973145 C 555.507507 151.00354 558.285645 150.034058 561.063782 149.064453 C 561.722595 149.064453 562.381409 149.064453 563.040222 149.064453 C 563.134766 149.25769 563.229248 149.45105 563.323792 149.644409 C 558.285522 151.753784 553.247192 153.863159 548.208923 155.972534 C 548.444824 156.684814 548.680664 157.396973 548.916504 158.109131 C 556.968262 156.877686 564.585144 153.719849 573.111694 151.221558 C 588.893799 147.480591 603.930969 143.800903 619.062195 140.559937 C 629.286133 138.370117 639.642456 136.798096 650.387573 134.95813 C 658.22052 134.00647 665.937561 134.828857 672.875 131.468262 C 672.787537 131.013428 672.700012 130.558594 672.612549 130.10376 C 665.068298 131.735962 657.524109 133.368042 649.661438 134.998779 C 648.272278 134.850098 647.201599 134.703003 645.446167 134.46167 C 647.350403 132.975342 648.666748 131.947876 649.983093 130.92041 C 649.872131 130.615356 649.761108 130.310181 649.650146 130.005005 C 643.353577 130.753906 637.057068 131.502686 630.443848 132.289063 C 631.78833 133.093506 632.77594 133.68457 634.931152 134.974121 C 631.53949 135.884033 629.386841 136.509521 627.210632 137.037842 C 609.144714 141.423828 591.074463 145.79187 573.005493 150.165405 C 573.6604 149.296021 574.137878 148.151123 574.996521 147.598511 C 588.931885 138.62915 603.345093 131.103516 620.269043 129.094971 C 645.854736 126.058472 671.319092 121.993042 696.909912 119.006958 C 726.713501 115.529175 756.713135 115.256348 786.64856 116.1521 C 819.064453 117.121948 851.348389 120.143799 883.415039 125.310669 C 922.776123 131.652954 961.528442 140.63147 999.124023 153.815186 C 1023.276062 162.284668 1046.934448 172.261108 1070.470337 182.363037 C 1097.902588 194.137207 1123.60022 209.28064 1148.905151 225.051636 C 1151.990479 226.974609 1154.793823 229.35022 1158.029663 231.956909 C 1158.496704 232.596558 1158.692505 232.758057 1158.919189 232.882324 C 1183.854614 252.029907 1209.409058 270.436035 1233.521606 290.569092 C 1251.496094 305.576782 1268.277344 322.180908 1284.410767 339.192383 C 1321.527466 378.328857 1353.66626 421.384033 1381.509644 467.576294 C 1385.240601 473.765869 1386.922729 481.156372 1390.069336 487.744507 C 1392.096191 491.988159 1395.096313 495.762451 1397.60376 499.782349 C 1400.748169 504.82312 1404.622803 509.581787 1406.815063 515.014038 C 1418.585815 544.178711 1430.890259 573.182373 1441.189941 602.873291 C 1455.237305 643.36792 1464.549072 685.174927 1470.743774 727.602539 C 1475.055298 757.132568 1476.964722 786.860291 1475.909912 816.710327 C 1475.607056 825.281006 1474.403809 833.819885 1473.613525 842.373413 C 1473.200928 842.388489 1472.788452 842.403564 1472.375854 842.418701 C 1472.24939 841.084778 1472.01709 839.75116 1472.013184 838.41687 C 1471.983154 828.085144 1472.124268 817.751465 1471.973877 807.421814 C 1471.522583 776.400452 1467.814087 745.690308 1462.46228 715.184448 C 1459.817749 700.109436 1456.374878 685.174133 1453.260864 670.182312 C 1452.888306 668.389221 1453.253174 666.225098 1449.96167 666.293518 C 1449.057007 666.312256 1447.803955 662.90625 1447.177612 660.924194 C 1440.404541 639.491699 1434.149292 617.885376 1426.924683 596.607666 C 1414.594482 560.293823 1399.636353 525.049194 1381.975586 490.979614 C 1381.454102 489.973633 1380.841064 489.014893 1380.078003 487.703003 C 1377.339355 491.418335 1378.535889 494.545166 1380.422974 497.552979 C 1382.988892 501.642944 1385.781494 505.593872 1388.261475 509.733276 C 1389.492065 511.787231 1390.24231 514.128906 1391.209839 516.340332 C 1390.841675 516.618042 1390.473389 516.895752 1390.105225 517.17334 C 1388.844116 516.09375 1387.251099 515.230469 1386.38147 513.895874 C 1383.20874 509.027588 1379.705566 504.25769 1377.352539 498.99231 C 1366.202271 474.039795 1350.919067 451.618164 1335.235962 429.451904 C 1317.813721 404.827515 1298.326416 381.929932 1277.631348 359.953613 C 1233.019043 312.579712 1182.209229 273.132568 1126.478638 239.824219 C 1121.900269 237.087891 1117.453125 234.533691 1111.729126 233.613892 C 1106.44165 232.76416 1101.327759 229.2229 1096.733887 226.013184 C 1087.78894 219.76355 1077.618774 217.154419 1067.16687 214.976074 C 1078.089722 220.66626 1089.012695 226.356445 1100.036133 232.442017 C 1100.136841 232.837524 1099.9375 233.09021 1099.9375 233.09021 C 1084.45459 226.120605 1069.19812 218.582275 1053.439575 212.304688 C 1024.519897 200.783936 995.333923 189.927246 966.19458 178.965088 C 956.921814 175.476685 947.444702 172.531494 938.061096 169.337646 C 938.220703 168.83728 938.380249 168.336792 938.539795 167.836304 C 955.250732 173.01416 971.961609 178.191895 988.672485 183.369751 C 988.779785 183.061157 988.887146 182.752563 988.994446 182.44397 C 981.117249 179.706177 973.240051 176.968384 965.362793 174.230713 C 965.365234 174.035034 965.367676 173.839478 965.370117 173.643921 C 967.778809 173.877319 970.1875 174.110718 972.596191 174.343994 C 972.689758 174.081055 972.783325 173.818115 972.876892 173.555054 C 965.198242 170.852295 957.539124 168.092163 949.832397 165.472046 C 946.208984 164.240112 942.523315 163.162842 938.814209 162.217896 C 931.764893 160.421997 924.653625 157.103027 918.251526 162.937012 C 921.582581 163.744019 925.550049 164.7052 929.517578 165.666382 C 929.447266 166.074219 929.376953 166.481934 929.306641 166.889771 C 894.652832 162.017944 859.999084 157.146118 825.997314 152.365967 C 825.886902 152.431763 826.846558 151.859741 827.993713 151.175903 C 827.414734 150.788696 827.011902 150.284546 826.638489 150.30542 C 822.156006 150.556641 817.667725 151.235107 813.201416 151.10376 C 807.897644 150.947876 802.621704 150.008179 797.318481 149.612061 C 794.193604 149.37854 791.033691 149.649658 787.899292 149.49585 C 784.312744 149.319824 780.671326 149.253174 777.17041 148.554443 C 770.265442 147.176392 763.395203 147.988403 757.935913 151.819824 C 749.933533 157.436157 741.025208 157.557007 732.208008 157.863159 C 696.983459 159.08606 662.295105 164.180298 627.911011 171.574463 C 580.839478 181.697144 535.46759 197.060059 491.605896 216.823486 C 447.277008 236.797363 405.184418 260.764893 366.431366 290.183228 C 348.304993 303.943359 331.003418 318.838989 313.867584 333.836426 C 303.879181 342.578369 294.933533 352.515625 285.592194 361.987549 C 284.630554 362.962646 283.511108 364.476929 283.588287 365.668213 C 284.066467 373.051758 278.383942 379.726929 270.946686 380.426025 C 269.635345 380.549438 268.153809 381.429443 267.21048 382.404663 C 264.670013 385.030884 262.257782 387.803467 260.007935 390.68457 C 249.784576 403.776367 239.659363 416.944824 229.453812 430.050537 C 198.708069 469.533569 173.246048 512.269409 152.32431 557.628906 C 124.327133 618.328369 104.97126 681.733643 95.986015 748.068237 C 93.176582 768.809265 91.321129 789.724609 90.102554 810.622681 C 88.989014 829.719666 88.12178 848.976318 89.309082 868.027832 C 91.06562 896.213318 93.944206 924.387817 97.776878 952.370911 C 103.441498 993.729553 114.292984 1033.937012 127.982414 1073.353394 C 144.8228 1121.842529 166.87915 1167.849609 193.939651 1211.478027 C 211.714493 1240.135864 232.004898 1266.848389 254.385788 1292.068237 C 276.088501 1316.523804 299.260956 1339.449219 324.59729 1360.065308 C 350.281738 1380.964844 376.554138 1401.140747 402.517822 1421.698242 C 429.003265 1442.668823 458.495758 1458.213379 489.826019 1470.52063 C 521.740845 1483.057617 553.34729 1496.43689 585.576233 1508.100342 C 615.209167 1518.824463 645.943115 1525.835571 677.298035 1529.695435 C 680.916931 1530.140991 684.620605 1530.035522 688.281738 1529.978149 C 708.181396 1529.666016 727.616577 1533.315308 747.244751 1535.89209 C 764.427124 1538.147583 782.076294 1537.39502 799.50238 1537.068481 C 812.778809 1536.819824 826.149902 1535.952759 839.265015 1533.956177 C 865.740601 1529.925415 892.195068 1525.543823 918.42157 1520.155029 C 939.436523 1515.837158 960.104187 1509.82666 980.916992 1504.531982 C 982.35321 1504.166626 984.173279 1503.90625 985.03595 1502.91748 C 990.554565 1496.592163 998.823547 1494.377563 1005.768127 1494.211426 C 1023.41626 1493.789551 1037.376953 1484.295776 1052.52356 1477.948242 C 1067.848267 1471.526001 1082.770874 1463.932617 1097.252441 1455.758545 C 1120.148071 1442.835815 1142.875 1429.542847 1165.025269 1415.391968 C 1185.364746 1402.397827 1204.672607 1387.842651 1221.839844 1370.691772 C 1222.511353 1370.020996 1223.33606 1369.503662 1224.089355 1368.914795 C 1224.442993 1369.221558 1224.796631 1369.52832 1225.150269 1369.835083 C 1221.541016 1373.898926 1218.413574 1378.561523 1214.238403 1381.922241 C 1196.755371 1395.994751 1179.523315 1410.489746 1161.123779 1423.282715 C 1141.056152 1437.235474 1119.803467 1449.484741 1099.056641 1462.459106 C 1096.27124 1464.201294 1093.422241 1465.841797 1090.074829 1467.845093 C 1097.650024 1467.526611 1136.898315 1445.436035 1163.727051 1426.085815 C 1186.630981 1409.566406 1209.112549 1392.461182 1232.69165 1374.938232 C 1230.90332 1377.077881 1229.881836 1378.806885 1228.415039 1379.978516 C 1209.180176 1395.340698 1190.275513 1411.155029 1170.503784 1425.796997 C 1144.086304 1445.360474 1115.494385 1461.574951 1086.158813 1476.302246 C 1035.661377 1501.653198 982.79071 1520.698975 927.931702 1534.282593 C 912.934143 1537.995972 898.293762 1543.44812 883.142151 1546.166748 C 864.519592 1549.508301 845.584656 1551.803345 826.692566 1552.796021 C 792.967468 1554.568726 759.173218 1555.025146 725.408142 1556.041992 C 724.928833 1556.056519 724.453613 1556.203735 723.940857 1556.801025 C 730.930847 1557.501587 737.906677 1558.437134 744.913391 1558.860474 C 769.022888 1560.316406 793.086304 1559.9729 817.21936 1558.291504 C 863.116821 1555.093994 907.944458 1546.348267 952.109314 1533.918213 C 991.4505 1522.845825 1029.631836 1508.529663 1066.83728 1491.610107 C 1072.585449 1488.996094 1078.411499 1486.553101 1084.665283 1484.083496 C 1085.129028 1484.135864 1085.323853 1484.359619 1085.323853 1484.359619 C 1079.617676 1488.036865 1074.211914 1492.33606 1068.144531 1495.265137 C 1054.510132 1501.847168 1040.547485 1507.748901 1026.71875 1513.928345 C 1025.521973 1514.462891 1024.326904 1515.001709 1023.474792 1516.56665 C 1028.726074 1514.730835 1034.135498 1513.250122 1039.200073 1510.995117 C 1057.124878 1503.01416 1076.447266 1497.000244 1092.451172 1486.133789 C 1121.123779 1466.665039 1153.367065 1453.22229 1180.842773 1432.026367 C 1196.640137 1419.839844 1212.607544 1407.794189 1227.58606 1394.645874 C 1245.455933 1378.959229 1262.345825 1362.156494 1279.678711 1345.856934 C 1280.480225 1345.103149 1281.461548 1344.540283 1282.359131 1343.88855 C 1282.781616 1344.268433 1283.203979 1344.648315 1283.626465 1345.02832 C 1277.714844 1351.845947 1271.980835 1358.828613 1265.842407 1365.435425 C 1259.608398 1372.144897 1253.110107 1378.624756 1246.479736 1384.945313 C 1239.741089 1391.368896 1232.779053 1397.565308 1225.769043 1403.694458 C 1218.882813 1409.715454 1211.934326 1415.677856 1204.790649 1421.387573 C 1197.512939 1427.204224 1190.03064 1432.772583 1182.515625 1438.282715 C 1175.160889 1443.675171 1167.651611 1448.8573 1160.612549 1455.08606 C 1161.638794 1454.67334 1162.800049 1454.448242 1163.671387 1453.820435 C 1186.345459 1437.487305 1209.082886 1421.238892 1231.563721 1404.643188 C 1236.338623 1401.118286 1240.103638 1396.242798 1244.43042 1392.090088 C 1259.679932 1377.454224 1275.264038 1363.153809 1290.182861 1348.189453 C 1317.137573 1321.152588 1341.915161 1292.204224 1363.171997 1260.44043 C 1371.303345 1248.289795 1378.199585 1235.312378 1385.648071 1222.705444 C 1392.250366 1211.530762 1399.01062 1200.444824 1405.397949 1189.148315 C 1421.676392 1160.358154 1434.496704 1130.059937 1445.000366 1098.7052 C 1458.901489 1057.209473 1468.775391 1014.769165 1474.616211 971.463867 C 1477.657593 948.914856 1479.383789 926.15863 1480.885132 903.441833 C 1481.959717 887.185181 1481.6698 870.838501 1482.002075 854.532227 C 1482.037109 852.81012 1482.161499 851.089783 1482.244385 849.368652 C 1482.658081 849.359802 1483.071655 849.350952 1483.485352 849.342163 C 1484.242432 854.667419 1485.239624 859.971375 1485.7146 865.321655 C 1487.701294 887.70697 1489.293823 910.110779 1487.119629 932.587341 C 1485.055298 953.929565 1483.780029 975.384094 1480.758057 996.589722 C 1475.466064 1033.724121 1466.442871 1070.056763 1455.281982 1105.89563 C 1444.264526 1141.274048 1430.369751 1175.459473 1414.538696 1208.906494 C 1412.565063 1213.076538 1410.635376 1217.267578 1408.904785 1221.928467 C 1409.768188 1222.612305 1410.412109 1222.81665 1411.055908 1223.020996 C 1412.404297 1222.222168 1413.752686 1221.423462 1415.101074 1220.624634 C 1415.516113 1220.96875 1415.931152 1221.312866 1416.346313 1221.656982 C 1413.160278 1227.365967 1410.298462 1233.287354 1406.724487 1238.742188 C 1397.697021 1252.520508 1388.540649 1266.224731 1379.020752 1279.664429 C 1375.900635 1284.06897 1370.968018 1287.180542 1367.793945 1291.557495 C 1359.49231 1303.004761 1351.919678 1314.97937 1343.663208 1326.460938 C 1329.340088 1346.379272 1313.352051 1364.852783 1294.758057 1380.967041 C 1293.765625 1381.827271 1292.763062 1382.828003 1292.168945 1383.972778 C 1284.028442 1399.657959 1269.992188 1409.90979 1257.539917 1421.606934 C 1249.910522 1428.773804 1242.374146 1436.077393 1234.311401 1442.732422 C 1228.571411 1447.470215 1222.049316 1451.2677 1215.832275 1455.419189 C 1190.084229 1472.613037 1164.667236 1490.3396 1138.406494 1506.712158 C 1126.223267 1514.307617 1112.367554 1519.211304 1099.310669 1525.420532 C 1095.428223 1527.266968 1091.71582 1529.467529 1087.869385 1531.393799 C 1076.735107 1536.969604 1065.789185 1542.987183 1054.38269 1547.94165 C 1008.843689 1567.722046 961.518799 1581.982788 912.81781 1591.335693 C 889.156006 1595.879883 865.180298 1598.910522 841.263184 1601.974609 C 809.172424 1606.085938 776.840271 1607.116455 744.575439 1605.774536 C 717.363525 1604.642578 690.153442 1602.234009 663.087463 1599.127563 C 625.817871 1594.850098 589.278687 1586.569702 553.265625 1576.052856 C 521.893494 1566.891357 491.342712 1555.543579 461.440308 1542.318359 C 420.342041 1524.141479 381.36438 1502.217773 344.18692 1477.064453 C 317.556671 1459.047119 291.967072 1439.636597 268.319977 1417.801636 C 254.504883 1405.045288 240.512802 1392.409546 227.574875 1378.793579 C 213.268356 1363.737427 199.571716 1348.030029 186.520737 1331.870483 C 169.180008 1310.399292 152.58342 1288.319824 135.977188 1266.268066 C 131.69783 1260.585571 128.68132 1253.965332 124.899712 1247.890991 C 120.865822 1241.411255 116.578644 1235.089844 112.467201 1228.657715 C 109.604774 1224.179565 106.652733 1219.741333 104.087044 1215.094116 C 95.479294 1199.503174 87.027756 1183.825806 78.51181 1168.184082 C 78.193703 1167.599854 77.755234 1167.072388 77.495628 1166.465942 C 70.691872 1150.572754 63.848591 1134.696045 57.160828 1118.753906 C 55.815514 1115.546997 55.071018 1112.088013 53.917316 1108.158936 C 53.505058 1107.249512 53.224983 1106.92627 52.944897 1106.603149 C 52.597511 1107.057129 52.250137 1107.51123 51.902771 1107.96521 C 50.986786 1106.634521 49.7015 1105.427368 49.208275 1103.955078 C 33.04554 1055.707397 17.699095 1007.194458 10.472568 956.653381 C 8.445108 942.473694 9.718518 927.849915 8.508258 913.511719 C 8.017981 907.703369 7.783712 900.907776 1.372563 896.984924 C 1 895.285645 1 893.571289 1.301427 891.217163 C 1.401903 883.384949 1.200951 876.192444 1 869 C 1 859.979126 1 850.958191 1.174366 841.115967 C 6.08397 816.871033 7.374875 799.189941 4.983099 794.721008 C 3.750804 796.354187 2.375402 798.177124 1 800 C 1 797.629456 1 795.25885 1 792.444153 C 2.172555 783.316528 3.101804 774.591614 4.569381 765.958313 C 7.437963 749.083313 10.712253 732.277588 13.622181 715.409302 C 16.484165 698.81897 18.427961 682.041748 21.959827 665.601074 C 31.069529 623.196167 44.377048 582.069092 61.415546 542.165283 C 74.829575 510.75 89.958473 480.183228 107.60524 450.932495 C 129.468567 414.692627 153.959808 380.295654 181.400772 348.036987 C 189.045731 339.049805 196.68956 330.060059 204.467392 321.188599 C 206.757156 318.576904 209.505066 316.366699 212.453613 313.921875 C 212.864212 313.871216 213.088516 314.062378 213.088531 314.062378 M 1156.355591 1457.925537 C 1156.461182 1457.616211 1156.566772 1457.306763 1156.672363 1456.997437 C 1156.348267 1457.207153 1156.02417 1457.416992 1155.455078 1457.74353 C 1155.300537 1457.950317 1155.146118 1458.157104 1154.991699 1458.36377 C 1155.344971 1458.267456 1155.698364 1458.171143 1156.355591 1457.925537 M 155.610962 466.270386 C 155.363098 466.908447 155.11525 467.546631 154.867386 468.18457 C 155.082916 468.26355 155.298447 468.342529 155.513977 468.421509 C 155.776443 467.712646 156.03891 467.003784 156.544128 466.0896 C 156.654327 465.823853 156.764526 465.558105 156.87471 465.292358 C 156.561569 465.504761 156.248444 465.717285 155.610962 466.270386 M 1018.097046 189.209351 C 1018.217651 189.239868 1018.338196 189.270508 1018.458801 189.301147 C 1018.403198 189.092285 1018.347656 188.883545 1018.052673 188.029419 C 1012.858948 182.088379 1005.387329 182.304321 998.965515 179.682617 C 998.752747 180.235718 998.539917 180.788818 998.327148 181.341797 C 1004.867249 183.919678 1011.407349 186.497559 1018.097046 189.209351 M 423.74469 200.88208 C 434.83313 195.730469 445.7276 190.224976 456.543457 184.575928 C 456.162201 183.86792 455.780975 183.159668 455.399719 182.451538 C 444.140198 187.82666 432.904297 193.246826 422.074402 200.865723 C 420.257324 201.6875 418.440216 202.509277 416.623138 203.331177 C 416.805511 203.671387 416.987885 204.011719 417.170288 204.352051 C 419.131073 203.259521 421.091858 202.166992 423.74469 200.88208 M 316.424774 280.939819 C 297.565155 296.991577 279.259338 313.63208 262.16687 331.605469 C 265.833618 329.609009 268.975464 327.012207 272.102905 324.397949 C 290.479767 309.037476 308.553345 293.295898 327.289368 278.386963 C 368.21524 245.820557 412.222748 217.957275 459.439972 195.468872 C 482.409027 184.529297 506.188538 175.292236 529.587219 165.251831 C 531.154724 164.579224 532.604004 163.630981 534.108215 162.811035 C 533.894531 162.359131 533.680847 161.907227 533.467102 161.455444 C 531.932007 161.823364 530.321228 162.00354 528.873108 162.587158 C 504.335663 172.477905 479.672394 182.077148 455.3526 192.478882 C 441.166931 198.546265 427.479156 205.798584 413.688446 212.757568 C 408.388092 215.432251 403.261963 218.533569 398.340546 221.860718 C 388.412628 228.57251 378.827179 235.798584 368.79715 242.348022 C 364.422119 245.204834 358.681183 246.127197 354.632111 249.296997 C 341.801697 259.340942 329.476532 270.030396 316.424774 280.939819 M 883.836731 1565.303345 C 939.787842 1557.804443 992.82135 1540.663818 1043.886597 1516.994873 C 983.630249 1541.542114 921.420898 1558.834106 856.947998 1568.300049 C 865.621765 1567.36792 874.295532 1566.435791 883.836731 1565.303345 M 1340.58374 430.910767 C 1350.957031 447.4729 1361.3302 464.035156 1371.787109 480.730957 C 1374.964233 478.941406 1374.555664 476.593384 1373.098022 474.317871 C 1368.391357 466.970459 1363.663574 459.632446 1358.750732 452.422485 C 1353.696289 445.004761 1348.473389 437.699219 1343.212769 430.425293 C 1339.602783 425.43396 1335.80249 420.580322 1332.08728 415.665161 C 1331.647461 415.991821 1331.207764 416.318481 1330.767944 416.645142 C 1333.906982 421.199341 1337.046143 425.75354 1340.58374 430.910767 M 197.498016 406.999878 C 201.41153 401.557617 205.325027 396.115479 209.238541 390.673218 C 208.819565 390.386963 208.400589 390.100586 207.981598 389.814331 C 189.700668 412.249878 173.061798 435.816406 158.551331 460.849121 C 159.061264 461.200562 159.571182 461.552124 160.081116 461.903564 C 172.401962 443.787964 184.722824 425.672363 197.498016 406.999878 M 797.692566 142.95166 C 794.297668 142.736572 790.902832 142.521606 787.507935 142.306641 C 787.473328 143.146851 787.43866 143.987061 787.403992 144.827271 C 798.104126 147.42749 809.044312 145.293213 819.89325 145.091064 C 812.79657 144.387695 805.699951 143.684204 797.692566 142.95166 M 758.750916 142.005005 C 752.088257 142.005005 745.425659 142.005005 738.763 142.005005 C 738.772827 142.455688 738.782593 142.906372 738.792419 143.357056 C 746.510925 143.357056 754.229492 143.357056 761.948059 143.357056 C 761.946533 142.948486 761.945068 142.539917 761.943542 142.131226 C 761.127075 142.090576 760.310547 142.049927 758.750916 142.005005 M 707.700745 129.449341 C 710.535706 128.531128 713.370728 127.612915 716.205688 126.694702 C 716.059387 126.152222 715.913025 125.609741 715.766724 125.067261 C 709.037415 126.669678 702.308044 128.272217 695.578735 129.874634 C 695.646362 130.275635 695.713928 130.676514 695.781555 131.077393 C 699.487183 130.609375 703.192871 130.141357 707.700745 129.449341 M 887.082153 150.614502 C 881.623169 149.287109 876.164246 147.959717 870.705261 146.632324 C 870.551819 147.361328 870.398315 148.090454 870.244873 148.81958 C 872.763123 149.54541 875.242188 150.613525 877.809875 150.906738 C 880.745911 151.242065 883.760681 150.888428 887.082153 150.614502 M 747.684082 124.002319 C 745.42981 124.002319 743.175537 124.002319 740.921265 124.002319 C 740.925598 124.213013 740.929932 124.423706 740.934265 124.634399 C 752.588013 124.634399 764.24176 124.634399 775.895508 124.634399 C 775.894531 124.423706 775.893555 124.213013 775.892639 124.002319 C 766.804565 124.002319 757.716553 124.002319 747.684082 124.002319 M 957.348938 155.165649 C 956.352966 155.235718 955.357056 155.305908 953.802063 155.415283 C 959.806763 159.956787 962.247192 159.800049 963.183472 154.750366 C 961.310181 154.937378 959.612549 155.106812 957.348938 155.165649 M 1160.568848 246.054077 C 1159.221436 245.307983 1157.874023 244.56189 1156.526611 243.815918 C 1156.223999 244.272583 1155.921387 244.72937 1155.618774 245.186157 C 1158.829346 247.557251 1162.039917 249.928223 1165.250488 252.299316 C 1165.61792 251.877197 1165.985229 251.454956 1166.352661 251.032837 C 1164.607422 249.506348 1162.862061 247.979858 1160.568848 246.054077 M 1281.01123 357.337769 C 1281.655029 357.330444 1282.298706 357.323242 1282.942505 357.315918 C 1282.186279 356.562256 1281.430176 355.808594 1280.674072 355.054932 C 1280.672974 355.701904 1280.671997 356.348999 1281.01123 357.337769 M 1149.856689 1461.204224 C 1150.216797 1461.231934 1150.58606 1461.311035 1150.930786 1461.250366 C 1151.014893 1461.235352 1151.018311 1460.762207 1151.058838 1460.499634 C 1150.680908 1460.645142 1150.302856 1460.790527 1149.856689 1461.204224 M 1145.969849 1464.209839 C 1146.061768 1463.975708 1146.153809 1463.741577 1146.24585 1463.507446 C 1145.990601 1463.544067 1145.735352 1463.580811 1145.480103 1463.617432 C 1145.56604 1463.834106 1145.6521 1464.050781 1145.969849 1464.209839 M 216.095139 380.819458 C 215.996048 380.872192 215.896957 380.925049 215.797852 380.977783 C 215.870056 381.05957 215.942245 381.141357 216.014435 381.223145 C 216.078247 381.130371 216.142059 381.037842 216.095139 380.819458 M 211.818344 385.904297 C 211.952881 385.930786 212.087433 385.957275 212.22197 385.983887 C 212.129181 385.920288 212.036392 385.856689 211.818344 385.904297 M 1291.819092 367.904297 C 1291.953491 367.931396 1292.087769 367.958496 1292.222168 367.985596 C 1292.129639 367.921631 1292.037109 367.857666 1291.819092 367.904297 M 1322.095093 403.819702 C 1321.996094 403.872681 1321.897217 403.925537 1321.798218 403.978516 C 1321.870483 404.060059 1321.942871 404.141724 1322.015137 404.223389 C 1322.078735 404.130615 1322.142334 404.037842 1322.095093 403.819702 M 1326.197876 408.932129 C 1326.084839 409.010254 1325.971924 409.088379 1325.858887 409.166382 C 1325.969238 409.144897 1326.079468 409.123413 1326.197876 408.932129 M 1329.067627 413.197266 C 1329.011108 413.194336 1328.954468 413.191406 1329.067627 413.197266 M 539.789551 161.041626 C 539.903748 160.963257 540.017883 160.884888 540.132019 160.806519 C 540.020752 160.827881 539.909546 160.849121 539.789551 161.041626 M 1299.387451 376.626587 C 1299.387451 376.626587 1299.642334 376.440918 1299.642334 376.440918 C 1299.642334 376.440918 1299.345093 376.500122 1299.387451 376.626587 M 1314.405396 394.40625 C 1314.405396 394.40625 1314.54834 394.710083 1314.54834 394.710083 C 1314.54834 394.710083 1314.530151 394.365479 1314.405396 394.40625 M 1310.515381 389.348511 C 1310.515381 389.348511 1310.427124 389.682129 1310.427124 389.682129 C 1310.427124 389.682129 1310.624634 389.423096 1310.515381 389.348511 M 1305.594849 383.593872 C 1305.594849 383.593872 1305.451782 383.290039 1305.451782 383.290039 C 1305.451782 383.290039 1305.470093 383.634644 1305.594849 383.593872 M 1318.612549 399.373413 C 1318.612549 399.373413 1318.357422 399.559082 1318.357422 399.559082 C 1318.357422 399.559082 1318.654907 399.499878 1318.612549 399.373413 M 1153.077759 241.616211 C 1153.077759 241.616211 1153.031128 241.437744 1153.031128 241.437744 C 1153.031128 241.437744 1152.973267 241.612061 1153.077759 241.616211 M 1168.545288 254.020752 C 1168.545288 254.020752 1168.440796 253.86145 1168.440796 253.86145 C 1168.440796 253.86145 1168.446167 254.054932 1168.545288 254.020752 M 209.450363 321.960693 C 209.450363 321.960693 209.554382 322.119385 209.554382 322.119385 C 209.554382 322.119385 209.549088 321.924561 209.450363 321.960693 M 1261.530762 335.920532 C 1261.530762 335.920532 1261.463623 336.102539 1261.463623 336.102539 C 1261.463623 336.102539 1261.61084 335.988281 1261.530762 335.920532 M 252.979095 340.545044 C 252.979095 340.545044 253.138397 340.440674 253.138397 340.440674 C 253.138397 340.440674 252.944962 340.446289 252.979095 340.545044 M 220.383804 376.077759 C 220.383804 376.077759 220.56221 376.031006 220.56221 376.031006 C 220.56221 376.031006 220.387848 375.973267 220.383804 376.077759 M 537.506836 161.549561 C 537.506836 161.549561 537.473999 161.476929 537.506836 161.549561 Z"/>
    <path id="path1" stroke="none" d="M 1192.124268 735.172241 C 1190.581299 749.898743 1190.633301 750.315063 1176.475586 752.081848 C 1159.823608 754.15979 1143.072388 755.449707 1126.359375 757.030762 C 1100.819702 759.44696 1075.513062 757.204956 1050.328979 752.994019 C 1045.413208 752.171997 1040.591675 750.792664 1035.719849 749.700684 C 1032.664551 749.015808 1031.47168 747.52356 1031.760132 744.067139 C 1032.486938 735.354187 1032.266602 735.338806 1023.985168 733.464355 C 1022.523865 733.133606 1021.070984 732.762146 1019.623718 732.374084 C 1013.335938 730.688232 1013.57489 730.102173 1013.581421 723.770813 C 1013.588745 716.688904 1012.846436 709.49054 1011.408508 702.55481 C 1009.934509 695.44519 1004.44342 691.232544 997.750366 689.192078 C 981.727112 684.307373 966.310669 684.970093 951.878479 694.66748 C 941.590454 701.580261 937.233154 711.528503 936.063721 723.327881 C 935.86731 725.309265 936.002502 727.324768 936.004578 729.324463 C 936.020264 744.329163 940.64447 749.965576 955.426697 751.994324 C 975.590881 754.761841 995.564697 758.325439 1014.813599 765.116943 C 1046.431396 776.272583 1074.558594 793.427185 1100.337524 814.736328 C 1120.637573 831.516602 1138.105225 850.825012 1152.869263 872.540466 C 1172.626099 901.599487 1186.94458 933.031006 1189.731689 968.461975 C 1193.520508 1016.624146 1184.182617 1062.019653 1157.080933 1102.698242 C 1125.148438 1150.628052 1080.285522 1179.102539 1023.496094 1187.916504 C 976.623108 1195.191284 931.394165 1187.346558 887.51416 1170.228882 C 860.306824 1159.615234 835.107178 1145.442627 812.725708 1126.708496 C 779.068726 1098.536255 752.824036 1065.195679 742.646423 1021.3349 C 738.969543 1005.489136 737.795227 989.440613 739.801331 973.229797 C 739.923767 972.240112 739.972717 971.234436 739.966553 970.236755 C 739.892395 958.188049 740.6073 959.896912 750.049927 959.385376 C 775.46283 958.008911 800.933472 957.568726 826.387634 957.144836 C 837.855835 956.953796 849.339966 957.666626 860.815796 958.003845 C 871.792786 958.326355 882.767151 958.753235 893.745605 959.00647 C 897.245117 959.087097 898.997742 960.554871 899.074341 964.089966 C 899.099304 965.241638 899.432434 966.387939 899.639221 967.534119 C 901.300842 976.744812 901.303589 976.980408 910.634033 976.911987 C 915.370728 976.877319 917.266296 979.017456 917.749695 983.268677 C 918.087463 986.239868 918.358948 989.225403 918.863403 992.169739 C 921.263306 1006.176392 930.174622 1013.634338 943.647339 1015.94989 C 954.735229 1017.855469 965.852356 1018.011658 976.699707 1014.223389 C 995.061951 1007.810669 1004.631531 994.190491 1004.444763 974.822571 C 1004.277893 957.512085 998.115662 943.558411 981.914795 935.584106 C 975.357361 932.356445 968.647705 929.043335 961.630005 927.226685 C 946.510925 923.313171 931.182434 920.172852 915.87439 917.034668 C 899.569763 913.6922 882.716492 911.886108 867.881042 903.902771 C 856.672852 897.871399 845.743225 890.903259 835.871765 882.894897 C 815.668091 866.504272 797.447266 848.084595 782.549072 826.496643 C 766.163574 802.753357 755.637329 776.704407 751.2854 748.336975 C 745.458679 710.356323 749.128174 673.182068 764.071167 637.609619 C 776.761963 607.39856 795.466064 581.390991 820.41156 559.852539 C 853.291016 531.463501 891.288391 514.565552 934.215454 509.428223 C 964.291077 505.828857 994.37146 507.478638 1024.142334 513.540161 C 1046.296753 518.051025 1067.607544 525.173584 1087.854736 535.107422 C 1105.375732 543.703735 1121.595337 554.365479 1136.259644 567.486572 C 1153.612793 583.013184 1167.839111 600.825684 1178.206055 621.597168 C 1187.216187 639.650146 1192.264893 658.886719 1194.139648 679.021973 C 1195.879395 697.706848 1195.140869 716.24469 1192.124268 735.172241 M 995.529236 1016.061646 C 978.641846 1027.731079 959.848206 1029.262085 940.479553 1025.47644 C 924.926086 1022.436646 911.326477 1015.281555 901.139282 1002.645081 C 894.797302 994.778442 891.47876 985.632202 889.981812 975.753723 C 889.420837 972.052307 888.568115 969.039429 883.745667 968.975952 C 871.599854 968.816345 859.45874 968.325684 847.314514 968.013367 C 843.150513 967.906128 838.982849 967.896301 834.817078 967.907166 C 810.697266 967.970154 786.568665 967.690247 762.461365 968.278076 C 749.985596 968.582275 750.002563 969.282776 750.001099 981.854675 C 750.000732 985.021179 749.972961 988.187988 750.006531 991.354126 C 750.220276 1011.492432 754.706665 1030.726318 763.474976 1048.763306 C 780.775208 1084.35083 808.59668 1110.008057 842.753296 1128.68689 C 889.929443 1154.485596 940.546387 1165.687622 994.376526 1161.058716 C 1020.606934 1158.803223 1045.25061 1151.330933 1068.458496 1138.867432 C 1106.366943 1118.508911 1132.126953 1087.473999 1148.069214 1048.026489 C 1158.956665 1021.086609 1162.454834 992.800476 1162.071655 963.853455 C 1161.723999 937.575256 1155.713135 912.712402 1144.492798 889.101929 C 1131.146973 861.019226 1112.250977 837.141235 1088.565552 817.038879 C 1058.79541 791.772034 1025.143188 774.326782 986.618103 766.91925 C 974.863403 764.659058 962.90625 763.406067 951.205688 760.92041 C 935.921082 757.67334 922.606323 750.87323 914.244507 736.806335 C 907.755798 725.890442 906.632507 714.037292 907.941101 701.648376 C 909.388123 687.950012 915.103027 676.657288 926.466553 668.815918 C 947.407471 654.365723 969.634033 655.123047 992.106567 664.61969 C 1014.678955 674.158508 1027.698975 692.448792 1025.105225 717.03009 C 1024.730591 720.580505 1026.150024 722.853577 1029.802734 723.40564 C 1044.421753 725.615173 1058.978271 728.817627 1073.680298 729.773926 C 1101.536987 731.585754 1129.186157 728.158325 1156.703003 723.896912 C 1160.370361 723.328918 1162.534668 721.871582 1163.227661 717.732056 C 1166.848633 696.104309 1168.168457 674.490662 1164.975464 652.659912 C 1160.343628 620.992432 1147.957642 593.157837 1124.423096 571.072388 C 1105.822144 553.616577 1083.720459 541.731567 1059.828369 533.114258 C 1020.909607 519.077026 980.695313 515.704346 939.751709 518.976563 C 916.097656 520.866943 893.52002 527.156982 872.192871 537.472412 C 833.92804 555.97998 803.965637 583.572754 783.225464 620.798828 C 763.778625 655.703247 755.536377 693.21344 759.983948 732.933838 C 764.960327 777.377014 781.639526 816.738708 813.383606 849.133728 C 828.158325 864.211365 845.073853 875.782776 865.484497 881.182922 C 882.036499 885.562195 898.933411 888.696106 915.756104 891.978638 C 936.090454 895.94635 956.186646 900.452637 974.496399 910.737854 C 986.759521 917.626465 997.186584 926.505676 1004.717041 938.456909 C 1013.025574 951.642761 1015.129944 966.204224 1014.089417 981.544128 C 1013.130066 995.68689 1007.695618 1007.218567 995.529236 1016.061646 Z"/>
    <path id="path2" stroke="none" d="M 495.590424 975.373047 C 502.689545 992.760559 516.103333 1000.253662 531.974243 995.973389 C 539.717163 993.885254 545.211304 988.813782 548.81897 982.013672 C 557.315125 965.999207 562.111694 949.052002 560.143188 930.672119 C 560.072266 930.010376 560.051208 929.341675 560.03894 928.675598 C 559.689514 909.699158 559.260437 890.723755 559.017273 871.745911 C 558.609619 839.9375 558.319031 808.127441 557.983093 776.318115 C 557.652405 745.008667 557.381958 713.698547 556.968506 682.390198 C 556.821228 671.244141 555.903992 660.095581 556.0849 648.960327 C 556.498535 623.502441 557.352051 598.05127 558.066223 572.598633 C 558.682373 550.643555 559.426025 528.691895 559.965027 506.735107 C 560.19635 497.312866 560.305603 497.065063 569.957886 496.995361 C 614.600159 496.673096 659.242126 496.317993 703.88446 496.011719 C 712.946655 495.949463 712.947083 496.023193 713.00238 505.275879 C 713.053467 513.841064 713.157898 513.946045 721.675659 513.997559 C 722.675598 514.003418 723.682129 514.085449 724.674377 514.000488 C 729.508972 513.586182 731.220215 515.953003 731.037476 520.569092 C 730.833252 525.727295 731.000671 530.900146 731.000977 536.066528 C 731.001892 554.39917 730.867432 572.73291 731.034668 591.063965 C 731.230713 612.541626 731.576904 634.019531 732.062744 655.492676 C 732.593445 678.949646 733.399109 702.400146 734.00708 725.855469 C 734.41687 741.663574 734.731628 757.474487 735.016663 773.285461 C 735.382874 793.594666 736.101379 813.909302 735.901367 834.21405 C 735.606384 864.171265 735.268677 894.153381 733.778442 924.066589 C 732.215393 955.440857 729.955078 986.816345 726.755066 1018.063843 C 722.856201 1056.136108 710.547729 1091.539917 687.998535 1122.759766 C 673.642883 1142.63562 654.065247 1156.055786 631.883972 1166.430176 C 610.363647 1176.495361 588.809082 1186.046143 565.109131 1189.417969 C 518.856018 1195.998413 473.041504 1195.764404 428.880096 1178.039673 C 395.909424 1164.806519 370.877594 1142.253418 352.782898 1111.637451 C 331.010681 1074.799561 318.486664 1034.915039 311.950958 992.874695 C 307.174133 962.148315 306.51004 931.23175 307.077393 900.242249 C 307.141113 896.761353 307.2547 893.137634 308.277832 889.872314 C 308.888123 887.924561 311.066833 885.581482 312.973541 885.087402 C 319.554047 883.382507 326.304962 881.471436 333.026672 881.329712 C 357.804443 880.807373 382.625641 880.188843 407.373596 881.119507 C 425.761292 881.810974 444.055145 884.898987 462.403687 886.7948 C 467.39505 887.310547 469.145752 889.786133 469.080292 894.718384 C 468.958069 903.927063 469.17099 903.929871 478.335785 905.068909 C 486.717133 906.110596 486.524048 906.369385 487.090881 915.022034 C 488.068542 929.945374 489.322815 944.864136 491.034546 959.718689 C 491.633881 964.9198 493.923035 969.926147 495.590424 975.373047 M 358.41806 1104.081177 C 365.562592 1115.430786 374.052795 1125.594971 384.554474 1134.025391 C 398.771912 1145.438721 414.388275 1154.444092 432.340332 1157.920044 C 447.648224 1160.884155 463.272064 1162.266357 478.784088 1164.113525 C 497.763306 1166.373779 516.662842 1164.667358 535.509583 1162.347168 C 561.075439 1159.199951 584.893799 1150.389282 608.236145 1139.914429 C 629.08783 1130.557251 647.664795 1118.215576 661.212769 1099.524292 C 680.436401 1073.002441 692.392212 1043.145508 696.716309 1010.884644 C 700.730835 980.9328 703.020508 950.69574 704.759827 920.508789 C 706.395752 892.115662 706.541077 863.626648 706.907166 835.174316 C 707.095459 820.540161 706.270569 805.89502 706.019165 791.252869 C 705.633423 768.781494 705.479492 746.30542 704.98114 723.836853 C 704.49054 701.716431 703.598938 679.605225 703.059509 657.485596 C 702.580627 637.849365 702.174561 618.208252 702.04187 598.567261 C 701.869629 573.074219 701.992798 547.579102 702.012024 522.084717 C 702.013733 519.755737 702.006836 517.403564 702.307739 515.101929 C 703.440308 506.438843 703.12677 505.949829 694.274597 506.017944 C 655.139099 506.318848 616.003967 506.67334 576.868713 507.008789 C 576.535522 507.011597 576.200684 507.041138 575.869324 507.018799 C 571.558167 506.727417 570.078552 508.854492 569.962097 513.027588 C 569.433105 531.981934 568.54071 550.926514 568.064941 569.881836 C 567.547119 590.516724 567.019531 611.1604 567.07074 631.798828 C 567.185913 678.266296 567.610901 724.733215 567.997437 771.199707 C 568.253662 802.00415 568.619202 832.807922 569.016418 863.610962 C 569.282593 884.251343 569.689453 904.889893 570.036743 925.529236 C 570.047974 926.195251 570.05542 926.86554 570.134155 927.525513 C 572.546387 947.747864 567.51178 966.521484 558.696106 984.44043 C 554.408813 993.154846 548.156982 1000.355103 538.905396 1004.074646 C 520.331848 1011.542114 489.357208 1005.976685 477.373322 981.005981 C 465.459534 956.181396 461.105988 929.748901 459.167938 902.741821 C 458.794647 897.539612 456.740631 895.583923 452.131287 895.158508 C 433.590912 893.447327 415.08075 890.966553 396.501587 890.229858 C 373.064026 889.300537 349.562469 889.424683 326.236115 892.98053 C 318.445038 894.168213 316.994904 895.24408 317.068146 903.046204 C 317.219696 919.188293 317.458344 935.333557 317.972351 951.467529 C 318.855438 979.188232 323.168274 1006.431763 330.066528 1033.272827 C 336.386475 1057.863647 344.149658 1081.890991 358.41806 1104.081177 Z"/>
    <path id="path3" stroke="none" d="M 1100.23645 232.71106 C 1102.363281 233.498413 1104.390625 234.412231 1106.417847 235.326172 C 1106.255615 235.662598 1106.093506 235.999023 1105.931274 236.335571 C 1104.100098 235.394775 1102.269043 234.454102 1100.187744 233.30188 C 1099.9375 233.09021 1100.136841 232.837524 1100.23645 232.71106 Z"/>
    <path id="path4" stroke="none" d="M 1238.116577 1369.114014 C 1238.498657 1369.229858 1238.765747 1369.459229 1239.032959 1369.688599 C 1238.919922 1369.800659 1238.807007 1369.912842 1238.69397 1370.024902 C 1238.463257 1369.759033 1238.232544 1369.493164 1238.116577 1369.114014 Z"/>
    <path id="path5" stroke="none" d="M 1245.381836 1363.025879 C 1245.383911 1362.971313 1245.565308 1363.031128 1245.565308 1363.031128 C 1245.565308 1363.031128 1245.379883 1363.080322 1245.381836 1363.025879 Z"/>
    <path id="path6" stroke="none" d="M 1085.031982 1484.023682 C 1085.115356 1484.011719 1085.295776 1484.111816 1085.400146 1484.285767 C 1085.323853 1484.359619 1085.129028 1484.135864 1085.031982 1484.023682 Z"/>
    <path id="path7" stroke="none" d="M 1287.381348 1340.025879 C 1287.383423 1339.971069 1287.565674 1340.03125 1287.565674 1340.03125 C 1287.565674 1340.03125 1287.379272 1340.080566 1287.381348 1340.025879 Z"/>
    <path id="path8" stroke="none" d="M 212.75235 313.775269 C 212.835297 313.75415 213.03009 313.828979 213.156708 313.983154 C 213.088516 314.062378 212.864212 313.871216 212.75235 313.775269 Z"/>
    <path id="path9" stroke="none" d="M 211.880981 385.848755 C 212.036392 385.856689 212.129181 385.920288 212.22197 385.983887 C 212.087433 385.957275 211.952881 385.930786 211.880981 385.848755 Z"/>
    <path id="path10" stroke="none" d="M 1291.881836 367.849121 C 1292.037109 367.857666 1292.129639 367.921631 1292.222168 367.985596 C 1292.087769 367.958496 1291.953491 367.931396 1291.881836 367.849121 Z"/>
    <path id="path11" stroke="none" d="M 1326.193848 409.016968 C 1326.079468 409.123413 1325.969238 409.144897 1325.858887 409.166382 C 1325.971924 409.088379 1326.084839 409.010254 1326.193848 409.016968 Z"/>
    <path id="path12" stroke="none" d="M 1328.982788 413.192871 C 1328.954468 413.191406 1329.011108 413.194336 1328.982788 413.192871 Z"/>
    <path id="path13" stroke="none" d="M 539.793945 160.956055 C 539.909546 160.849121 540.020752 160.827881 540.132019 160.806519 C 540.017883 160.884888 539.903748 160.963257 539.793945 160.956055 Z"/>
    <path id="path14" stroke="none" d="M 1299.366211 376.563354 C 1299.345093 376.500122 1299.642334 376.440918 1299.642334 376.440918 C 1299.642334 376.440918 1299.387451 376.626587 1299.366211 376.563354 Z"/>
    <path id="path15" stroke="none" d="M 1314.467773 394.385742 C 1314.530151 394.365479 1314.54834 394.710083 1314.54834 394.710083 C 1314.54834 394.710083 1314.405396 394.40625 1314.467773 394.385742 Z"/>
    <path id="path16" stroke="none" d="M 1310.570068 389.385864 C 1310.624634 389.423096 1310.427124 389.682129 1310.427124 389.682129 C 1310.427124 389.682129 1310.515381 389.348511 1310.570068 389.385864 Z"/>
    <path id="path17" stroke="none" d="M 1305.532471 383.614258 C 1305.470093 383.634644 1305.451782 383.290039 1305.451782 383.290039 C 1305.451782 383.290039 1305.594849 383.593872 1305.532471 383.614258 Z"/>
    <path id="path18" stroke="none" d="M 1318.633789 399.436646 C 1318.654907 399.499878 1318.357422 399.559082 1318.357422 399.559082 C 1318.357422 399.559082 1318.612549 399.373413 1318.633789 399.436646 Z"/>
    <path id="path19" stroke="none" d="M 1168.495728 254.037842 C 1168.446167 254.054932 1168.440796 253.86145 1168.440796 253.86145 C 1168.440796 253.86145 1168.545288 254.020752 1168.495728 254.037842 Z"/>
    <path id="path20" stroke="none" d="M 209.499725 321.942627 C 209.549088 321.924561 209.554382 322.119385 209.554382 322.119385 C 209.554382 322.119385 209.450363 321.960693 209.499725 321.942627 Z"/>
    <path id="path21" stroke="none" d="M 1261.570801 335.954468 C 1261.61084 335.988281 1261.463623 336.102539 1261.463623 336.102539 C 1261.463623 336.102539 1261.530762 335.920532 1261.570801 335.954468 Z"/>
    <path id="path22" stroke="none" d="M 252.962036 340.495605 C 252.944962 340.446289 253.138397 340.440674 253.138397 340.440674 C 253.138397 340.440674 252.979095 340.545044 252.962036 340.495605 Z"/>
    <path id="path23" stroke="none" d="M 536.490417 161.513184 C 536.473999 161.476929 536.506836 161.549561 536.490417 161.513184 Z"/>
    <path id="path24" stroke="none" d="M 995.811951 1015.840576 C 1007.695618 1007.218567 1013.130066 995.68689 1014.089417 981.544128 C 1015.129944 966.204224 1013.025574 951.642761 1004.717041 938.456909 C 997.186584 926.505676 986.759521 917.626465 974.496399 910.737854 C 956.186646 900.452637 936.090454 895.94635 915.756104 891.978638 C 898.933411 888.696106 882.036499 885.562195 865.484497 881.182922 C 845.073853 875.782776 828.158325 864.211365 813.383606 849.133728 C 781.639526 816.738708 764.960327 777.377014 759.983948 732.933838 C 755.536377 693.21344 763.778625 655.703247 783.225464 620.798828 C 803.965637 583.572754 833.92804 555.97998 872.192871 537.472412 C 893.52002 527.156982 916.097656 520.866943 939.751709 518.976563 C 980.695313 515.704346 1020.909607 519.077026 1059.828369 533.114258 C 1083.720459 541.731567 1105.822144 553.616577 1124.423096 571.072388 C 1147.957642 593.157837 1160.343628 620.992432 1164.975464 652.659912 C 1168.168457 674.490662 1166.848633 696.104309 1163.227661 717.732056 C 1162.534668 721.871582 1160.370361 723.328918 1156.703003 723.896912 C 1129.186157 728.158325 1101.536987 731.585754 1073.680298 729.773926 C 1058.978271 728.817627 1044.421753 725.615173 1029.802734 723.40564 C 1026.150024 722.853577 1024.730591 720.580505 1025.105225 717.03009 C 1027.698975 692.448792 1014.678955 674.158508 992.106567 664.61969 C 969.634033 655.123047 947.407471 654.365723 926.466553 668.815918 C 915.103027 676.657288 909.388123 687.950012 907.941101 701.648376 C 906.632507 714.037292 907.755798 725.890442 914.244507 736.806335 C 922.606323 750.87323 935.921082 757.67334 951.205688 760.92041 C 962.90625 763.406067 974.863403 764.659058 986.618103 766.91925 C 1025.143188 774.326782 1058.79541 791.772034 1088.565552 817.038879 C 1112.250977 837.141235 1131.146973 861.019226 1144.492798 889.101929 C 1155.713135 912.712402 1161.723999 937.575256 1162.071655 963.853455 C 1162.454834 992.800476 1158.956665 1021.086609 1148.069214 1048.026489 C 1132.126953 1087.473999 1106.366943 1118.508911 1068.458496 1138.867432 C 1045.25061 1151.330933 1020.606934 1158.803223 994.376526 1161.058716 C 940.546387 1165.687622 889.929443 1154.485596 842.753296 1128.68689 C 808.59668 1110.008057 780.775208 1084.35083 763.474976 1048.763306 C 754.706665 1030.726318 750.220276 1011.492432 750.006531 991.354126 C 749.972961 988.187988 750.000732 985.021179 750.001099 981.854675 C 750.002563 969.282776 749.985596 968.582275 762.461365 968.278076 C 786.568665 967.690247 810.697266 967.970154 834.817078 967.907166 C 838.982849 967.896301 843.150513 967.906128 847.314514 968.013367 C 859.45874 968.325684 871.599854 968.816345 883.745667 968.975952 C 888.568115 969.039429 889.420837 972.052307 889.981812 975.753723 C 891.47876 985.632202 894.797302 994.778442 901.139282 1002.645081 C 911.326477 1015.281555 924.926086 1022.436646 940.479553 1025.47644 C 959.848206 1029.262085 978.641846 1027.731079 995.811951 1015.840576 Z"/>
    <path id="path25" stroke="none" d="M 358.207764 1103.786865 C 344.149658 1081.890991 336.386475 1057.863647 330.066528 1033.272827 C 323.168274 1006.431763 318.855438 979.188232 317.972351 951.467529 C 317.458344 935.333557 317.219696 919.188293 317.068146 903.046204 C 316.994904 895.24408 318.445038 894.168213 326.236115 892.98053 C 349.562469 889.424683 373.064026 889.300537 396.501587 890.229858 C 415.08075 890.966553 433.590912 893.447327 452.131287 895.158508 C 456.740631 895.583923 458.794647 897.539612 459.167938 902.741821 C 461.105988 929.748901 465.459534 956.181396 477.373322 981.005981 C 489.357208 1005.976685 520.331848 1011.542114 538.905396 1004.074646 C 548.156982 1000.355103 554.408813 993.154846 558.696106 984.44043 C 567.51178 966.521484 572.546387 947.747864 570.134155 927.525513 C 570.05542 926.86554 570.047974 926.195251 570.036743 925.529236 C 569.689453 904.889893 569.282593 884.251343 569.016418 863.610962 C 568.619202 832.807922 568.253662 802.00415 567.997437 771.199707 C 567.610901 724.733215 567.185913 678.266296 567.07074 631.798828 C 567.019531 611.1604 567.547119 590.516724 568.064941 569.881836 C 568.54071 550.926514 569.433105 531.981934 569.962097 513.027588 C 570.078552 508.854492 571.558167 506.727417 575.869324 507.018799 C 576.200684 507.041138 576.535522 507.011597 576.868713 507.008789 C 616.003967 506.67334 655.139099 506.318848 694.274597 506.017944 C 703.12677 505.949829 703.440308 506.438843 702.307739 515.101929 C 702.006836 517.403564 702.013733 519.755737 702.012024 522.084717 C 701.992798 547.579102 701.869629 573.074219 702.04187 598.567261 C 702.174561 618.208252 702.580627 637.849365 703.059509 657.485596 C 703.598938 679.605225 704.49054 701.716431 704.98114 723.836853 C 705.479492 746.30542 705.633423 768.781494 706.019165 791.252869 C 706.270569 805.89502 707.095459 820.540161 706.907166 835.174316 C 706.541077 863.626648 706.395752 892.115662 704.759827 920.508789 C 703.020508 950.69574 700.730835 980.9328 696.716309 1010.884644 C 692.392212 1043.145508 680.436401 1073.002441 661.212769 1099.524292 C 647.664795 1118.215576 629.08783 1130.557251 608.236145 1139.914429 C 584.893799 1150.389282 561.075439 1159.199951 535.509583 1162.347168 C 516.662842 1164.667358 497.763306 1166.373779 478.784088 1164.113525 C 463.272064 1162.266357 447.648224 1160.884155 432.340332 1157.920044 C 414.388275 1154.444092 398.771912 1145.438721 384.554474 1134.025391 C 374.052795 1125.594971 365.562592 1115.430786 358.207764 1103.786865 Z"/>
</svg>
